STARTFONT 2.1
FONT -FontForge-Good Times Rg-Book-R-Normal--97-930-75-75-P-720-ISO10646-1
SIZE 93 75 75
FONTBOUNDINGBOX 193 115 -27 -20
COMMENT "Generated by fontforge, http://fontforge.sourceforge.net"
COMMENT "(c) 1998-2012 Typodermic Fonts Inc. See attached license agreement. If agreement is missing visit typodermicfonts.com for more info. Languages by Chikako Larabie"
STARTPROPERTIES 39
FOUNDRY "FontForge"
FAMILY_NAME "Good Times Rg"
WEIGHT_NAME "Book"
SLANT "R"
SETWIDTH_NAME "Normal"
ADD_STYLE_NAME ""
PIXEL_SIZE 97
POINT_SIZE 930
RESOLUTION_X 75
RESOLUTION_Y 75
SPACING "P"
AVERAGE_WIDTH 720
CHARSET_REGISTRY "ISO10646"
CHARSET_ENCODING "1"
FONTNAME_REGISTRY ""
CHARSET_COLLECTIONS "ISO8859-2 ISO8859-9 ISO8859-4 ISO10646-1"
FONT_NAME "GoodTimesRg-Regular"
FACE_NAME "GoodTimesRg-Regular"
COPYRIGHT "(c) 1998-2012 Typodermic Fonts Inc. See attached license agreement. If agreement is missing visit typodermicfonts.com for more info. Languages by Chikako Larabie"
FONT_VERSION "4.001"
FONT_ASCENT 78
FONT_DESCENT 19
UNDERLINE_POSITION -14
UNDERLINE_THICKNESS 2
X_HEIGHT 70
CAP_HEIGHT 70
RAW_ASCENT 799
RAW_DESCENT 201
NORM_SPACE 29
RELATIVE_WEIGHT 40
RELATIVE_SETWIDTH 50
SUPERSCRIPT_X 0
SUPERSCRIPT_Y 29
SUPERSCRIPT_SIZE 29
SUBSCRIPT_X 0
SUBSCRIPT_Y 0
SUBSCRIPT_SIZE 29
AVG_LOWERCASE_WIDTH 827
AVG_UPPERCASE_WIDTH 823
ENDPROPERTIES
CHARS 372
STARTCHAR space
ENCODING 32
SWIDTH 294 0
DWIDTH 29 0
BBX 1 1 0 0
BITMAP
00
ENDCHAR
STARTCHAR exclam
ENCODING 33
SWIDTH 298 0
DWIDTH 29 0
BBX 13 71 8 0
BITMAP
7FF0
7FF0
7FF0
7FF0
7FF0
7FF0
7FF0
7FF0
7FF0
7FF0
7FF0
7FF0
7FF0
7FF0
7FF0
7FF0
7FF0
7FF0
7FF0
7FF0
7FF0
7FF0
7FF0
7FF0
7FF0
7FF0
7FF0
7FF0
7FF0
7FF0
7FF0
7FF0
7FF0
7FF0
7FF0
7FF0
7FF0
7FF0
7FF0
7FF0
7FF0
7FF0
7FF0
7FF0
7FF0
7FF0
7FF0
7FF0
0000
0000
0000
0000
0000
0000
0000
0000
0000
0000
0F80
3FE0
7FF0
7FF8
FFF8
FFF8
FFF8
FFF8
FFF8
7FF8
7FF0
3FE0
0F80
ENDCHAR
STARTCHAR quotedbl
ENCODING 34
SWIDTH 452 0
DWIDTH 44 0
BBX 30 25 7 46
BITMAP
FFF03FFC
FFF03FFC
FFF03FFC
FFF03FFC
FFF03FFC
FFF03FFC
FFF03FFC
FFE03FFC
FFE01FFC
FFE01FF8
7FE01FF8
7FE01FF8
7FE01FF8
7FE01FF8
7FE01FF8
7FE01FF8
7FE01FF8
7FE01FF8
7FC01FF8
7FC00FF8
7FC00FF0
3FC00FF0
3FC00FF0
3FC00FF0
3FC00FF0
ENDCHAR
STARTCHAR numbersign
ENCODING 35
SWIDTH 697 0
DWIDTH 68 0
BBX 60 71 4 0
BITMAP
000000FF8000FF00
000000FF8001FF00
000000FF8001FF00
000001FF0001FE00
000001FF0003FE00
000001FF0003FE00
000001FE0003FC00
000003FE0007FC00
000003FE0007FC00
000003FC0007FC00
000007FC0007F800
000007FC000FF800
000007FC000FF800
00000FF8000FF000
00000FF8001FF000
00000FF8001FF000
00000FF0001FE000
00001FF0003FE000
00FFFFFFFFFFFFF0
00FFFFFFFFFFFFF0
00FFFFFFFFFFFFF0
00FFFFFFFFFFFFF0
00FFFFFFFFFFFFF0
00FFFFFFFFFFFFF0
00FFFFFFFFFFFFF0
00FFFFFFFFFFFFF0
0000FF8000FF0000
0000FF8001FF0000
0000FF8001FF0000
0000FF0001FF0000
0001FF0003FE0000
0001FF0003FE0000
0001FE0003FE0000
0003FE0003FC0000
0003FE0007FC0000
0003FE0007FC0000
0003FC0007FC0000
0007FC0007F80000
0007FC000FF80000
0007FC000FF80000
000FF8000FF00000
000FF8001FF00000
000FF8001FF00000
000FF0001FF00000
FFFFFFFFFFFFF000
FFFFFFFFFFFFF000
FFFFFFFFFFFFF000
FFFFFFFFFFFFF000
FFFFFFFFFFFFF000
FFFFFFFFFFFFF000
FFFFFFFFFFFFF000
FFFFFFFFFFFFF000
007FC000FF800000
007F8000FF000000
00FF8001FF000000
00FF8001FF000000
00FF0001FF000000
01FF0001FE000000
01FF0003FE000000
01FE0003FE000000
03FE0003FC000000
03FE0007FC000000
03FE0007FC000000
03FC0007F8000000
07FC000FF8000000
07FC000FF8000000
07F8000FF8000000
0FF8001FF0000000
0FF8001FF0000000
0FF0001FF0000000
1FF0003FE0000000
ENDCHAR
STARTCHAR dollar
ENCODING 36
SWIDTH 744 0
DWIDTH 72 0
BBX 60 71 6 0
BITMAP
0000000F80000000
0000000F80000000
0000000F80000000
0000000F80000000
0000000F80000000
0000000F80000000
0000000F80000000
000FFFFFFFFFFFC0
007FFFFFFFFFFFC0
01FFFFFFFFFFFFC0
07FFFFFFFFFFFFC0
0FFFFFFFFFFFFFC0
1FFFFFFFFFFFFFC0
3FFFFFFFFFFFFFC0
3FFFFFFFFFFFFFC0
7FFFFFFFFFFFFFC0
7FFFFFFFFFFFFFC0
FFFC000F80000000
FFF0000F80000000
FFE0000F80000000
FFE0000F80000000
FFC0000F80000000
FFC0000F80000000
FFC0000F80000000
FFC0000F80000000
FFC0000F80000000
FFC0000F80000000
FFE0000F80000000
FFE0000F80000000
7FF0000F80000000
7FFC000F80000000
3FFFFFFFFFFF0000
3FFFFFFFFFFFF000
1FFFFFFFFFFFFC00
0FFFFFFFFFFFFE00
07FFFFFFFFFFFF00
01FFFFFFFFFFFF80
007FFFFFFFFFFFC0
000FFFFFFFFFFFE0
0000000F8003FFE0
0000000F8000FFE0
0000000F80003FF0
0000000F80003FF0
0000000F80001FF0
0000000F80001FF0
0000000F80001FF0
0000000F80001FF0
0000000F80001FF0
0000000F80001FF0
0000000F80001FF0
0000000F80003FF0
0000000F80007FF0
0000000F8000FFF0
0000000F8003FFF0
FFFFFFFFFFFFFFE0
FFFFFFFFFFFFFFE0
FFFFFFFFFFFFFFC0
FFFFFFFFFFFFFFC0
FFFFFFFFFFFFFF80
FFFFFFFFFFFFFF00
FFFFFFFFFFFFFE00
FFFFFFFFFFFFF800
FFFFFFFFFFFFE000
FFFFFFFFFFFF0000
0000000F80000000
0000000F80000000
0000000F80000000
0000000F80000000
0000000F80000000
0000000F80000000
0000000F80000000
ENDCHAR
STARTCHAR percent
ENCODING 37
SWIDTH 965 0
DWIDTH 94 0
BBX 86 82 4 -7
BITMAP
000000000000000007F800
00000000000000000FF000
00000000000000001FE000
0003FE00000000003FE000
001FFFC0000000003FC000
007FFFF0000000007F8000
01FFFFFC00000000FF0000
03FFFFFE00000001FF0000
07FFFFFF00000001FE0000
0FFC03FF80000003FC0000
1FF0007FC0000007F80000
1FC0003FC000000FF00000
3F80001FE000001FF00000
7F00000FE000001FE00000
7F000007F000003FC00000
7E000007F000007F800000
FE000003F00000FF800000
FE000003F00000FF000000
FC000003F80001FE000000
FC000003F80003FC000000
FC000003F80007FC000000
FC000003F8000FF8000000
FC000003F8000FF0000000
FC000003F0001FE0000000
FE000003F0003FC0000000
7E000003F0007FC0000000
7E000007F0007F80000000
7F000007E000FF00000000
3F00000FE001FE00000000
3F80001FC003FE00000000
1FC0003FC007FC00000000
1FF0007F8007F800000000
0FFC03FF000FF000000000
07FFFFFF001FE000000000
03FFFFFC003FE000000000
01FFFFF8003FC000000000
007FFFF0007F8000000000
001FFFC000FF0000000000
0003FE0001FF0000000000
0000000003FE0000000000
0000000003FC0001FF0000
0000000007F8000FFFE000
000000000FF0007FFFF800
000000001FF000FFFFFC00
000000001FE001FFFFFF00
000000003FC003FFFFFF80
000000007F8007FE01FFC0
00000000FF800FF8003FC0
00000001FF001FE0001FE0
00000001FE001FC0000FF0
00000003FC003F800007F0
00000007F8003F800003F0
0000000FF8003F000003F8
0000000FF0007F000001F8
0000001FE0007E000001F8
0000003FC0007E000001F8
0000007FC0007E000001F8
000000FF80007E000001FC
000000FF00007E000001FC
000001FE00007E000001F8
000003FE00007E000001F8
000007FC00007E000001F8
000007F800003F000001F8
00000FF000003F000003F8
00001FE000003F800003F0
00003FE000001F800007F0
00007FC000001FC0000FE0
00007F8000000FE0001FE0
0000FF0000000FF8003FC0
0001FF00000007FE01FF80
0003FE00000003FFFFFF00
0003FC00000001FFFFFE00
0007F800000000FFFFFC00
000FF0000000003FFFF800
001FF0000000000FFFE000
003FE00000000001FF0000
003FC00000000000000000
007F800000000000000000
00FF800000000000000000
01FF000000000000000000
01FE000000000000000000
07FC000000000000000000
ENDCHAR
STARTCHAR ampersand
ENCODING 38
SWIDTH 759 0
DWIDTH 74 0
BBX 66 71 5 0
BITMAP
00003FFFF800000000
0003FFFFF800000000
001FFFFFF800000000
007FFFFFF800000000
00FFFFFFF800000000
03FFFFFFF800000000
07FFFFFFF800000000
0FFFFFFFF800000000
0FFFFFFFF800000000
1FFFFFFFF800000000
1FFFFFFFF800000000
3FFFFFFFF800000000
3FFFFC000000000000
3FFFC0000000000000
7FFF00000000000000
7FFE00000000000000
7FFE00000000000000
7FFC00000000000000
7FFC00000000000000
7FFC00000000000000
7FFC00000000000000
7FFC00000000000000
7FFC00000000000000
3FFC00000000000000
3FFC00000000000000
3FFC00000000000000
1FFE00000000000000
1FFF00000000000000
0FFF80000000000000
0FFFF0000000000000
07FFFFFFFFFFFFF800
01FFFFFFFFFFFFF800
00FFFFFFFFFFFFF800
003FFFFFFFFFFFF800
007FFFFFFFFFFFF800
01FFFFFFFFFFFFF800
03FFFFFFFFFFFFF800
07FFFFFFFFFFFFF800
0FFFFFFFFFFFFFF800
1FFFFFFFFFFFFFF800
3FFFE000007FF80000
3FFF0000007FF80000
7FFE0000007FF80000
7FFC0000007FF80000
FFF80000007FF80000
FFF80000007FF80000
FFF00000007FF80000
FFF00000007FF80000
FFF00000007FF80000
FFF00000007FF80000
FFF00000007FF80000
FFF00000007FF80000
FFF80000007FF80000
FFF80000007FF80000
FFFC0000007FF80000
FFFE0000007FF80000
7FFF0000007FF80000
7FFFC000007FF80000
7FFFFE00007FF80000
3FFFFFFFFFFFFFFFC0
3FFFFFFFFFFFFFFFC0
1FFFFFFFFFFFFFFFC0
0FFFFFFFFFFFFFFFC0
0FFFFFFFFFFFFFFFC0
07FFFFFFFFFFFFFFC0
03FFFFFFFFFFFFFFC0
01FFFFFFFFFFFFFFC0
007FFFFFFFFFFFFFC0
001FFFFFFFFFFFFFC0
0007FFFFFFFFFFFFC0
00007FFFFFFFFFFFC0
ENDCHAR
STARTCHAR quotesingle
ENCODING 39
SWIDTH 255 0
DWIDTH 25 0
BBX 13 25 6 46
BITMAP
FFF8
FFF8
FFF0
FFF0
7FF0
7FF0
7FF0
7FF0
7FF0
7FF0
7FF0
7FF0
7FE0
7FE0
7FE0
3FE0
3FE0
3FE0
3FE0
3FE0
3FE0
3FE0
3FE0
3FC0
3FC0
ENDCHAR
STARTCHAR parenleft
ENCODING 40
SWIDTH 356 0
DWIDTH 35 0
BBX 19 89 9 -9
BITMAP
003FE0
003FE0
007FC0
007FC0
007F80
00FF80
00FF80
01FF00
01FF00
01FE00
03FE00
03FE00
03FC00
07FC00
07FC00
07F800
0FF800
0FF800
0FF000
1FF000
1FF000
1FE000
1FE000
3FE000
3FE000
3FC000
3FC000
3FC000
7FC000
7F8000
7F8000
7F8000
7F8000
7F8000
7F8000
7F8000
FF0000
FF0000
FF0000
FF0000
FF0000
FF0000
FF0000
FF0000
FF0000
FF0000
FF0000
FF0000
FF0000
FF0000
FF0000
FF0000
FF0000
7F0000
7F8000
7F8000
7F8000
7F8000
7F8000
7F8000
3FC000
3FC000
3FC000
3FC000
3FC000
3FE000
1FE000
1FE000
1FE000
1FF000
0FF000
0FF000
0FF800
07F800
07F800
07FC00
03FC00
03FC00
03FE00
01FE00
01FF00
01FF00
00FF00
00FF80
007F80
007FC0
003FC0
003FE0
003FE0
ENDCHAR
STARTCHAR parenright
ENCODING 41
SWIDTH 355 0
DWIDTH 34 0
BBX 19 89 6 -9
BITMAP
FF8000
7FC000
7FC000
3FC000
3FE000
1FE000
1FF000
1FF000
0FF000
0FF800
07F800
07F800
07FC00
03FC00
03FC00
03FE00
01FE00
01FE00
01FF00
00FF00
00FF00
00FF00
00FF80
007F80
007F80
007F80
007FC0
003FC0
003FC0
003FC0
003FC0
003FC0
003FE0
001FE0
001FE0
001FE0
001FE0
001FE0
001FE0
001FE0
001FE0
001FE0
001FE0
001FE0
001FE0
001FE0
001FE0
001FE0
001FE0
001FE0
001FE0
001FE0
001FE0
001FE0
001FE0
001FE0
003FE0
003FC0
003FC0
003FC0
003FC0
003FC0
007FC0
007F80
007F80
007F80
00FF80
00FF80
00FF00
00FF00
01FF00
01FE00
01FE00
03FE00
03FE00
03FC00
07FC00
07FC00
07F800
0FF800
0FF000
1FF000
1FF000
1FE000
3FE000
3FC000
7FC000
7FC000
FF8000
ENDCHAR
STARTCHAR asterisk
ENCODING 42
SWIDTH 469 0
DWIDTH 46 0
BBX 33 32 6 39
BITMAP
0003F00000
0003F00000
0003F00000
0003F00000
0003F00000
0003F00000
0003F00000
0003F00000
0003F00000
3003F00700
7E03F03F00
7FE3F1FF80
7FFFFFFF80
FFFFFFFF80
7FFFFFFF80
0FFFFFF800
01FFFFC000
001FFE0000
000FFC0000
001FFC0000
003FFE0000
003FFF0000
007F7F8000
00FE3F8000
01FE1FC000
01FC0FE000
03F80FE000
07F007F000
07F003F800
03E003F000
01C001C000
0040008000
ENDCHAR
STARTCHAR plus
ENCODING 43
SWIDTH 690 0
DWIDTH 67 0
BBX 55 55 6 8
BITMAP
000001FF000000
000001FF000000
000001FF000000
000001FF000000
000001FF000000
000001FF000000
000001FF000000
000001FF000000
000001FF000000
000001FF000000
000001FF000000
000001FF000000
000001FF000000
000001FF000000
000001FF000000
000001FF000000
000001FF000000
000001FF000000
000001FF000000
000001FF000000
000001FF000000
000001FF000000
000001FF000000
FFFFFFFFFFFFFE
FFFFFFFFFFFFFE
FFFFFFFFFFFFFE
FFFFFFFFFFFFFE
FFFFFFFFFFFFFE
FFFFFFFFFFFFFE
FFFFFFFFFFFFFE
FFFFFFFFFFFFFE
000001FF000000
000001FF000000
000001FF000000
000001FF000000
000001FF000000
000001FF000000
000001FF000000
000001FF000000
000001FF000000
000001FF000000
000001FF000000
000001FF000000
000001FF000000
000001FF000000
000001FF000000
000001FF000000
000001FF000000
000001FF000000
000001FF000000
000001FF000000
000001FF000000
000001FF000000
000001FF000000
000001FF000000
ENDCHAR
STARTCHAR comma
ENCODING 44
SWIDTH 259 0
DWIDTH 25 0
BBX 12 25 7 -12
BITMAP
FFF0
FFF0
FFF0
FFE0
FFE0
FFE0
FFE0
FFE0
FFC0
FFC0
FFC0
FFC0
FFC0
FF80
FF80
FF80
FF80
FF80
FF00
FF00
FF00
FF00
FF00
FE00
FE00
ENDCHAR
STARTCHAR hyphen
ENCODING 45
SWIDTH 296 0
DWIDTH 29 0
BBX 23 8 3 32
BITMAP
FFFFFE
FFFFFE
FFFFFE
FFFFFE
FFFFFE
FFFFFE
FFFFFE
FFFFFE
ENDCHAR
STARTCHAR period
ENCODING 46
SWIDTH 262 0
DWIDTH 25 0
BBX 13 13 6 0
BITMAP
0F80
3FE0
7FF0
7FF8
FFF8
FFF8
FFF8
FFF8
FFF8
7FF8
7FF0
3FE0
0F80
ENDCHAR
STARTCHAR slash
ENCODING 47
SWIDTH 444 0
DWIDTH 43 0
BBX 41 71 1 0
BITMAP
000000007F80
00000000FF00
00000000FF00
00000001FE00
00000001FE00
00000003FE00
00000003FC00
00000003FC00
00000007F800
00000007F800
0000000FF000
0000000FF000
0000001FE000
0000001FE000
0000003FC000
0000003FC000
0000007FC000
0000007F8000
000000FF8000
000000FF0000
000001FF0000
000001FE0000
000001FE0000
000003FC0000
000003FC0000
000007F80000
000007F80000
00000FF00000
00000FF00000
00001FF00000
00001FE00000
00003FE00000
00003FC00000
00007FC00000
00007F800000
0000FF800000
0000FF000000
0000FF000000
0001FE000000
0001FE000000
0003FC000000
0003FC000000
0007FC000000
0007F8000000
000FF8000000
000FF0000000
001FF0000000
001FE0000000
003FE0000000
003FC0000000
007FC0000000
007F80000000
007F80000000
00FF00000000
00FF00000000
01FF00000000
01FE00000000
03FE00000000
03FC00000000
07FC00000000
07F800000000
0FF800000000
0FF000000000
1FF000000000
1FE000000000
3FE000000000
3FC000000000
7FC000000000
7FC000000000
7F8000000000
FF8000000000
ENDCHAR
STARTCHAR zero
ENCODING 48
SWIDTH 838 0
DWIDTH 81 0
BBX 73 71 4 0
BITMAP
00000003FFE000000000
0000007FFFFF00000000
000003FFFFFFE0000000
00000FFFFFFFF8000000
00003FFFFFFFFE000000
0000FFFFFFFFFF800000
0001FFFFFFFFFFE00000
0007FFFFFFFFFFF00000
000FFFFFFFFFFFF80000
001FFFFFFFFFFFFC0000
003FFFFFFFFFFFFE0000
007FFFFFFFFFFFFF0000
00FFFFFFE3FFFFFF8000
01FFFFF00007FFFFC000
03FFFFC00000FFFFE000
03FFFE0000003FFFE000
07FFFC0000001FFFF000
07FFF000000007FFF800
0FFFE000000003FFF800
1FFFC000000001FFFC00
1FFF8000000000FFFC00
1FFF00000000007FFE00
3FFF00000000007FFE00
3FFE00000000003FFE00
7FFE00000000003FFF00
7FFC00000000001FFF00
7FFC00000000001FFF00
7FFC00000000000FFF80
7FF800000000000FFF80
FFF800000000000FFF80
FFF800000000000FFF80
FFF8000000000007FF80
FFF8000000000007FF80
FFF0000000000007FF80
FFF0000000000007FF80
FFF0000000000007FF80
FFF0000000000007FF80
FFF0000000000007FF80
FFF8000000000007FF80
FFF800000000000FFF80
FFF800000000000FFF80
7FF800000000000FFF80
7FF800000000000FFF00
7FFC00000000000FFF00
7FFC00000000001FFF00
3FFC00000000001FFF00
3FFE00000000003FFE00
3FFE00000000003FFE00
1FFF00000000007FFE00
1FFF80000000007FFC00
0FFF8000000000FFFC00
0FFFC000000001FFF800
07FFE000000003FFF800
07FFF000000007FFF000
03FFFC0000001FFFE000
03FFFE0000003FFFE000
01FFFF800000FFFFC000
00FFFFF00007FFFF8000
007FFFFFE3FFFFFF0000
003FFFFFFFFFFFFF0000
001FFFFFFFFFFFFE0000
000FFFFFFFFFFFFC0000
0007FFFFFFFFFFF00000
0003FFFFFFFFFFE00000
0001FFFFFFFFFFC00000
00007FFFFFFFFF000000
00001FFFFFFFFC000000
000007FFFFFFF8000000
000001FFFFFFC0000000
0000003FFFFE00000000
00000003FFE000000000
ENDCHAR
STARTCHAR one
ENCODING 49
SWIDTH 385 0
DWIDTH 37 0
BBX 29 71 2 0
BITMAP
FFF80000
FFFF8000
FFFFE000
FFFFF000
FFFFFC00
FFFFFE00
FFFFFF00
FFFFFF80
FFFFFF80
FFFFFFC0
FFFFFFE0
FFFFFFE0
00FFFFE0
000FFFF0
0003FFF0
0001FFF0
0001FFF8
0000FFF8
0000FFF8
00007FF8
00007FF8
00007FF8
00007FF8
00007FF8
00007FF8
00007FF8
00007FF8
00007FF8
00007FF8
00007FF8
00007FF8
00007FF8
00007FF8
00007FF8
00007FF8
00007FF8
00007FF8
00007FF8
00007FF8
00007FF8
00007FF8
00007FF8
00007FF8
00007FF8
00007FF8
00007FF8
00007FF8
00007FF8
00007FF8
00007FF8
00007FF8
00007FF8
00007FF8
00007FF8
00007FF8
00007FF8
00007FF8
00007FF8
00007FF8
00007FF8
00007FF8
00007FF8
00007FF8
00007FF8
00007FF8
00007FF8
00007FF8
00007FF8
00007FF8
00007FF8
00007FF8
ENDCHAR
STARTCHAR two
ENCODING 50
SWIDTH 825 0
DWIDTH 80 0
BBX 69 71 6 0
BITMAP
7FFFFFFFFFFFF80000
7FFFFFFFFFFFFF8000
7FFFFFFFFFFFFFE000
7FFFFFFFFFFFFFF800
7FFFFFFFFFFFFFFC00
7FFFFFFFFFFFFFFE00
7FFFFFFFFFFFFFFF00
7FFFFFFFFFFFFFFF80
7FFFFFFFFFFFFFFFC0
7FFFFFFFFFFFFFFFC0
7FFFFFFFFFFFFFFFE0
7FFFFFFFFFFFFFFFE0
0000000000007FFFF0
0000000000000FFFF0
00000000000003FFF0
00000000000001FFF8
00000000000001FFF8
00000000000000FFF8
00000000000000FFF8
00000000000000FFF8
00000000000000FFF8
00000000000000FFF8
00000000000000FFF8
00000000000000FFF8
00000000000000FFF8
00000000000001FFF0
00000000000001FFF0
00000000000003FFF0
00000000000007FFE0
0000000000001FFFE0
0000FFFFFFFFFFFFC0
000FFFFFFFFFFFFFC0
007FFFFFFFFFFFFF80
00FFFFFFFFFFFFFF00
03FFFFFFFFFFFFFE00
07FFFFFFFFFFFFFC00
0FFFFFFFFFFFFFF000
1FFFFFFFFFFFFFE000
1FFFFFFFFFFFFF0000
3FFFFFFFFFFFF80000
3FFFC0000000000000
7FFE00000000000000
7FFC00000000000000
7FF800000000000000
7FF800000000000000
FFF000000000000000
FFF000000000000000
FFF000000000000000
FFF000000000000000
FFF000000000000000
FFF000000000000000
FFF000000000000000
FFF000000000000000
FFF000000000000000
FFF000000000000000
FFF000000000000000
FFF000000000000000
FFF000000000000000
FFF000000000000000
FFFFFFFFFFFFFFFFF0
FFFFFFFFFFFFFFFFF0
FFFFFFFFFFFFFFFFF0
FFFFFFFFFFFFFFFFF0
FFFFFFFFFFFFFFFFF0
FFFFFFFFFFFFFFFFF0
FFFFFFFFFFFFFFFFF0
FFFFFFFFFFFFFFFFF0
FFFFFFFFFFFFFFFFF0
FFFFFFFFFFFFFFFFF0
FFFFFFFFFFFFFFFFF0
FFFFFFFFFFFFFFFFF0
ENDCHAR
STARTCHAR three
ENCODING 51
SWIDTH 827 0
DWIDTH 80 0
BBX 71 71 4 0
BITMAP
7FFFFFFFFFFFFC0000
7FFFFFFFFFFFFFC000
7FFFFFFFFFFFFFF000
7FFFFFFFFFFFFFFC00
7FFFFFFFFFFFFFFF00
7FFFFFFFFFFFFFFF80
7FFFFFFFFFFFFFFFC0
7FFFFFFFFFFFFFFFE0
7FFFFFFFFFFFFFFFE0
7FFFFFFFFFFFFFFFF0
7FFFFFFFFFFFFFFFF8
7FFFFFFFFFFFFFFFF8
000000000003FFFFF8
00000000000007FFFC
00000000000001FFFC
00000000000000FFFC
000000000000007FFC
000000000000007FFC
000000000000007FFC
000000000000003FFC
000000000000003FFC
000000000000003FFC
000000000000003FFC
000000000000003FFC
000000000000007FF8
000000000000007FF8
00000000000000FFF8
00000000000000FFF0
00000000000003FFE0
0000000000000FFFE0
00007FFFFFFFFFFFC0
00007FFFFFFFFFFF80
00007FFFFFFFFFFE00
00007FFFFFFFFFF800
00007FFFFFFFFFFC00
00007FFFFFFFFFFF00
00007FFFFFFFFFFFC0
00007FFFFFFFFFFFE0
00007FFFFFFFFFFFF0
00007FFFFFFFFFFFF0
0000000000000FFFF8
00000000000001FFFC
00000000000000FFFC
000000000000007FFE
000000000000003FFE
000000000000003FFE
000000000000001FFE
000000000000001FFE
000000000000001FFE
000000000000001FFE
000000000000001FFE
000000000000001FFE
000000000000003FFE
000000000000003FFE
000000000000007FFE
00000000000000FFFE
00000000000001FFFE
00000000000007FFFC
000000000000FFFFFC
FFFFFFFFFFFFFFFFF8
FFFFFFFFFFFFFFFFF8
FFFFFFFFFFFFFFFFF0
FFFFFFFFFFFFFFFFF0
FFFFFFFFFFFFFFFFE0
FFFFFFFFFFFFFFFFC0
FFFFFFFFFFFFFFFF80
FFFFFFFFFFFFFFFF00
FFFFFFFFFFFFFFFC00
FFFFFFFFFFFFFFF000
FFFFFFFFFFFFFFC000
FFFFFFFFFFFFFC0000
ENDCHAR
STARTCHAR four
ENCODING 52
SWIDTH 845 0
DWIDTH 82 0
BBX 75 71 5 0
BITMAP
FFF0000000000FFF0000
FFF0000000000FFF0000
FFF0000000000FFF0000
FFF0000000000FFF0000
FFF0000000000FFF0000
FFF0000000000FFF0000
FFF0000000000FFF0000
FFF0000000000FFF0000
FFF0000000000FFF0000
FFF0000000000FFF0000
FFF0000000000FFF0000
FFF0000000000FFF0000
FFF0000000000FFF0000
FFF0000000000FFF0000
FFF0000000000FFF0000
FFF0000000000FFF0000
FFF0000000000FFF0000
FFF0000000000FFF0000
FFF0000000000FFF0000
FFF0000000000FFF0000
FFF0000000000FFF0000
FFF0000000000FFF0000
FFF0000000000FFF0000
FFF0000000000FFF0000
FFF0000000000FFF0000
FFF0000000000FFF0000
FFF0000000000FFF0000
FFF0000000000FFF0000
FFF0000000000FFF0000
FFF0000000000FFF0000
FFF0000000000FFF0000
FFF0000000000FFF0000
FFF0000000000FFF0000
FFF0000000000FFF0000
FFF8000000000FFF0000
FFF8000000000FFF0000
FFFC000000000FFF0000
FFFE000000000FFF0000
7FFF000000000FFF0000
7FFFC00000000FFF0000
7FFFFFFFFFFFFFFFFFE0
3FFFFFFFFFFFFFFFFFE0
3FFFFFFFFFFFFFFFFFE0
1FFFFFFFFFFFFFFFFFE0
0FFFFFFFFFFFFFFFFFE0
0FFFFFFFFFFFFFFFFFE0
07FFFFFFFFFFFFFFFFE0
03FFFFFFFFFFFFFFFFE0
00FFFFFFFFFFFFFFFFE0
007FFFFFFFFFFFFFFFE0
001FFFFFFFFFFFFFFFE0
0001FFFFFFFFFFFFFFE0
0000000000000FFF0000
0000000000000FFF0000
0000000000000FFF0000
0000000000000FFF0000
0000000000000FFF0000
0000000000000FFF0000
0000000000000FFF0000
0000000000000FFF0000
0000000000000FFF0000
0000000000000FFF0000
0000000000000FFF0000
0000000000000FFF0000
0000000000000FFF0000
0000000000000FFF0000
0000000000000FFF0000
0000000000000FFF0000
0000000000000FFF0000
0000000000000FFF0000
0000000000000FFF0000
ENDCHAR
STARTCHAR five
ENCODING 53
SWIDTH 885 0
DWIDTH 86 0
BBX 75 71 6 0
BITMAP
FFFFFFFFFFFFFFFFFE00
FFFFFFFFFFFFFFFFFE00
FFFFFFFFFFFFFFFFFE00
FFFFFFFFFFFFFFFFFE00
FFFFFFFFFFFFFFFFFE00
FFFFFFFFFFFFFFFFFE00
FFFFFFFFFFFFFFFFFE00
FFFFFFFFFFFFFFFFFE00
FFFFFFFFFFFFFFFFFE00
FFFFFFFFFFFFFFFFFE00
FFFFFFFFFFFFFFFFFE00
FFFFFFFFFFFFFFFFFE00
FFF80000000000000000
FFF80000000000000000
FFF80000000000000000
FFF80000000000000000
FFF80000000000000000
FFF80000000000000000
FFF80000000000000000
FFF80000000000000000
FFF80000000000000000
FFF80000000000000000
FFF80000000000000000
FFF80000000000000000
FFF80000000000000000
FFF80000000000000000
FFF80000000000000000
FFF80000000000000000
FFF80000000000000000
FFF80000000000000000
FFFFFFFFFFFFFFE00000
FFFFFFFFFFFFFFFE0000
FFFFFFFFFFFFFFFF8000
FFFFFFFFFFFFFFFFE000
FFFFFFFFFFFFFFFFF800
FFFFFFFFFFFFFFFFFC00
FFFFFFFFFFFFFFFFFE00
FFFFFFFFFFFFFFFFFE00
FFFFFFFFFFFFFFFFFF00
FFFFFFFFFFFFFFFFFF80
000000000000007FFF80
000000000000001FFF80
0000000000000007FFC0
0000000000000003FFC0
0000000000000003FFC0
0000000000000001FFC0
0000000000000001FFE0
0000000000000001FFE0
0000000000000001FFE0
0000000000000001FFE0
0000000000000001FFE0
0000000000000001FFE0
0000000000000001FFE0
0000000000000003FFE0
0000000000000003FFC0
0000000000000007FFC0
000000000000000FFFC0
000000000000003FFFC0
00000000000001FFFF80
FFFFFFFFFFFFFFFFFF80
FFFFFFFFFFFFFFFFFF80
FFFFFFFFFFFFFFFFFF00
FFFFFFFFFFFFFFFFFE00
FFFFFFFFFFFFFFFFFE00
FFFFFFFFFFFFFFFFFC00
FFFFFFFFFFFFFFFFF800
FFFFFFFFFFFFFFFFF000
FFFFFFFFFFFFFFFFC000
FFFFFFFFFFFFFFFF8000
FFFFFFFFFFFFFFFC0000
FFFFFFFFFFFFFFE00000
ENDCHAR
STARTCHAR six
ENCODING 54
SWIDTH 872 0
DWIDTH 85 0
BBX 75 71 4 0
BITMAP
0000007FFFFFFFFFFF80
00000FFFFFFFFFFFFF80
00003FFFFFFFFFFFFF80
0001FFFFFFFFFFFFFF80
0007FFFFFFFFFFFFFF80
000FFFFFFFFFFFFFFF80
001FFFFFFFFFFFFFFF80
007FFFFFFFFFFFFFFF80
00FFFFFFFFFFFFFFFF80
00FFFFFFFFFFFFFFFF80
01FFFFFFFFFFFFFFFF80
03FFFFFFFFFFFFFFFF80
07FFFFFC000000000000
07FFFF00000000000000
0FFFFC00000000000000
0FFFF000000000000000
1FFFC000000000000000
1FFF8000000000000000
3FFF8000000000000000
3FFF0000000000000000
3FFE0000000000000000
3FFE0000000000000000
7FFC0000000000000000
7FFC0000000000000000
7FFC0000000000000000
7FF80000000000000000
7FF80000000000000000
FFF80000000000000000
FFF80000000000000000
FFFFFFFFFFFFFFF00000
FFFFFFFFFFFFFFFF0000
FFFFFFFFFFFFFFFFC000
FFFFFFFFFFFFFFFFF000
FFFFFFFFFFFFFFFFF800
FFFFFFFFFFFFFFFFFC00
FFFFFFFFFFFFFFFFFE00
FFFFFFFFFFFFFFFFFF00
FFFFFFFFFFFFFFFFFF80
FFFFFFFFFFFFFFFFFF80
FFFFFFFFFFFFFFFFFFC0
FFF800000000007FFFC0
FFF800000000000FFFC0
FFF8000000000007FFE0
7FF8000000000003FFE0
7FF8000000000001FFE0
7FFC000000000001FFE0
7FFC000000000001FFE0
7FFC000000000000FFE0
3FFE000000000000FFE0
3FFE000000000000FFE0
3FFF000000000001FFE0
3FFF000000000001FFE0
1FFF800000000001FFE0
1FFFC00000000001FFE0
0FFFE00000000003FFE0
0FFFF00000000007FFE0
07FFFC000000000FFFE0
07FFFF000000001FFFC0
03FFFFFC000001FFFFC0
01FFFFFFFFFFFFFFFFC0
01FFFFFFFFFFFFFFFF80
00FFFFFFFFFFFFFFFF80
007FFFFFFFFFFFFFFF00
003FFFFFFFFFFFFFFE00
001FFFFFFFFFFFFFFE00
0007FFFFFFFFFFFFFC00
0003FFFFFFFFFFFFF000
0000FFFFFFFFFFFFE000
00003FFFFFFFFFFF8000
000007FFFFFFFFFE0000
0000007FFFFFFFE00000
ENDCHAR
STARTCHAR seven
ENCODING 55
SWIDTH 756 0
DWIDTH 73 0
BBX 67 71 4 0
BITMAP
FFFFFFFFFFFFFFFE00
FFFFFFFFFFFFFFFF80
FFFFFFFFFFFFFFFFC0
FFFFFFFFFFFFFFFFE0
FFFFFFFFFFFFFFFFE0
FFFFFFFFFFFFFFFFE0
FFFFFFFFFFFFFFFFE0
FFFFFFFFFFFFFFFFE0
FFFFFFFFFFFFFFFFE0
FFFFFFFFFFFFFFFFC0
FFFFFFFFFFFFFFFFC0
FFFFFFFFFFFFFFFF80
0000000000007FFF00
000000000000FFFF00
000000000001FFFE00
000000000003FFFC00
000000000003FFF800
000000000007FFF000
00000000000FFFE000
00000000001FFFE000
00000000003FFFC000
00000000003FFF8000
00000000007FFF0000
0000000000FFFE0000
0000000001FFFE0000
0000000003FFFC0000
0000000007FFF80000
0000000007FFF00000
000000000FFFE00000
000000001FFFE00000
000000003FFFC00000
000000007FFF800000
00000000FFFF000000
00000000FFFE000000
00000001FFFC000000
00000003FFFC000000
00000007FFF8000000
0000000FFFF0000000
0000000FFFE0000000
0000001FFFC0000000
0000003FFFC0000000
0000007FFF80000000
000000FFFF00000000
000001FFFE00000000
000001FFFC00000000
000003FFFC00000000
000007FFF800000000
00000FFFF000000000
00001FFFE000000000
00001FFFC000000000
00003FFFC000000000
00007FFF8000000000
0000FFFF0000000000
0001FFFE0000000000
0003FFFC0000000000
0003FFF80000000000
0007FFF80000000000
000FFFF00000000000
001FFFE00000000000
003FFFC00000000000
007FFF800000000000
007FFF800000000000
00FFFF000000000000
01FFFE000000000000
03FFFC000000000000
07FFF8000000000000
07FFF8000000000000
0FFFF0000000000000
1FFFE0000000000000
3FFFC0000000000000
7FFF80000000000000
ENDCHAR
STARTCHAR eight
ENCODING 56
SWIDTH 898 0
DWIDTH 87 0
BBX 77 71 5 0
BITMAP
00003FFFFFFFFFE00000
0003FFFFFFFFFFFF0000
001FFFFFFFFFFFFFC000
007FFFFFFFFFFFFFF000
00FFFFFFFFFFFFFFF800
03FFFFFFFFFFFFFFFE00
07FFFFFFFFFFFFFFFF00
07FFFFFFFFFFFFFFFF00
0FFFFFFFFFFFFFFFFF80
1FFFFFFFFFFFFFFFFFC0
1FFFFFFFFFFFFFFFFFC0
3FFFFFFFFFFFFFFFFFE0
3FFFFF8000000FFFFFE0
3FFFE0000000003FFFE0
3FFF80000000000FFFF0
7FFF000000000003FFF0
7FFE000000000003FFF0
7FFC000000000001FFF0
7FFC000000000001FFF0
7FFC000000000001FFF0
7FFC000000000001FFF0
7FFC000000000001FFF0
3FFC000000000001FFF0
3FFC000000000001FFE0
3FFC000000000001FFE0
3FFC000000000001FFE0
1FFE000000000003FFC0
1FFF000000000007FFC0
0FFF80000000000FFF80
07FFE0000000003FFF00
03FFFFFFFFFFFFFFFF00
01FFFFFFFFFFFFFFFC00
00FFFFFFFFFFFFFFF800
001FFFFFFFFFFFFFE000
007FFFFFFFFFFFFFF000
01FFFFFFFFFFFFFFFC00
03FFFFFFFFFFFFFFFE00
07FFFFFFFFFFFFFFFF00
0FFFFFFFFFFFFFFFFF80
1FFFFFFFFFFFFFFFFFC0
3FFFE0000000003FFFE0
3FFF000000000007FFE0
7FFE000000000003FFF0
7FFC000000000001FFF0
7FF8000000000000FFF8
FFF8000000000000FFF8
FFF8000000000000FFF8
FFF00000000000007FF8
FFF00000000000007FF8
FFF00000000000007FF8
FFF00000000000007FF8
FFF8000000000000FFF8
FFF8000000000000FFF8
FFF8000000000000FFF8
FFFC000000000001FFF8
7FFE000000000003FFF0
7FFF000000000007FFF0
7FFFE0000000003FFFF0
3FFFFF00000003FFFFF0
3FFFFFFFFFFFFFFFFFE0
1FFFFFFFFFFFFFFFFFE0
1FFFFFFFFFFFFFFFFFC0
0FFFFFFFFFFFFFFFFF80
07FFFFFFFFFFFFFFFF80
07FFFFFFFFFFFFFFFF00
03FFFFFFFFFFFFFFFE00
00FFFFFFFFFFFFFFF800
007FFFFFFFFFFFFFF000
001FFFFFFFFFFFFFC000
0007FFFFFFFFFFFF0000
00007FFFFFFFFFF00000
ENDCHAR
STARTCHAR nine
ENCODING 57
SWIDTH 861 0
DWIDTH 84 0
BBX 75 71 4 0
BITMAP
0000FFFFFFFFC0000000
000FFFFFFFFFFE000000
003FFFFFFFFFFF800000
007FFFFFFFFFFFF00000
01FFFFFFFFFFFFF80000
03FFFFFFFFFFFFFE0000
07FFFFFFFFFFFFFF0000
07FFFFFFFFFFFFFF8000
0FFFFFFFFFFFFFFFC000
1FFFFFFFFFFFFFFFE000
1FFFFFFFFFFFFFFFF000
3FFFFFFFFFFFFFFFF800
3FFFF8000007FFFFFC00
7FFF800000001FFFFC00
7FFF0000000007FFFE00
7FFE0000000001FFFE00
7FFC0000000000FFFF00
FFFC00000000003FFF00
FFF800000000003FFF80
FFF800000000001FFF80
FFF800000000000FFF80
FFF800000000000FFFC0
FFF8000000000007FFC0
FFF8000000000007FFC0
FFF8000000000003FFC0
FFF8000000000003FFC0
FFF8000000000003FFE0
FFF8000000000003FFE0
7FFC000000000003FFE0
7FFC000000000001FFE0
7FFE000000000001FFE0
7FFF000000000001FFE0
3FFFE00000000001FFE0
3FFFFFFFFFFFFFFFFFE0
1FFFFFFFFFFFFFFFFFE0
1FFFFFFFFFFFFFFFFFE0
0FFFFFFFFFFFFFFFFFE0
07FFFFFFFFFFFFFFFFE0
03FFFFFFFFFFFFFFFFE0
01FFFFFFFFFFFFFFFFE0
007FFFFFFFFFFFFFFFE0
001FFFFFFFFFFFFFFFE0
0001FFFFFFFFFFFFFFE0
0000000000000003FFE0
0000000000000003FFE0
0000000000000003FFE0
0000000000000003FFE0
0000000000000007FFC0
0000000000000007FFC0
0000000000000007FFC0
000000000000000FFFC0
000000000000001FFF80
000000000000001FFF80
000000000000003FFF80
000000000000007FFF00
00000000000001FFFF00
00000000000003FFFE00
0000000000001FFFFE00
000000000007FFFFFC00
00FFFFFFFFFFFFFFF800
00FFFFFFFFFFFFFFF800
00FFFFFFFFFFFFFFF000
00FFFFFFFFFFFFFFE000
00FFFFFFFFFFFFFFC000
00FFFFFFFFFFFFFF8000
00FFFFFFFFFFFFFF0000
00FFFFFFFFFFFFFC0000
00FFFFFFFFFFFFF00000
00FFFFFFFFFFFFC00000
00FFFFFFFFFFFE000000
00FFFFFFFFFFC0000000
ENDCHAR
STARTCHAR colon
ENCODING 58
SWIDTH 262 0
DWIDTH 25 0
BBX 13 45 6 0
BITMAP
0F80
3FE0
7FF0
7FF8
FFF8
FFF8
FFF8
FFF8
FFF8
7FF8
7FF0
3FE0
0F80
0000
0000
0000
0000
0000
0000
0000
0000
0000
0000
0000
0000
0000
0000
0000
0000
0000
0000
0000
0F80
3FE0
7FF0
7FF8
FFF8
FFF8
FFF8
FFF8
FFF8
7FF8
7FF0
3FE0
0F80
ENDCHAR
STARTCHAR semicolon
ENCODING 59
SWIDTH 262 0
DWIDTH 25 0
BBX 13 56 6 -12
BITMAP
0F80
3FE0
7FF0
7FF8
FFF8
FFF8
FFF8
FFF8
FFF8
7FF8
7FF0
3FE0
0F80
0000
0000
0000
0000
0000
0000
0000
0000
0000
0000
0000
0000
0000
0000
0000
0000
0000
0000
7FF8
7FF8
7FF8
7FF0
7FF0
7FF0
7FF0
7FF0
7FE0
7FE0
7FE0
7FE0
7FE0
7FC0
7FC0
7FC0
7FC0
7FC0
7F80
7F80
7F80
7F80
7F80
7F00
7F00
ENDCHAR
STARTCHAR less
ENCODING 60
SWIDTH 690 0
DWIDTH 67 0
BBX 55 52 6 10
BITMAP
00000000000006
0000000000003E
000000000000FE
000000000003FE
00000000001FFE
00000000007FFE
0000000003FFFE
000000000FFFFE
000000003FFFFE
00000001FFFFF0
00000007FFFFC0
0000001FFFFE00
000000FFFFF800
000003FFFFC000
00001FFFFF0000
00007FFFF80000
0001FFFFC00000
000FFFFF000000
003FFFF8000000
00FFFFE0000000
07FFFF00000000
1FFFFC00000000
3FFFE000000000
7FFF8000000000
FFFC0000000000
FFF00000000000
FFF00000000000
FFFE0000000000
7FFF8000000000
3FFFF000000000
0FFFFC00000000
03FFFF80000000
00FFFFE0000000
001FFFFC000000
0007FFFF000000
0001FFFFE00000
00003FFFF80000
00000FFFFF0000
000003FFFFC000
0000007FFFF800
0000001FFFFE00
00000007FFFFC0
00000000FFFFF0
000000003FFFFE
0000000007FFFE
0000000001FFFE
00000000007FFE
00000000000FFE
000000000003FE
000000000000FE
0000000000001E
00000000000006
ENDCHAR
STARTCHAR equal
ENCODING 61
SWIDTH 690 0
DWIDTH 67 0
BBX 55 34 6 19
BITMAP
FFFFFFFFFFFFFE
FFFFFFFFFFFFFE
FFFFFFFFFFFFFE
FFFFFFFFFFFFFE
FFFFFFFFFFFFFE
FFFFFFFFFFFFFE
FFFFFFFFFFFFFE
FFFFFFFFFFFFFE
00000000000000
00000000000000
00000000000000
00000000000000
00000000000000
00000000000000
00000000000000
00000000000000
00000000000000
00000000000000
00000000000000
00000000000000
00000000000000
00000000000000
00000000000000
00000000000000
00000000000000
00000000000000
FFFFFFFFFFFFFE
FFFFFFFFFFFFFE
FFFFFFFFFFFFFE
FFFFFFFFFFFFFE
FFFFFFFFFFFFFE
FFFFFFFFFFFFFE
FFFFFFFFFFFFFE
FFFFFFFFFFFFFE
ENDCHAR
STARTCHAR greater
ENCODING 62
SWIDTH 690 0
DWIDTH 67 0
BBX 55 52 6 10
BITMAP
C0000000000000
F8000000000000
FE000000000000
FF800000000000
FFF00000000000
FFFC0000000000
FFFF0000000000
FFFFE000000000
FFFFF800000000
1FFFFF00000000
07FFFFC0000000
00FFFFF0000000
003FFFFE000000
0007FFFF800000
0001FFFFE00000
00003FFFFC0000
00000FFFFF0000
000001FFFFE000
0000003FFFF800
0000000FFFFE00
00000001FFFFC0
000000007FFFF0
000000000FFFF8
0000000003FFFC
00000000007FFE
00000000001FFE
00000000001FFE
0000000000FFFE
0000000003FFFC
000000001FFFF8
000000007FFFE0
00000003FFFF80
0000000FFFFE00
0000007FFFF000
000001FFFFC000
00000FFFFF0000
00003FFFF80000
0001FFFFE00000
0007FFFF800000
003FFFFC000000
01FFFFF0000000
07FFFF80000000
3FFFFE00000000
FFFFF800000000
FFFFC000000000
FFFF0000000000
FFFC0000000000
FFE00000000000
FF800000000000
FE000000000000
F0000000000000
C0000000000000
ENDCHAR
STARTCHAR question
ENCODING 63
SWIDTH 776 0
DWIDTH 75 0
BBX 68 71 4 0
BITMAP
FFFFFFFFFFFFF00000
FFFFFFFFFFFFFF0000
FFFFFFFFFFFFFFC000
FFFFFFFFFFFFFFF000
FFFFFFFFFFFFFFFC00
FFFFFFFFFFFFFFFE00
FFFFFFFFFFFFFFFF00
FFFFFFFFFFFFFFFF80
FFFFFFFFFFFFFFFF80
FFFFFFFFFFFFFFFFC0
FFFFFFFFFFFFFFFFC0
FFFFFFFFFFFFFFFFE0
000000000000FFFFE0
0000000000000FFFF0
00000000000007FFF0
00000000000003FFF0
00000000000001FFF0
00000000000001FFF0
00000000000001FFF0
00000000000000FFF0
00000000000000FFF0
00000000000000FFF0
00000000000000FFF0
00000000000001FFF0
00000000000001FFF0
00000000000003FFF0
00000000000003FFE0
0000000000000FFFE0
0000000000003FFFC0
00003FFFFFFFFFFFC0
0003FFFFFFFFFFFF80
0007FFFFFFFFFFFF00
001FFFFFFFFFFFFF00
003FFFFFFFFFFFFE00
007FFFFFFFFFFFFC00
007FFFFFFFFFFFF000
00FFFFFFFFFFFFC000
00FFFFFFFFFFFF0000
01FFFFFFFFFFF80000
01FFF8000000000000
01FFE0000000000000
01FFE0000000000000
01FFE0000000000000
01FFE0000000000000
01FFE0000000000000
01FFE0000000000000
01FFE0000000000000
000000000000000000
000000000000000000
000000000000000000
000000000000000000
000000000000000000
000000000000000000
000000000000000000
000000000000000000
000000000000000000
000000000000000000
000000000000000000
003F00000000000000
007F80000000000000
00FFC0000000000000
01FFE0000000000000
01FFE0000000000000
03FFE0000000000000
03FFE0000000000000
03FFE0000000000000
01FFE0000000000000
01FFE0000000000000
00FFC0000000000000
00FF80000000000000
003F00000000000000
ENDCHAR
STARTCHAR at
ENCODING 64
SWIDTH 833 0
DWIDTH 81 0
BBX 71 71 4 0
BITMAP
00000007FFFFFFFFFE
0000007FFFFFFFFFFE
000003FFFFFFFFFFFE
00000FFFFFFFFFFFFE
00003FFFFFFFFFFFFE
0000FFFFFFFFFFFFFE
0001FFFFFFFFFFFFFE
0007FFFFFFFFFFFFFE
000FFFFFFFFFFFFFFE
001FFFFC00000007FE
003FFFC000000007FE
007FFE0000000007FE
00FFF80000000007FE
00FFF00000000007FE
01FFE00000000007FE
03FF800000000007FE
07FF000000000007FE
07FE000000000007FE
0FFC000000000007FE
0FFC000000000007FE
1FF80003FFFFF807FE
1FF8000FFFFFF807FE
1FF0003FFFFFF807FE
3FF0007FFFFFF807FE
3FE000FFFFFFF807FE
3FE001FFFFFFF807FE
7FC001FFFFFFF807FE
7FC003FF8007F807FE
7FC003FE0007F807FE
7FC007FC0007F807FE
FFC007FC0007F807FE
FF8007F80007F807FE
FF800FF80007F807FE
FF800FF80007F807FE
FF800FF00007F807FE
FF800FF00007F807FE
FF800FF00007F807FE
FF800FF80007F807FE
FF800FF80007F807FE
FF800FF80007F807FE
FFC007FC0007F807FE
FFC007FE0007F807FE
7FC007FF0007F807FE
7FC003FF8007F807FE
7FE003FFFFFFFFFFFE
7FE001FFFFFFFFFFFE
7FE001FFFFFFFFFFFE
3FF000FFFFFFFFFFFE
3FF0007FFFFFFFFFFE
3FF8003FFFFFFFFFFE
1FF8000FFFFFFFFFFE
1FFC0003FFFFFFFFFE
0FFE00000000000000
0FFE00000000000000
07FF00000000000000
07FF80000000000000
03FFC0000000000000
01FFF0000000000000
01FFF8000000000000
00FFFE000000000000
007FFFC00000000000
003FFFFC0000000000
001FFFFFFFFFFFFFFE
000FFFFFFFFFFFFFFE
0003FFFFFFFFFFFFFE
0001FFFFFFFFFFFFFE
00007FFFFFFFFFFFFE
00001FFFFFFFFFFFFE
000007FFFFFFFFFFFE
000000FFFFFFFFFFFE
00000007FFFFFFFFFE
ENDCHAR
STARTCHAR A
ENCODING 65
SWIDTH 989 0
DWIDTH 96 0
BBX 93 72 1 0
BITMAP
00000000000F800000000000
00000000001FE00000000000
00000000003FF00000000000
00000000007FF80000000000
00000000007FF80000000000
0000000000FFFC0000000000
0000000001FFFC0000000000
0000000001FFFE0000000000
0000000003FFFF0000000000
0000000003FFFF0000000000
0000000007FFFF8000000000
000000000FFFFF8000000000
000000000FFFFFC000000000
000000001FFFFFE000000000
000000001FFFFFE000000000
000000003FFFFFF000000000
000000007FFFFFF000000000
000000007FFFFFF800000000
00000000FFFDFFFC00000000
00000000FFF9FFFC00000000
00000001FFF8FFFE00000000
00000003FFF07FFE00000000
00000003FFF07FFF00000000
00000007FFE03FFF00000000
00000007FFE03FFF80000000
0000000FFFC01FFFC0000000
0000001FFF800FFFC0000000
0000001FFF800FFFE0000000
0000003FFF0007FFE0000000
0000003FFF0007FFF0000000
0000007FFE0003FFF8000000
000000FFFC0001FFF8000000
000000FFFC0001FFFC000000
000001FFF80000FFFC000000
000001FFF80000FFFE000000
000003FFF000007FFF000000
000003FFE000003FFF000000
000007FFE000003FFF800000
00000FFFC000001FFF800000
00000FFFC000001FFFC00000
00001FFF8000000FFFE00000
00001FFF00000007FFE00000
00003FFF00000007FFF00000
00007FFE00000003FFF00000
00007FFE00FFFFFFFFF80000
0000FFFC00FFFFFFFFFC0000
0000FFFC01FFFFFFFFFC0000
0001FFF803FFFFFFFFFE0000
0003FFF003FFFFFFFFFE0000
0003FFF007FFFFFFFFFF0000
0007FFE007FFFFFFFFFF8000
0007FFE00FFFFFFFFFFF8000
000FFFC00FFFFFFFFFFFC000
001FFF801FFFFFFFFFFFC000
001FFF80000000000FFFE000
003FFF000000000007FFF000
003FFF000000000003FFF000
007FFE000000000003FFF800
00FFFC000000000001FFF800
00FFFC000000000001FFFC00
01FFF8000000000000FFFE00
01FFF8000000000000FFFE00
03FFF00000000000007FFF00
07FFE00000000000003FFF00
07FFE00000000000003FFF80
0FFFC00000000000001FFFC0
0FFFC00000000000001FFFC0
1FFF800000000000000FFFE0
3FFF8000000000000007FFE0
3FFF0000000000000007FFF0
7FFE0000000000000003FFF8
FFFE0000000000000003FFF8
ENDCHAR
STARTCHAR B
ENCODING 66
SWIDTH 891 0
DWIDTH 86 0
BBX 76 71 6 0
BITMAP
FFFFFFFFFFFFFFC00000
FFFFFFFFFFFFFFFC0000
FFFFFFFFFFFFFFFF8000
FFFFFFFFFFFFFFFFC000
FFFFFFFFFFFFFFFFF000
FFFFFFFFFFFFFFFFF800
FFFFFFFFFFFFFFFFFC00
FFFFFFFFFFFFFFFFFE00
FFFFFFFFFFFFFFFFFF00
FFFFFFFFFFFFFFFFFF00
FFFFFFFFFFFFFFFFFF80
FFFFFFFFFFFFFFFFFF80
FFF0000000007FFFFFC0
FFF000000000007FFFC0
FFF000000000001FFFC0
FFF000000000000FFFC0
FFF0000000000007FFC0
FFF0000000000007FFC0
FFF0000000000003FFE0
FFF0000000000003FFC0
FFF0000000000003FFC0
FFF0000000000003FFC0
FFF0000000000003FFC0
FFF0000000000003FFC0
FFF0000000000003FFC0
FFF0000000000007FF80
FFF0000000000007FF80
FFF000000000000FFF00
FFF000000000001FFF00
FFF00000000000FFFE00
FFF007FFFFFFFFFFFC00
FFF007FFFFFFFFFFF800
FFF007FFFFFFFFFFE000
FFF007FFFFFFFFFF8000
FFF007FFFFFFFFFFE000
FFF007FFFFFFFFFFF800
FFF007FFFFFFFFFFFC00
FFF007FFFFFFFFFFFE00
FFF007FFFFFFFFFFFF00
FFF007FFFFFFFFFFFF80
FFF000000000007FFF80
FFF000000000001FFFC0
FFF0000000000007FFC0
FFF0000000000003FFE0
FFF0000000000003FFE0
FFF0000000000001FFE0
FFF0000000000001FFF0
FFF0000000000001FFF0
FFF0000000000001FFF0
FFF0000000000001FFF0
FFF0000000000001FFF0
FFF0000000000001FFF0
FFF0000000000001FFF0
FFF0000000000003FFE0
FFF0000000000007FFE0
FFF000000000000FFFE0
FFF000000000001FFFE0
FFF000000000007FFFC0
FFF0000000007FFFFFC0
FFFFFFFFFFFFFFFFFFC0
FFFFFFFFFFFFFFFFFF80
FFFFFFFFFFFFFFFFFF80
FFFFFFFFFFFFFFFFFF00
FFFFFFFFFFFFFFFFFE00
FFFFFFFFFFFFFFFFFC00
FFFFFFFFFFFFFFFFF800
FFFFFFFFFFFFFFFFF000
FFFFFFFFFFFFFFFFE000
FFFFFFFFFFFFFFFF8000
FFFFFFFFFFFFFFFC0000
FFFFFFFFFFFFFFE00000
ENDCHAR
STARTCHAR C
ENCODING 67
SWIDTH 829 0
DWIDTH 80 0
BBX 73 71 4 0
BITMAP
0000000FFFFFFFFFFF80
000000FFFFFFFFFFFF80
000007FFFFFFFFFFFF80
00003FFFFFFFFFFFFF80
0000FFFFFFFFFFFFFF80
0001FFFFFFFFFFFFFF80
0007FFFFFFFFFFFFFF80
000FFFFFFFFFFFFFFF80
001FFFFFFFFFFFFFFF80
003FFFFFFFFFFFFFFF80
007FFFFFFFFFFFFFFF80
00FFFFFFFFFFFFFFFF80
01FFFFFF800000000000
03FFFFE0000000000000
03FFFF80000000000000
07FFFE00000000000000
07FFF800000000000000
0FFFF000000000000000
1FFFE000000000000000
1FFFC000000000000000
1FFF8000000000000000
3FFF0000000000000000
3FFF0000000000000000
3FFE0000000000000000
7FFE0000000000000000
7FFC0000000000000000
7FFC0000000000000000
7FFC0000000000000000
FFF80000000000000000
FFF80000000000000000
FFF80000000000000000
FFF80000000000000000
FFF80000000000000000
FFF00000000000000000
FFF00000000000000000
FFF00000000000000000
FFF00000000000000000
FFF00000000000000000
FFF80000000000000000
FFF80000000000000000
FFF80000000000000000
7FF80000000000000000
7FF80000000000000000
7FFC0000000000000000
7FFC0000000000000000
7FFC0000000000000000
3FFE0000000000000000
3FFE0000000000000000
3FFF0000000000000000
1FFF8000000000000000
1FFF8000000000000000
0FFFC000000000000000
0FFFE000000000000000
07FFF000000000000000
07FFF800000000000000
03FFFE00000000000000
03FFFF80000000000000
01FFFFE0000000000000
00FFFFFF800000000000
007FFFFFFFFFFFFFFF80
003FFFFFFFFFFFFFFF80
001FFFFFFFFFFFFFFF80
000FFFFFFFFFFFFFFF80
0007FFFFFFFFFFFFFF80
0003FFFFFFFFFFFFFF80
0000FFFFFFFFFFFFFF80
00007FFFFFFFFFFFFF80
00001FFFFFFFFFFFFF80
000007FFFFFFFFFFFF80
000000FFFFFFFFFFFF80
0000000FFFFFFFFFFF80
ENDCHAR
STARTCHAR D
ENCODING 68
SWIDTH 879 0
DWIDTH 85 0
BBX 75 71 6 0
BITMAP
FFFFFFFFFFFE00000000
FFFFFFFFFFFFF0000000
FFFFFFFFFFFFFE000000
FFFFFFFFFFFFFF800000
FFFFFFFFFFFFFFE00000
FFFFFFFFFFFFFFF00000
FFFFFFFFFFFFFFFC0000
FFFFFFFFFFFFFFFE0000
FFFFFFFFFFFFFFFF0000
FFFFFFFFFFFFFFFF8000
FFFFFFFFFFFFFFFFC000
FFFFFFFFFFFFFFFFE000
FFF00000003FFFFFF000
FFF000000000FFFFF800
FFF0000000001FFFFC00
FFF0000000000FFFFC00
FFF00000000003FFFE00
FFF00000000001FFFE00
FFF00000000000FFFF00
FFF000000000007FFF00
FFF000000000003FFF80
FFF000000000001FFF80
FFF000000000000FFF80
FFF000000000000FFFC0
FFF0000000000007FFC0
FFF0000000000007FFC0
FFF0000000000007FFC0
FFF0000000000003FFE0
FFF0000000000003FFE0
FFF0000000000003FFE0
FFF0000000000001FFE0
FFF0000000000001FFE0
FFF0000000000001FFE0
FFF0000000000001FFE0
FFF0000000000001FFE0
FFF0000000000001FFE0
FFF0000000000001FFE0
FFF0000000000001FFE0
FFF0000000000001FFE0
FFF0000000000001FFE0
FFF0000000000003FFE0
FFF0000000000003FFE0
FFF0000000000003FFE0
FFF0000000000003FFC0
FFF0000000000007FFC0
FFF0000000000007FFC0
FFF000000000000FFFC0
FFF000000000000FFF80
FFF000000000001FFF80
FFF000000000001FFF80
FFF000000000003FFF00
FFF000000000007FFF00
FFF00000000000FFFE00
FFF00000000001FFFE00
FFF00000000003FFFC00
FFF0000000000FFFFC00
FFF0000000003FFFF800
FFF000000000FFFFF000
FFF00000003FFFFFE000
FFFFFFFFFFFFFFFFE000
FFFFFFFFFFFFFFFFC000
FFFFFFFFFFFFFFFF8000
FFFFFFFFFFFFFFFF0000
FFFFFFFFFFFFFFFC0000
FFFFFFFFFFFFFFF80000
FFFFFFFFFFFFFFF00000
FFFFFFFFFFFFFFC00000
FFFFFFFFFFFFFF000000
FFFFFFFFFFFFFC000000
FFFFFFFFFFFFE0000000
FFFFFFFFFFFE00000000
ENDCHAR
STARTCHAR E
ENCODING 69
SWIDTH 759 0
DWIDTH 74 0
BBX 63 71 6 0
BITMAP
FFFFFFFFFFFFFFFE
FFFFFFFFFFFFFFFE
FFFFFFFFFFFFFFFE
FFFFFFFFFFFFFFFE
FFFFFFFFFFFFFFFE
FFFFFFFFFFFFFFFE
FFFFFFFFFFFFFFFE
FFFFFFFFFFFFFFFE
FFFFFFFFFFFFFFFE
FFFFFFFFFFFFFFFE
FFFFFFFFFFFFFFFE
FFFFFFFFFFFFFFFE
FFF0000000000000
FFF0000000000000
FFF0000000000000
FFF0000000000000
FFF0000000000000
FFF0000000000000
FFF0000000000000
FFF0000000000000
FFF0000000000000
FFF0000000000000
FFF0000000000000
FFF0000000000000
FFF0000000000000
FFF0000000000000
FFF0000000000000
FFF0000000000000
FFF0000000000000
FFF0000000000000
FFF007FFFFFFFFF0
FFF007FFFFFFFFF0
FFF007FFFFFFFFF0
FFF007FFFFFFFFF0
FFF007FFFFFFFFF0
FFF007FFFFFFFFF0
FFF007FFFFFFFFF0
FFF007FFFFFFFFF0
FFF007FFFFFFFFF0
FFF007FFFFFFFFF0
FFF0000000000000
FFF0000000000000
FFF0000000000000
FFF0000000000000
FFF0000000000000
FFF0000000000000
FFF0000000000000
FFF0000000000000
FFF0000000000000
FFF0000000000000
FFF0000000000000
FFF0000000000000
FFF0000000000000
FFF0000000000000
FFF0000000000000
FFF0000000000000
FFF0000000000000
FFF0000000000000
FFF0000000000000
FFFFFFFFFFFFFFFE
FFFFFFFFFFFFFFFE
FFFFFFFFFFFFFFFE
FFFFFFFFFFFFFFFE
FFFFFFFFFFFFFFFE
FFFFFFFFFFFFFFFE
FFFFFFFFFFFFFFFE
FFFFFFFFFFFFFFFE
FFFFFFFFFFFFFFFE
FFFFFFFFFFFFFFFE
FFFFFFFFFFFFFFFE
FFFFFFFFFFFFFFFE
ENDCHAR
STARTCHAR F
ENCODING 70
SWIDTH 705 0
DWIDTH 68 0
BBX 60 71 6 0
BITMAP
FFFFFFFFFFFFFFF0
FFFFFFFFFFFFFFF0
FFFFFFFFFFFFFFF0
FFFFFFFFFFFFFFF0
FFFFFFFFFFFFFFF0
FFFFFFFFFFFFFFF0
FFFFFFFFFFFFFFF0
FFFFFFFFFFFFFFF0
FFFFFFFFFFFFFFF0
FFFFFFFFFFFFFFF0
FFFFFFFFFFFFFFF0
FFFFFFFFFFFFFFF0
FFF0000000000000
FFF0000000000000
FFF0000000000000
FFF0000000000000
FFF0000000000000
FFF0000000000000
FFF0000000000000
FFF0000000000000
FFF0000000000000
FFF0000000000000
FFF0000000000000
FFF0000000000000
FFF0000000000000
FFF0000000000000
FFF0000000000000
FFF0000000000000
FFF0000000000000
FFF0000000000000
FFF0000000000000
FFF007FFFFFFFF80
FFF007FFFFFFFF80
FFF007FFFFFFFF80
FFF007FFFFFFFF80
FFF007FFFFFFFF80
FFF007FFFFFFFF80
FFF007FFFFFFFF80
FFF007FFFFFFFF80
FFF007FFFFFFFF80
FFF007FFFFFFFF80
FFF007FFFFFFFF80
FFF0000000000000
FFF0000000000000
FFF0000000000000
FFF0000000000000
FFF0000000000000
FFF0000000000000
FFF0000000000000
FFF0000000000000
FFF0000000000000
FFF0000000000000
FFF0000000000000
FFF0000000000000
FFF0000000000000
FFF0000000000000
FFF0000000000000
FFF0000000000000
FFF0000000000000
FFF0000000000000
FFF0000000000000
FFF0000000000000
FFF0000000000000
FFF0000000000000
FFF0000000000000
FFF0000000000000
FFF0000000000000
FFF0000000000000
FFF0000000000000
FFF0000000000000
FFF0000000000000
ENDCHAR
STARTCHAR G
ENCODING 71
SWIDTH 888 0
DWIDTH 86 0
BBX 77 71 4 0
BITMAP
0000000FFFFFFFFFFF80
000000FFFFFFFFFFFF80
000007FFFFFFFFFFFF80
00003FFFFFFFFFFFFF80
0000FFFFFFFFFFFFFF80
0001FFFFFFFFFFFFFF80
0007FFFFFFFFFFFFFF80
000FFFFFFFFFFFFFFF80
001FFFFFFFFFFFFFFF80
003FFFFFFFFFFFFFFF80
007FFFFFFFFFFFFFFF80
00FFFFFFFFFFFFFFFF80
01FFFFFF800000000000
03FFFFE0000000000000
03FFFF80000000000000
07FFFE00000000000000
07FFF800000000000000
0FFFF000000000000000
1FFFE000000000000000
1FFFC000000000000000
1FFF8000000000000000
3FFF0000000000000000
3FFF0000000000000000
3FFE0000000000000000
7FFE0000000000000000
7FFC0000000000000000
7FFC0000000000000000
7FFC0000000000000000
FFF80000000000000000
FFF80000000000000000
FFF800007FFFFFFFFFF8
FFF800007FFFFFFFFFF8
FFF800007FFFFFFFFFF8
FFF000007FFFFFFFFFF8
FFF000007FFFFFFFFFF8
FFF000007FFFFFFFFFF8
FFF000007FFFFFFFFFF8
FFF000007FFFFFFFFFF8
FFF800007FFFFFFFFFF8
FFF800007FFFFFFFFFF8
FFF8000000000000FFF8
7FF8000000000000FFF8
7FF8000000000000FFF8
7FFC000000000000FFF8
7FFC000000000000FFF8
7FFC000000000000FFF8
3FFE000000000000FFF8
3FFE000000000000FFF8
3FFF000000000000FFF8
1FFF800000000000FFF8
1FFF800000000000FFF8
0FFFC00000000000FFF8
0FFFE00000000000FFF8
07FFF00000000000FFF8
07FFF80000000000FFF8
03FFFE0000000000FFF8
03FFFF8000000000FFF8
01FFFFE000000000FFF8
00FFFFFF80000000FFF8
007FFFFFFFFFFFFFFFF8
003FFFFFFFFFFFFFFFF8
001FFFFFFFFFFFFFFFF8
000FFFFFFFFFFFFFFFF8
0007FFFFFFFFFFFFFFF8
0003FFFFFFFFFFFFFFF8
0000FFFFFFFFFFFFFFF8
00007FFFFFFFFFFFFFF8
00001FFFFFFFFFFFFFF8
000007FFFFFFFFFFFFF8
000000FFFFFFFFFFFFF8
0000000FFFFFFFFFFFF8
ENDCHAR
STARTCHAR H
ENCODING 72
SWIDTH 838 0
DWIDTH 81 0
BBX 69 71 6 0
BITMAP
FFF000000000007FF8
FFF000000000007FF8
FFF000000000007FF8
FFF000000000007FF8
FFF000000000007FF8
FFF000000000007FF8
FFF000000000007FF8
FFF000000000007FF8
FFF000000000007FF8
FFF000000000007FF8
FFF000000000007FF8
FFF000000000007FF8
FFF000000000007FF8
FFF000000000007FF8
FFF000000000007FF8
FFF000000000007FF8
FFF000000000007FF8
FFF000000000007FF8
FFF000000000007FF8
FFF000000000007FF8
FFF000000000007FF8
FFF000000000007FF8
FFF000000000007FF8
FFF000000000007FF8
FFF000000000007FF8
FFF000000000007FF8
FFF000000000007FF8
FFF000000000007FF8
FFF000000000007FF8
FFF007FFFFFFFFFFF8
FFF007FFFFFFFFFFF8
FFF007FFFFFFFFFFF8
FFF007FFFFFFFFFFF8
FFF007FFFFFFFFFFF8
FFF007FFFFFFFFFFF8
FFF007FFFFFFFFFFF8
FFF007FFFFFFFFFFF8
FFF007FFFFFFFFFFF8
FFF007FFFFFFFFFFF8
FFF007FFFFFFFFFFF8
FFF000000000007FF8
FFF000000000007FF8
FFF000000000007FF8
FFF000000000007FF8
FFF000000000007FF8
FFF000000000007FF8
FFF000000000007FF8
FFF000000000007FF8
FFF000000000007FF8
FFF000000000007FF8
FFF000000000007FF8
FFF000000000007FF8
FFF000000000007FF8
FFF000000000007FF8
FFF000000000007FF8
FFF000000000007FF8
FFF000000000007FF8
FFF000000000007FF8
FFF000000000007FF8
FFF000000000007FF8
FFF000000000007FF8
FFF000000000007FF8
FFF000000000007FF8
FFF000000000007FF8
FFF000000000007FF8
FFF000000000007FF8
FFF000000000007FF8
FFF000000000007FF8
FFF000000000007FF8
FFF000000000007FF8
FFF000000000007FF8
ENDCHAR
STARTCHAR I
ENCODING 73
SWIDTH 267 0
DWIDTH 26 0
BBX 12 71 7 0
BITMAP
FFF0
FFF0
FFF0
FFF0
FFF0
FFF0
FFF0
FFF0
FFF0
FFF0
FFF0
FFF0
FFF0
FFF0
FFF0
FFF0
FFF0
FFF0
FFF0
FFF0
FFF0
FFF0
FFF0
FFF0
FFF0
FFF0
FFF0
FFF0
FFF0
FFF0
FFF0
FFF0
FFF0
FFF0
FFF0
FFF0
FFF0
FFF0
FFF0
FFF0
FFF0
FFF0
FFF0
FFF0
FFF0
FFF0
FFF0
FFF0
FFF0
FFF0
FFF0
FFF0
FFF0
FFF0
FFF0
FFF0
FFF0
FFF0
FFF0
FFF0
FFF0
FFF0
FFF0
FFF0
FFF0
FFF0
FFF0
FFF0
FFF0
FFF0
FFF0
ENDCHAR
STARTCHAR J
ENCODING 74
SWIDTH 708 0
DWIDTH 69 0
BBX 62 71 2 0
BITMAP
0000000000007FFC
0000000000007FFC
0000000000007FFC
0000000000007FFC
0000000000007FFC
0000000000007FFC
0000000000007FFC
0000000000007FFC
0000000000007FFC
0000000000007FFC
0000000000007FFC
0000000000007FFC
0000000000007FFC
0000000000007FFC
0000000000007FFC
0000000000007FFC
0000000000007FFC
0000000000007FFC
0000000000007FFC
0000000000007FFC
0000000000007FFC
0000000000007FFC
0000000000007FFC
0000000000007FFC
0000000000007FFC
0000000000007FFC
0000000000007FFC
0000000000007FFC
0000000000007FFC
0000000000007FFC
0000000000007FFC
0000000000007FFC
0000000000007FFC
0000000000007FFC
0000000000007FFC
0000000000007FFC
0000000000007FFC
0000000000007FFC
0000000000007FFC
0000000000007FFC
0000000000007FFC
0000000000007FFC
0000000000007FF8
0000000000007FF8
0000000000007FF8
0000000000007FF8
000000000000FFF8
000000000000FFF8
000000000000FFF8
000000000001FFF0
000000000001FFF0
000000000003FFF0
000000000007FFF0
00000000000FFFE0
00000000001FFFE0
00000000003FFFC0
0000000001FFFFC0
000000000FFFFF80
0000000FFFFFFF80
FFFFFFFFFFFFFF00
FFFFFFFFFFFFFE00
FFFFFFFFFFFFFE00
FFFFFFFFFFFFFC00
FFFFFFFFFFFFF800
FFFFFFFFFFFFE000
FFFFFFFFFFFFC000
FFFFFFFFFFFF0000
FFFFFFFFFFFC0000
FFFFFFFFFFF00000
FFFFFFFFFF000000
FFFFFFFFE0000000
ENDCHAR
STARTCHAR K
ENCODING 75
SWIDTH 875 0
DWIDTH 85 0
BBX 77 71 6 0
BITMAP
FFF00000000000FFFFF0
FFF00000000001FFFFC0
FFF00000000007FFFF00
FFF0000000000FFFFE00
FFF0000000001FFFFC00
FFF0000000003FFFF000
FFF000000000FFFFE000
FFF000000001FFFFC000
FFF000000003FFFF0000
FFF00000000FFFFE0000
FFF00000001FFFFC0000
FFF00000003FFFF00000
FFF0000000FFFFE00000
FFF0000001FFFFC00000
FFF0000003FFFF000000
FFF0000007FFFE000000
FFF000001FFFFC000000
FFF000003FFFF0000000
FFF000007FFFE0000000
FFF00001FFFFC0000000
FFF00003FFFF00000000
FFF00007FFFE00000000
FFF0000FFFFC00000000
FFF0003FFFF000000000
FFF0007FFFE000000000
FFF000FFFFC000000000
FFF003FFFF0000000000
FFF007FFFE0000000000
FFF00FFFFC0000000000
FFF01FFFF00000000000
FFF03FFFE00000000000
FFF07FFFC00000000000
FFF0FFFF000000000000
FFF0FFFE000000000000
FFF0FFFC000000000000
FFF0FFFC000000000000
FFF0FFFF000000000000
FFF07FFF800000000000
FFF07FFFC00000000000
FFF03FFFF00000000000
FFF00FFFF80000000000
FFF007FFFC0000000000
FFF003FFFF0000000000
FFF001FFFF8000000000
FFF0007FFFC000000000
FFF0003FFFF000000000
FFF0001FFFF800000000
FFF0000FFFFC00000000
FFF00003FFFF00000000
FFF00001FFFF80000000
FFF00000FFFFC0000000
FFF000003FFFE0000000
FFF000001FFFF8000000
FFF000000FFFFC000000
FFF0000007FFFE000000
FFF0000001FFFF800000
FFF0000000FFFFC00000
FFF00000007FFFE00000
FFF00000003FFFF80000
FFF00000000FFFFC0000
FFF000000007FFFE0000
FFF000000003FFFF8000
FFF000000001FFFFC000
FFF0000000007FFFE000
FFF0000000003FFFF800
FFF0000000001FFFFC00
FFF00000000007FFFE00
FFF00000000003FFFF00
FFF00000000001FFFFC0
FFF00000000000FFFFE0
FFF000000000003FFFF8
ENDCHAR
STARTCHAR L
ENCODING 76
SWIDTH 707 0
DWIDTH 69 0
BBX 60 71 6 0
BITMAP
FFF0000000000000
FFF0000000000000
FFF0000000000000
FFF0000000000000
FFF0000000000000
FFF0000000000000
FFF0000000000000
FFF0000000000000
FFF0000000000000
FFF0000000000000
FFF0000000000000
FFF0000000000000
FFF0000000000000
FFF0000000000000
FFF0000000000000
FFF0000000000000
FFF0000000000000
FFF0000000000000
FFF0000000000000
FFF0000000000000
FFF0000000000000
FFF0000000000000
FFF0000000000000
FFF0000000000000
FFF0000000000000
FFF0000000000000
FFF0000000000000
FFF0000000000000
FFF0000000000000
FFF0000000000000
FFF0000000000000
FFF0000000000000
FFF0000000000000
FFF0000000000000
FFF0000000000000
FFF0000000000000
FFF0000000000000
FFF0000000000000
FFF0000000000000
FFF0000000000000
FFF0000000000000
FFF0000000000000
FFF0000000000000
FFF0000000000000
FFF0000000000000
FFF0000000000000
FFF0000000000000
FFF0000000000000
FFF0000000000000
FFF0000000000000
FFF0000000000000
FFF0000000000000
FFF0000000000000
FFF0000000000000
FFF0000000000000
FFF0000000000000
FFF0000000000000
FFF0000000000000
FFF0000000000000
FFFFFFFFFFFFFFF0
FFFFFFFFFFFFFFF0
FFFFFFFFFFFFFFF0
FFFFFFFFFFFFFFF0
FFFFFFFFFFFFFFF0
FFFFFFFFFFFFFFF0
FFFFFFFFFFFFFFF0
FFFFFFFFFFFFFFF0
FFFFFFFFFFFFFFF0
FFFFFFFFFFFFFFF0
FFFFFFFFFFFFFFF0
FFFFFFFFFFFFFFF0
ENDCHAR
STARTCHAR M
ENCODING 77
SWIDTH 1115 0
DWIDTH 108 0
BBX 104 72 2 -1
BITMAP
000003E0000000000003E00000
00000FF800000000000FF00000
00000FFC00000000001FF80000
00001FFC00000000001FFC0000
00001FFE00000000003FFC0000
00003FFE00000000003FFC0000
00003FFF00000000007FFC0000
00003FFF00000000007FFE0000
00007FFF8000000000FFFE0000
00007FFF8000000000FFFE0000
00007FFFC000000001FFFF0000
00007FFFC000000001FFFF0000
0000FFFFC000000001FFFF0000
0000FFFFE000000003FFFF0000
0000FFFFE000000003FFFF8000
0000FFFFF000000007FFFF8000
0001FFFFF000000007FFFF8000
0001FFFFF80000000FFFFF8000
0001FFFFF80000000FFFFFC000
0003FFFFFC0000000FFFFFC000
0003FFFFFC0000001FFFFFC000
0003FFFFFC0000001FFFFFE000
0003FFFFFE0000003FFDFFE000
0007FFDFFE0000003FFDFFE000
0007FF9FFF0000007FF9FFE000
0007FF8FFF0000007FF9FFF000
0007FF8FFF800000FFF0FFF000
000FFF0FFF800000FFF0FFF000
000FFF07FF800000FFF0FFF800
000FFF07FFC00001FFE0FFF800
001FFF03FFC00001FFE07FF800
001FFE03FFE00003FFC07FF800
001FFE01FFE00003FFC07FFC00
001FFE01FFF00007FF803FFC00
003FFC01FFF00007FF803FFC00
003FFC00FFF80007FF003FFC00
003FFC00FFF8000FFF003FFE00
003FFC007FF8000FFF001FFE00
007FF8007FFC001FFE001FFE00
007FF8003FFC001FFE001FFF00
007FF8003FFE003FFC000FFF00
00FFF8001FFE003FFC000FFF00
00FFF0001FFF007FF8000FFF00
00FFF0001FFF007FF8000FFF80
00FFF0000FFF007FF80007FF80
01FFE0000FFF80FFF00007FF80
01FFE00007FF80FFF00007FF80
01FFE00007FFC1FFE00007FFC0
01FFE00003FFC1FFE00003FFC0
03FFC00003FFE3FFC00003FFC0
03FFC00003FFE3FFC00003FFE0
03FFC00001FFF3FF800001FFE0
07FFC00001FFF7FF800001FFE0
07FF800000FFF7FF800001FFE0
07FF800000FFFFFF000001FFF0
07FF8000007FFFFF000000FFF0
0FFF0000007FFFFE000000FFF0
0FFF0000007FFFFE000000FFF0
0FFF0000003FFFFC000000FFF8
1FFF0000003FFFFC0000007FF8
1FFE0000001FFFF80000007FF8
1FFE0000001FFFF80000007FFC
1FFE0000000FFFF80000003FFC
3FFE0000000FFFF00000003FFC
3FFC00000007FFF00000003FFC
3FFC00000007FFE00000003FFE
3FFC00000007FFE00000001FFE
7FF800000003FFC00000001FFE
7FF800000003FFC00000001FFE
7FF800000001FF800000001FFF
FFF800000000FF000000000FFF
0000000000007E000000000000
ENDCHAR
STARTCHAR N
ENCODING 78
SWIDTH 873 0
DWIDTH 85 0
BBX 73 71 6 0
BITMAP
0F80000000000007FF80
3FC0000000000007FF80
7FE0000000000007FF80
7FF0000000000007FF80
FFF8000000000007FF80
FFFC000000000007FF80
FFFE000000000007FF80
FFFF000000000007FF80
FFFF800000000007FF80
FFFFC00000000007FF80
FFFFE00000000007FF80
FFFFF00000000007FF80
FFFFF80000000007FF80
FFFFFC0000000007FF80
FFFFFF0000000007FF80
FFFFFF8000000007FF80
FFFFFFC000000007FF80
FFFFFFE000000007FF80
FFFFFFF000000007FF80
FFFFFFF800000007FF80
FFFFFFFC00000007FF80
FFF7FFFE00000007FF80
FFF3FFFF00000007FF80
FFF1FFFF80000007FF80
FFF0FFFFC0000007FF80
FFF07FFFE0000007FF80
FFF03FFFF0000007FF80
FFF01FFFF8000007FF80
FFF00FFFFC000007FF80
FFF007FFFE000007FF80
FFF003FFFF000007FF80
FFF001FFFF800007FF80
FFF000FFFFC00007FF80
FFF0007FFFE00007FF80
FFF0003FFFF00007FF80
FFF0001FFFF80007FF80
FFF00007FFFC0007FF80
FFF00003FFFE0007FF80
FFF00001FFFF0007FF80
FFF00000FFFF8007FF80
FFF000007FFFC007FF80
FFF000003FFFE007FF80
FFF000001FFFF007FF80
FFF000000FFFF807FF80
FFF0000007FFFC07FF80
FFF0000003FFFE07FF80
FFF0000001FFFF07FF80
FFF0000000FFFF87FF80
FFF00000007FFFC7FF80
FFF00000003FFFE7FF80
FFF00000001FFFF7FF80
FFF00000000FFFFFFF80
FFF000000007FFFFFF80
FFF000000003FFFFFF80
FFF000000001FFFFFF80
FFF000000000FFFFFF80
FFF0000000007FFFFF80
FFF0000000003FFFFF80
FFF0000000001FFFFF80
FFF0000000000FFFFF80
FFF00000000007FFFF80
FFF00000000003FFFF80
FFF00000000001FFFF80
FFF00000000000FFFF80
FFF000000000007FFF80
FFF000000000003FFF80
FFF000000000001FFF80
FFF000000000000FFF00
FFF0000000000007FF00
FFF0000000000003FE00
FFF0000000000000F800
ENDCHAR
STARTCHAR O
ENCODING 79
SWIDTH 968 0
DWIDTH 94 0
BBX 86 71 4 0
BITMAP
0000000FFFFFFFC0000000
000000FFFFFFFFFE000000
000007FFFFFFFFFF800000
00003FFFFFFFFFFFF00000
0000FFFFFFFFFFFFFC0000
0001FFFFFFFFFFFFFE0000
0007FFFFFFFFFFFFFF8000
000FFFFFFFFFFFFFFFC000
001FFFFFFFFFFFFFFFE000
003FFFFFFFFFFFFFFFF000
007FFFFFFFFFFFFFFFF800
00FFFFFFFFFFFFFFFFFC00
01FFFFFF800007FFFFFE00
03FFFFE00000001FFFFF00
03FFFF8000000007FFFF00
07FFFE0000000001FFFF80
07FFF800000000007FFFC0
0FFFF000000000003FFFC0
1FFFE000000000001FFFE0
1FFFC000000000000FFFE0
1FFF80000000000007FFE0
3FFF00000000000003FFF0
3FFF00000000000003FFF0
3FFE00000000000001FFF0
7FFE00000000000001FFF8
7FFC00000000000000FFF8
7FFC00000000000000FFF8
7FFC000000000000007FF8
FFF8000000000000007FFC
FFF8000000000000007FFC
FFF8000000000000007FFC
FFF8000000000000007FFC
FFF8000000000000003FFC
FFF0000000000000003FFC
FFF0000000000000003FFC
FFF0000000000000003FFC
FFF0000000000000003FFC
FFF0000000000000003FFC
FFF8000000000000007FFC
FFF8000000000000007FFC
FFF8000000000000007FFC
7FF8000000000000007FF8
7FF8000000000000007FF8
7FFC00000000000000FFF8
7FFC00000000000000FFF8
7FFC00000000000000FFF8
3FFE00000000000001FFF0
3FFE00000000000001FFF0
3FFF00000000000003FFF0
1FFF80000000000007FFE0
1FFF80000000000007FFE0
0FFFC000000000000FFFC0
0FFFE000000000001FFFC0
07FFF000000000003FFF80
07FFF800000000007FFF80
03FFFE0000000001FFFF00
03FFFF8000000007FFFF00
01FFFFE00000001FFFFE00
00FFFFFF800007FFFFFC00
007FFFFFFFFFFFFFFFF800
003FFFFFFFFFFFFFFFF000
001FFFFFFFFFFFFFFFE000
000FFFFFFFFFFFFFFFC000
0007FFFFFFFFFFFFFF8000
0003FFFFFFFFFFFFFF0000
0000FFFFFFFFFFFFFC0000
00007FFFFFFFFFFFF80000
00001FFFFFFFFFFFE00000
000007FFFFFFFFFF800000
000000FFFFFFFFFC000000
0000000FFFFFFFC0000000
ENDCHAR
STARTCHAR P
ENCODING 80
SWIDTH 867 0
DWIDTH 84 0
BBX 75 71 6 0
BITMAP
FFFFFFFFFFFFFF000000
FFFFFFFFFFFFFFF00000
FFFFFFFFFFFFFFFC0000
FFFFFFFFFFFFFFFF0000
FFFFFFFFFFFFFFFFC000
FFFFFFFFFFFFFFFFE000
FFFFFFFFFFFFFFFFF000
FFFFFFFFFFFFFFFFF800
FFFFFFFFFFFFFFFFFC00
FFFFFFFFFFFFFFFFFE00
FFFFFFFFFFFFFFFFFF00
FFFFFFFFFFFFFFFFFF00
FFF0000000001FFFFF80
FFF00000000000FFFF80
FFF000000000003FFFC0
FFF000000000001FFFC0
FFF000000000000FFFC0
FFF0000000000007FFE0
FFF0000000000003FFE0
FFF0000000000003FFE0
FFF0000000000001FFE0
FFF0000000000001FFE0
FFF0000000000001FFE0
FFF0000000000001FFE0
FFF0000000000001FFE0
FFF0000000000001FFE0
FFF0000000000001FFE0
FFF0000000000001FFE0
FFF0000000000001FFE0
FFF0000000000001FFE0
FFF0000000000001FFE0
FFF0000000000003FFE0
FFF0000000000003FFE0
FFF0000000000007FFE0
FFF0000000000007FFC0
FFF000000000000FFFC0
FFF000000000003FFFC0
FFF000000000007FFF80
FFF00000000003FFFF80
FFF007FFFFFFFFFFFF00
FFF007FFFFFFFFFFFF00
FFF007FFFFFFFFFFFE00
FFF007FFFFFFFFFFFC00
FFF007FFFFFFFFFFF800
FFF007FFFFFFFFFFF000
FFF007FFFFFFFFFFE000
FFF007FFFFFFFFFFC000
FFF007FFFFFFFFFF0000
FFF007FFFFFFFFFE0000
FFF007FFFFFFFFF80000
FFF007FFFFFFFFC00000
FFF00000000000000000
FFF00000000000000000
FFF00000000000000000
FFF00000000000000000
FFF00000000000000000
FFF00000000000000000
FFF00000000000000000
FFF00000000000000000
FFF00000000000000000
FFF00000000000000000
FFF00000000000000000
FFF00000000000000000
FFF00000000000000000
FFF00000000000000000
FFF00000000000000000
FFF00000000000000000
FFF00000000000000000
FFF00000000000000000
FFF00000000000000000
FFF00000000000000000
ENDCHAR
STARTCHAR Q
ENCODING 81
SWIDTH 968 0
DWIDTH 94 0
BBX 90 71 4 0
BITMAP
0000000FFFFFFFC000000000
000000FFFFFFFFFE00000000
000007FFFFFFFFFF80000000
00003FFFFFFFFFFFF0000000
0000FFFFFFFFFFFFFC000000
0001FFFFFFFFFFFFFE000000
0007FFFFFFFFFFFFFF800000
000FFFFFFFFFFFFFFFC00000
001FFFFFFFFFFFFFFFE00000
003FFFFFFFFFFFFFFFF00000
007FFFFFFFFFFFFFFFF80000
00FFFFFFFFFFFFFFFFFC0000
01FFFFFF800007FFFFFE0000
03FFFFE00000001FFFFF0000
03FFFF8000000007FFFF0000
07FFFE0000000001FFFF8000
07FFF800000000007FFFC000
0FFFF000000000003FFFC000
1FFFE000000000001FFFE000
1FFFC000000000000FFFE000
1FFF80000000000007FFE000
3FFF00000000000003FFF000
3FFF00000000000003FFF000
3FFE00000000000001FFF000
7FFE00000000000001FFF800
7FFC00000000000000FFF800
7FFC00000000000000FFF800
7FFC000000000000007FF800
FFF8000000000000007FFC00
FFF8000000000000007FFC00
FFF8000000000000007FFC00
FFF8000000000000007FFC00
FFF8000000000000003FFC00
FFF0000000000000003FFC00
FFF0000000000000003FFC00
FFF0000000000000003FFC00
FFF0000000000000003FFC00
FFF0000000000000003FFC00
FFF8000000000000007FFC00
FFF8000000000000007FFC00
FFF8000000000000007FFC00
7FF8000004000000007FF800
7FF8000003FFFC00007FF800
7FFC000001FFFF0000FFF800
7FFC0000007FFF8000FFF800
7FFC0000003FFFC000FFF800
3FFE0000001FFFE001FFF000
3FFE00000007FFF001FFF000
3FFF00000003FFFC03FFF000
1FFF80000001FFFE07FFE000
1FFF80000000FFFF07FFE000
0FFFC00000003FFF8FFFC000
0FFFE00000001FFFDFFFC000
07FFF00000000FFFFFFF8000
07FFF800000007FFFFFF8000
03FFFE00000001FFFFFF0000
03FFFF80000000FFFFFF0000
01FFFFE00000007FFFFE0000
00FFFFFF800007FFFFFC0000
007FFFFFFFFFFFFFFFF80000
003FFFFFFFFFFFFFFFF00000
001FFFFFFFFFFFFFFFF80000
000FFFFFFFFFFFFFFFFE0000
0007FFFFFFFFFFFFFFFF0000
0003FFFFFFFFFFFFFFFF8000
0000FFFFFFFFFFFFFFFFC000
00007FFFFFFFFFFFFFFFF000
00001FFFFFFFFFFFE7FFF800
000007FFFFFFFFFF83FFFC00
000000FFFFFFFFFC01FFFF00
0000000FFFFFFF80007FFFC0
ENDCHAR
STARTCHAR R
ENCODING 82
SWIDTH 921 0
DWIDTH 89 0
BBX 83 71 6 0
BITMAP
FFFFFFFFFFFFFF80000000
FFFFFFFFFFFFFFF8000000
FFFFFFFFFFFFFFFE000000
FFFFFFFFFFFFFFFF800000
FFFFFFFFFFFFFFFFE00000
FFFFFFFFFFFFFFFFF00000
FFFFFFFFFFFFFFFFF80000
FFFFFFFFFFFFFFFFFC0000
FFFFFFFFFFFFFFFFFE0000
FFFFFFFFFFFFFFFFFF0000
FFFFFFFFFFFFFFFFFF0000
FFFFFFFFFFFFFFFFFF8000
FFF0000000000FFFFFC000
FFF000000000007FFFC000
FFF000000000001FFFC000
FFF000000000000FFFE000
FFF0000000000007FFE000
FFF0000000000003FFE000
FFF0000000000001FFF000
FFF0000000000001FFF000
FFF0000000000000FFF000
FFF0000000000000FFF000
FFF0000000000000FFF000
FFF0000000000000FFF000
FFF0000000000000FFF000
FFF0000000000000FFF000
FFF0000000000000FFF000
FFF0000000000000FFF000
FFF0000000000000FFF000
FFF0000000000000FFF000
FFF0000000000000FFF000
FFF0000000000001FFF000
FFF0000000000001FFF000
FFF0000000000001FFE000
FFF0000000000003FFE000
FFF0000000000003FFE000
FFF0000000000007FFE000
FFF000000000000FFFC000
FFF000000000003FFFC000
FFF00000000001FFFF8000
FFF007FFFFFFFFFFFF8000
FFF007FFFFFFFFFFFF0000
FFF007FFFFFFFFFFFE0000
FFF007FFFFFFFFFFFC0000
FFF007FFFFFFFFFFF80000
FFF007FFFFFFFFFFF00000
FFF007FFFFFFFFFFE00000
FFF007FFFFFFFFFF800000
FFF007FFFFFFFFFE000000
FFF007FFFFFFFFFC000000
FFF007FFFFFFFFFE000000
FFF000000000FFFF000000
FFF0000000007FFF800000
FFF0000000003FFFC00000
FFF0000000001FFFE00000
FFF0000000000FFFF00000
FFF00000000007FFF80000
FFF00000000003FFFC0000
FFF00000000003FFFE0000
FFF00000000001FFFF0000
FFF00000000000FFFF8000
FFF000000000007FFFC000
FFF000000000003FFFE000
FFF000000000001FFFF000
FFF000000000000FFFF800
FFF0000000000007FFFC00
FFF0000000000003FFFE00
FFF0000000000003FFFF00
FFF0000000000001FFFF80
FFF0000000000000FFFFC0
FFF00000000000007FFFE0
ENDCHAR
STARTCHAR S
ENCODING 83
SWIDTH 880 0
DWIDTH 85 0
BBX 76 71 5 0
BITMAP
0000FFFFFFFFFFFFFF00
000FFFFFFFFFFFFFFF00
003FFFFFFFFFFFFFFF00
00FFFFFFFFFFFFFFFF00
01FFFFFFFFFFFFFFFF00
03FFFFFFFFFFFFFFFF00
07FFFFFFFFFFFFFFFF00
0FFFFFFFFFFFFFFFFF00
1FFFFFFFFFFFFFFFFF00
1FFFFFFFFFFFFFFFFF00
3FFFFFFFFFFFFFFFFF00
3FFFFFFFFFFFFFFFFF00
7FFFF000000000000000
7FFF8000000000000000
7FFE0000000000000000
FFFC0000000000000000
FFFC0000000000000000
FFF80000000000000000
FFF80000000000000000
FFF80000000000000000
FFF80000000000000000
FFF80000000000000000
FFF80000000000000000
FFF80000000000000000
FFF80000000000000000
7FFC0000000000000000
7FFC0000000000000000
7FFE0000000000000000
3FFF0000000000000000
3FFFC000000000000000
1FFFFFFFFFFFFFF00000
1FFFFFFFFFFFFFFF0000
0FFFFFFFFFFFFFFFE000
07FFFFFFFFFFFFFFF000
03FFFFFFFFFFFFFFFC00
01FFFFFFFFFFFFFFFE00
007FFFFFFFFFFFFFFF00
003FFFFFFFFFFFFFFF00
0007FFFFFFFFFFFFFF80
0000FFFFFFFFFFFFFFC0
000000000000003FFFC0
000000000000000FFFE0
0000000000000003FFE0
0000000000000001FFE0
0000000000000001FFE0
0000000000000000FFF0
0000000000000000FFF0
0000000000000000FFF0
0000000000000000FFF0
0000000000000000FFF0
0000000000000000FFF0
0000000000000000FFF0
0000000000000000FFF0
0000000000000001FFF0
0000000000000001FFF0
0000000000000003FFE0
0000000000000007FFE0
000000000000001FFFE0
00000000000000FFFFE0
7FFFFFFFFFFFFFFFFFC0
7FFFFFFFFFFFFFFFFFC0
7FFFFFFFFFFFFFFFFF80
7FFFFFFFFFFFFFFFFF80
7FFFFFFFFFFFFFFFFF00
7FFFFFFFFFFFFFFFFE00
7FFFFFFFFFFFFFFFFC00
7FFFFFFFFFFFFFFFF800
7FFFFFFFFFFFFFFFF000
7FFFFFFFFFFFFFFFC000
7FFFFFFFFFFFFFFF0000
7FFFFFFFFFFFFFF00000
ENDCHAR
STARTCHAR T
ENCODING 84
SWIDTH 720 0
DWIDTH 70 0
BBX 66 71 2 0
BITMAP
FFFFFFFFFFFFFFFFC0
FFFFFFFFFFFFFFFFC0
FFFFFFFFFFFFFFFFC0
FFFFFFFFFFFFFFFFC0
FFFFFFFFFFFFFFFFC0
FFFFFFFFFFFFFFFFC0
FFFFFFFFFFFFFFFFC0
FFFFFFFFFFFFFFFFC0
FFFFFFFFFFFFFFFFC0
FFFFFFFFFFFFFFFFC0
FFFFFFFFFFFFFFFFC0
FFFFFFFFFFFFFFFFC0
0000001FFE00000000
0000001FFE00000000
0000001FFE00000000
0000001FFE00000000
0000001FFE00000000
0000001FFE00000000
0000001FFE00000000
0000001FFE00000000
0000001FFE00000000
0000001FFE00000000
0000001FFE00000000
0000001FFE00000000
0000001FFE00000000
0000001FFE00000000
0000001FFE00000000
0000001FFE00000000
0000001FFE00000000
0000001FFE00000000
0000001FFE00000000
0000001FFE00000000
0000001FFE00000000
0000001FFE00000000
0000001FFE00000000
0000001FFE00000000
0000001FFE00000000
0000001FFE00000000
0000001FFE00000000
0000001FFE00000000
0000001FFE00000000
0000001FFE00000000
0000001FFE00000000
0000001FFE00000000
0000001FFE00000000
0000001FFE00000000
0000001FFE00000000
0000001FFE00000000
0000001FFE00000000
0000001FFE00000000
0000001FFE00000000
0000001FFE00000000
0000001FFE00000000
0000001FFE00000000
0000001FFE00000000
0000001FFE00000000
0000001FFE00000000
0000001FFE00000000
0000001FFE00000000
0000001FFE00000000
0000001FFE00000000
0000001FFE00000000
0000001FFE00000000
0000001FFE00000000
0000001FFE00000000
0000001FFE00000000
0000001FFE00000000
0000001FFE00000000
0000001FFE00000000
0000001FFE00000000
0000001FFE00000000
ENDCHAR
STARTCHAR U
ENCODING 85
SWIDTH 889 0
DWIDTH 86 0
BBX 76 72 5 -1
BITMAP
FFF8000000000000FFF0
FFF8000000000000FFF0
FFF8000000000000FFF0
FFF8000000000000FFF0
FFF8000000000000FFF0
FFF8000000000000FFF0
FFF8000000000000FFF0
FFF8000000000000FFF0
FFF8000000000000FFF0
FFF8000000000000FFF0
FFF8000000000000FFF0
FFF8000000000000FFF0
FFF8000000000000FFF0
FFF8000000000000FFF0
FFF8000000000000FFF0
FFF8000000000000FFF0
FFF8000000000000FFF0
FFF8000000000000FFF0
FFF8000000000000FFF0
FFF8000000000000FFF0
FFF8000000000000FFF0
FFF8000000000000FFF0
FFF8000000000000FFF0
FFF8000000000000FFF0
FFF8000000000000FFF0
FFF8000000000000FFF0
FFF8000000000000FFF0
FFF8000000000000FFF0
FFF8000000000000FFF0
FFF8000000000000FFF0
FFF8000000000000FFF0
FFF8000000000000FFF0
FFF8000000000000FFF0
FFF8000000000000FFF0
FFF8000000000000FFF0
FFF8000000000000FFF0
FFF8000000000000FFF0
FFF8000000000000FFF0
FFF8000000000000FFF0
FFF8000000000000FFF0
FFF8000000000000FFF0
FFF8000000000000FFF0
FFF8000000000000FFF0
FFF8000000000000FFF0
FFF8000000000000FFF0
FFF8000000000000FFF0
FFF8000000000001FFF0
7FFC000000000001FFF0
7FFC000000000001FFE0
7FFC000000000001FFE0
7FFE000000000003FFE0
7FFE000000000003FFE0
3FFF000000000007FFE0
3FFF80000000000FFFC0
3FFFC0000000001FFFC0
1FFFE0000000003FFF80
1FFFF800000000FFFF80
0FFFFE00000003FFFF80
0FFFFFC000001FFFFF00
07FFFFFFF07FFFFFFE00
03FFFFFFFFFFFFFFFE00
03FFFFFFFFFFFFFFFC00
01FFFFFFFFFFFFFFF800
00FFFFFFFFFFFFFFF000
007FFFFFFFFFFFFFE000
001FFFFFFFFFFFFFC000
000FFFFFFFFFFFFF0000
0003FFFFFFFFFFFC0000
0000FFFFFFFFFFF00000
00001FFFFFFFFF800000
000003FFFFFFFC000000
0000000FFFFF00000000
ENDCHAR
STARTCHAR V
ENCODING 86
SWIDTH 989 0
DWIDTH 96 0
BBX 93 72 1 -1
BITMAP
FFFF0000000000000001FFF8
7FFF0000000000000003FFF8
3FFF8000000000000003FFF0
3FFF8000000000000007FFE0
1FFFC000000000000007FFE0
0FFFE00000000000000FFFC0
0FFFE00000000000000FFFC0
07FFF00000000000001FFF80
07FFF00000000000003FFF00
03FFF80000000000003FFF00
01FFFC0000000000007FFE00
01FFFC0000000000007FFE00
00FFFE000000000000FFFC00
00FFFE000000000001FFF800
007FFF000000000001FFF800
003FFF000000000003FFF000
003FFF800000000003FFF000
001FFFC00000000007FFE000
001FFFC00000000007FFC000
000FFFE0000000000FFFC000
0007FFE0000000001FFF8000
0007FFF0000000001FFF8000
0003FFF8000000003FFF0000
0003FFF8000000003FFE0000
0001FFFC000000007FFE0000
0000FFFC00000000FFFC0000
0000FFFE00000000FFFC0000
00007FFE00000001FFF80000
00007FFF00000001FFF00000
00003FFF80000003FFF00000
00001FFF80000003FFE00000
00001FFFC0000007FFE00000
00000FFFC000000FFFC00000
00000FFFE000000FFF800000
000007FFF000001FFF800000
000003FFF000001FFF000000
000003FFF800003FFF000000
000001FFF800007FFE000000
000001FFFC00007FFC000000
000000FFFE0000FFFC000000
0000007FFE0000FFF8000000
0000007FFF0001FFF8000000
0000003FFF0001FFF0000000
0000003FFF8003FFE0000000
0000001FFF8007FFE0000000
0000001FFFC007FFC0000000
0000000FFFE00FFFC0000000
00000007FFE00FFF80000000
00000007FFF01FFF80000000
00000003FFF03FFF00000000
00000003FFF83FFE00000000
00000001FFFC7FFE00000000
00000000FFFC7FFC00000000
00000000FFFEFFFC00000000
000000007FFEFFF800000000
000000007FFFFFF000000000
000000003FFFFFF000000000
000000001FFFFFE000000000
000000001FFFFFE000000000
000000000FFFFFC000000000
000000000FFFFF8000000000
0000000007FFFF8000000000
0000000003FFFF0000000000
0000000003FFFF0000000000
0000000001FFFE0000000000
0000000001FFFC0000000000
0000000000FFFC0000000000
00000000007FF80000000000
00000000007FF80000000000
00000000003FF00000000000
00000000001FE00000000000
00000000000F800000000000
ENDCHAR
STARTCHAR W
ENCODING 87
SWIDTH 1268 0
DWIDTH 123 0
BBX 121 72 1 -1
BITMAP
FFFE00000FFFE00000000000003FFF80
7FFF000007FFF00000000000003FFF00
3FFF000007FFF00000000000007FFE00
3FFF800003FFF80000000000007FFE00
1FFF800003FFF8000000000000FFFC00
1FFFC00001FFFC000000000000FFFC00
0FFFE00001FFFC000000000001FFF800
0FFFE00000FFFE000000000001FFF800
07FFF00000FFFE000000000003FFF000
07FFF000007FFF000000000003FFE000
03FFF800007FFF000000000007FFE000
01FFF800003FFF800000000007FFC000
01FFFC00003FFF80000000000FFFC000
00FFFC00001FFFC0000000000FFF8000
00FFFE00001FFFC0000000001FFF8000
007FFE00000FFFE0000000001FFF0000
007FFF000007FFE0000000003FFF0000
003FFF000007FFF0000000003FFE0000
003FFF800003FFF0000000007FFE0000
001FFF800003FFF8000000007FFC0000
001FFFC00001FFF800000000FFFC0000
000FFFC00001FFFC00000001FFF80000
000FFFE00000FFFC00000001FFF80000
0007FFE00000FFFE00000003FFF00000
0007FFF000007FFE00000003FFE00000
0003FFF000007FFF00000007FFE00000
0001FFF800003FFF00000007FFC00000
0001FFF800003FFF8000000FFFC00000
0000FFFC00001FFF8000000FFF800000
0000FFFE00001FFFC000001FFF800000
00007FFE00000FFFC000001FFF000000
00007FFF00000FFFE000003FFF000000
00003FFF000007FFE000003FFE000000
00003FFF800007FFF000007FFE000000
00001FFF800003FFF000007FFC000000
00001FFFC00003FFF80000FFFC000000
00000FFFC00003FFF80000FFF8000000
00000FFFE00007FFFC0001FFF0000000
000007FFE00007FFFC0001FFF0000000
000003FFF0000FFFFE0003FFE0000000
000003FFF0001FFFFE0007FFE0000000
000001FFF8001FFFFF0007FFC0000000
000001FFF8003FFFFF000FFFC0000000
000000FFFC003FFFFF800FFF80000000
000000FFFC007FFFFF801FFF80000000
0000007FFE007FFFFFC01FFF00000000
0000007FFE00FFFFFFC03FFF00000000
0000003FFF00FFF7FFE03FFE00000000
0000003FFF01FFF7FFE07FFE00000000
0000001FFF83FFE3FFF07FFC00000000
0000001FFF83FFE3FFF0FFFC00000000
0000000FFFC7FFC1FFF8FFF800000000
0000000FFFE7FFC1FFF9FFF000000000
00000007FFEFFF80FFFDFFF000000000
00000003FFFFFF80FFFFFFE000000000
00000003FFFFFF007FFFFFE000000000
00000001FFFFFF007FFFFFC000000000
00000001FFFFFE003FFFFFC000000000
00000000FFFFFE003FFFFF8000000000
00000000FFFFFC001FFFFF8000000000
000000007FFFFC001FFFFF0000000000
000000007FFFF8000FFFFF0000000000
000000003FFFF0000FFFFE0000000000
000000003FFFF00007FFFE0000000000
000000001FFFE00007FFFC0000000000
000000001FFFE00003FFF80000000000
000000000FFFC00001FFF80000000000
0000000007FFC00001FFF00000000000
0000000007FF800000FFF00000000000
0000000003FF800000FFE00000000000
0000000001FF0000007FC00000000000
0000000000FC0000001F000000000000
ENDCHAR
STARTCHAR X
ENCODING 88
SWIDTH 1000 0
DWIDTH 97 0
BBX 92 71 2 0
BITMAP
1FFFF00000000000007FFF80
0FFFF8000000000000FFFF00
07FFFC000000000001FFFE00
03FFFE000000000003FFFC00
01FFFF000000000007FFF800
00FFFF80000000000FFFF000
003FFFC0000000001FFFE000
001FFFF0000000003FFF8000
000FFFF8000000007FFF0000
0007FFFC00000000FFFE0000
0003FFFE00000001FFFC0000
0001FFFF00000003FFF80000
0000FFFF80000007FFF00000
00007FFFC000000FFFE00000
00003FFFE000001FFFC00000
00001FFFF000003FFF800000
00000FFFF800007FFF000000
000007FFFC0000FFFE000000
000003FFFE0001FFFC000000
000001FFFF0007FFF8000000
000000FFFF800FFFF0000000
0000007FFFC01FFFE0000000
0000003FFFE03FFFC0000000
0000001FFFF07FFF80000000
0000000FFFF8FFFF00000000
00000007FFFDFFFE00000000
00000003FFFFFFFC00000000
00000001FFFFFFF800000000
00000000FFFFFFF000000000
000000007FFFFFE000000000
000000003FFFFFC000000000
000000001FFFFF8000000000
000000000FFFFF0000000000
0000000007FFFE0000000000
0000000003FFFE0000000000
000000000FFFFF0000000000
000000001FFFFF8000000000
000000003FFFFFC000000000
000000007FFFFFE000000000
00000000FFFFFFF000000000
00000001FFFFFFF800000000
00000003FFFFFFFC00000000
00000007FFFBFFFE00000000
0000000FFFF1FFFF00000000
0000001FFFE0FFFF80000000
0000003FFFC07FFFC0000000
0000007FFF803FFFE0000000
000000FFFF001FFFF0000000
000001FFFE000FFFF8000000
000003FFFC0007FFFC000000
000007FFF80003FFFE000000
00000FFFF00001FFFF000000
00001FFFE00000FFFF800000
00003FFFC000007FFFC00000
00007FFF8000003FFFE00000
0000FFFF0000001FFFF00000
0001FFFE0000000FFFF80000
0003FFFC00000007FFFC0000
0007FFF800000003FFFE0000
000FFFF000000001FFFF0000
001FFFE000000000FFFF8000
003FFFC0000000007FFFC000
007FFF80000000003FFFE000
00FFFF00000000001FFFF800
01FFFE00000000000FFFFC00
03FFFC000000000007FFFE00
07FFF8000000000003FFFF00
0FFFF0000000000001FFFF80
1FFFE0000000000000FFFFC0
3FFFC00000000000007FFFE0
FFFF800000000000003FFFF0
ENDCHAR
STARTCHAR Y
ENCODING 89
SWIDTH 926 0
DWIDTH 90 0
BBX 88 71 1 0
BITMAP
FFFF80000000000001FFFF
3FFFC0000000000001FFFC
3FFFE0000000000003FFF8
1FFFF0000000000007FFF8
0FFFF800000000000FFFF0
07FFF800000000001FFFE0
03FFFC00000000003FFFC0
01FFFE00000000003FFF80
01FFFF00000000007FFF00
00FFFF8000000000FFFE00
007FFFC000000001FFFE00
003FFFE000000003FFFC00
001FFFE000000007FFF800
000FFFF00000000FFFF000
0007FFF80000000FFFE000
0007FFFC0000001FFFC000
0003FFFE0000003FFFC000
0001FFFF0000007FFF8000
0000FFFF000000FFFF0000
00007FFF800001FFFE0000
00003FFFC00001FFFC0000
00001FFFE00003FFF80000
00001FFFF00007FFF00000
00000FFFF8000FFFF00000
000007FFF8001FFFE00000
000003FFFC003FFFC00000
000001FFFE003FFF800000
000000FFFF007FFF000000
000000FFFF80FFFE000000
0000007FFFC1FFFC000000
0000003FFFC3FFFC000000
0000001FFFE7FFF8000000
0000000FFFFFFFF0000000
00000007FFFFFFE0000000
00000003FFFFFFC0000000
00000003FFFFFF80000000
00000001FFFFFF00000000
00000000FFFFFF00000000
000000007FFFFE00000000
000000003FFFFC00000000
000000001FFFF800000000
000000000FFFF000000000
000000000FFFE000000000
0000000007FFE000000000
0000000003FFC000000000
0000000003FFC000000000
0000000003FFC000000000
0000000003FFC000000000
0000000003FFC000000000
0000000003FFC000000000
0000000003FFC000000000
0000000003FFC000000000
0000000003FFC000000000
0000000003FFC000000000
0000000003FFC000000000
0000000003FFC000000000
0000000003FFC000000000
0000000003FFC000000000
0000000003FFC000000000
0000000003FFC000000000
0000000003FFC000000000
0000000003FFC000000000
0000000003FFC000000000
0000000003FFC000000000
0000000003FFC000000000
0000000003FFC000000000
0000000003FFC000000000
0000000003FFC000000000
0000000003FFC000000000
0000000003FFC000000000
0000000003FFC000000000
ENDCHAR
STARTCHAR Z
ENCODING 90
SWIDTH 802 0
DWIDTH 78 0
BBX 69 71 4 0
BITMAP
7FFFFFFFFFFFFFFF80
7FFFFFFFFFFFFFFFE0
7FFFFFFFFFFFFFFFF0
7FFFFFFFFFFFFFFFF8
7FFFFFFFFFFFFFFFF8
7FFFFFFFFFFFFFFFF8
7FFFFFFFFFFFFFFFF8
7FFFFFFFFFFFFFFFF8
7FFFFFFFFFFFFFFFF8
7FFFFFFFFFFFFFFFF0
7FFFFFFFFFFFFFFFF0
7FFFFFFFFFFFFFFFE0
0000000000007FFFC0
000000000000FFFF80
000000000001FFFF00
000000000003FFFE00
000000000007FFFC00
00000000000FFFF800
00000000001FFFF000
00000000003FFFE000
00000000007FFFC000
0000000000FFFF8000
0000000001FFFF0000
0000000003FFFE0000
0000000007FFFC0000
000000000FFFF80000
000000001FFFF00000
000000003FFFE00000
000000007FFFC00000
00000000FFFF800000
00000001FFFF000000
00000003FFFE000000
00000007FFFC000000
0000000FFFF8000000
0000001FFFF0000000
0000003FFFE0000000
0000007FFFC0000000
000000FFFF80000000
000001FFFF00000000
000003FFFE00000000
000007FFFC00000000
00000FFFF800000000
00001FFFF000000000
00003FFFE000000000
00007FFFC000000000
0000FFFF8000000000
0001FFFF0000000000
0003FFFE0000000000
0007FFFC0000000000
000FFFF80000000000
001FFFF00000000000
003FFFE00000000000
007FFFC00000000000
00FFFF800000000000
01FFFF000000000000
03FFFE000000000000
07FFFC000000000000
0FFFF8000000000000
1FFFF0000000000000
3FFFFFFFFFFFFFFFF8
7FFFFFFFFFFFFFFFF8
7FFFFFFFFFFFFFFFF8
FFFFFFFFFFFFFFFFF8
FFFFFFFFFFFFFFFFF8
FFFFFFFFFFFFFFFFF8
FFFFFFFFFFFFFFFFF8
FFFFFFFFFFFFFFFFF8
FFFFFFFFFFFFFFFFF8
7FFFFFFFFFFFFFFFF8
3FFFFFFFFFFFFFFFF8
0FFFFFFFFFFFFFFFF8
ENDCHAR
STARTCHAR bracketleft
ENCODING 91
SWIDTH 333 0
DWIDTH 32 0
BBX 16 89 10 -9
BITMAP
FFFF
FFFF
FFFF
FFFF
FFFF
FFFF
FFFF
FFFF
FF00
FF00
FF00
FF00
FF00
FF00
FF00
FF00
FF00
FF00
FF00
FF00
FF00
FF00
FF00
FF00
FF00
FF00
FF00
FF00
FF00
FF00
FF00
FF00
FF00
FF00
FF00
FF00
FF00
FF00
FF00
FF00
FF00
FF00
FF00
FF00
FF00
FF00
FF00
FF00
FF00
FF00
FF00
FF00
FF00
FF00
FF00
FF00
FF00
FF00
FF00
FF00
FF00
FF00
FF00
FF00
FF00
FF00
FF00
FF00
FF00
FF00
FF00
FF00
FF00
FF00
FF00
FF00
FF00
FF00
FF00
FF00
FF00
FFFF
FFFF
FFFF
FFFF
FFFF
FFFF
FFFF
FFFF
ENDCHAR
STARTCHAR backslash
ENCODING 92
SWIDTH 445 0
DWIDTH 43 0
BBX 41 71 1 0
BITMAP
FF0000000000
7F8000000000
7F8000000000
3FC000000000
3FC000000000
3FE000000000
1FE000000000
1FF000000000
0FF000000000
0FF800000000
07F800000000
07F800000000
03FC00000000
03FC00000000
01FE00000000
01FE00000000
00FF00000000
00FF00000000
00FF80000000
007F80000000
007FC0000000
003FC0000000
003FE0000000
001FE0000000
001FF0000000
000FF0000000
000FF0000000
0007F8000000
0007F8000000
0003FC000000
0003FC000000
0003FE000000
0001FE000000
0001FF000000
0000FF000000
0000FF800000
00007F800000
00007FC00000
00003FC00000
00003FE00000
00001FE00000
00001FE00000
00000FF00000
00000FF00000
00000FF80000
000007F80000
000007FC0000
000003FC0000
000003FE0000
000001FE0000
000001FF0000
000000FF0000
000000FF8000
0000007F8000
0000007FC000
0000003FC000
0000003FC000
0000003FE000
0000001FE000
0000001FF000
0000000FF000
0000000FF800
00000007F800
00000007FC00
00000003FC00
00000003FE00
00000001FE00
00000001FF00
00000000FF00
00000000FF00
00000000FF80
ENDCHAR
STARTCHAR bracketright
ENCODING 93
SWIDTH 333 0
DWIDTH 32 0
BBX 17 89 6 -9
BITMAP
FFFF80
FFFF80
FFFF80
FFFF80
FFFF80
FFFF80
FFFF80
FFFF80
007F80
007F80
007F80
007F80
007F80
007F80
007F80
007F80
007F80
007F80
007F80
007F80
007F80
007F80
007F80
007F80
007F80
007F80
007F80
007F80
007F80
007F80
007F80
007F80
007F80
007F80
007F80
007F80
007F80
007F80
007F80
007F80
007F80
007F80
007F80
007F80
007F80
007F80
007F80
007F80
007F80
007F80
007F80
007F80
007F80
007F80
007F80
007F80
007F80
007F80
007F80
007F80
007F80
007F80
007F80
007F80
007F80
007F80
007F80
007F80
007F80
007F80
007F80
007F80
007F80
007F80
007F80
007F80
007F80
007F80
007F80
007F80
007F80
FFFF80
FFFF80
FFFF80
FFFF80
FFFF80
FFFF80
FFFF80
FFFF80
ENDCHAR
STARTCHAR asciicircum
ENCODING 94
SWIDTH 559 0
DWIDTH 54 0
BBX 42 43 6 28
BITMAP
00001E000000
00003F800000
00007F800000
00007FC00000
0000FFC00000
0000FFE00000
0001FFE00000
0001FFF00000
0003FFF00000
0003FFF00000
0003FFF80000
0007FFF80000
0007FBFC0000
000FF3FC0000
000FF1FC0000
000FE1FE0000
001FE1FE0000
001FC0FF0000
003FC0FF0000
003FC07F8000
007F807F8000
007F807F8000
007F003FC000
00FF003FC000
00FF001FE000
01FE001FE000
01FE001FE000
03FC000FF000
03FC000FF000
03FC0007F800
07F80007F800
07F80007FC00
0FF00003FC00
0FF00003FC00
1FF00001FE00
1FE00001FE00
1FE00001FF00
3FC00000FF00
3FC00000FF00
7FC000007F80
7F8000007F80
7F8000007FC0
FF0000003FC0
ENDCHAR
STARTCHAR underscore
ENCODING 95
SWIDTH 668 0
DWIDTH 65 0
BBX 66 6 0 -16
BITMAP
FFFFFFFFFFFFFFFFC0
FFFFFFFFFFFFFFFFC0
FFFFFFFFFFFFFFFFC0
FFFFFFFFFFFFFFFFC0
FFFFFFFFFFFFFFFFC0
FFFFFFFFFFFFFFFFC0
ENDCHAR
STARTCHAR grave
ENCODING 96
SWIDTH 362 0
DWIDTH 35 0
BBX 25 13 5 75
BITMAP
E0000000
FE000000
FFC00000
FFF80000
FFFF8000
FFFFF000
FFFFFE00
7FFFFF80
03FFFF80
003FFF80
0001FF80
00000F80
00000080
ENDCHAR
STARTCHAR a
ENCODING 97
SWIDTH 989 0
DWIDTH 96 0
BBX 93 72 1 0
BITMAP
00000000000F800000000000
00000000001FE00000000000
00000000003FF00000000000
00000000007FF80000000000
00000000007FF80000000000
0000000000FFFC0000000000
0000000001FFFC0000000000
0000000001FFFE0000000000
0000000003FFFF0000000000
0000000003FFFF0000000000
0000000007FFFF8000000000
000000000FFFFF8000000000
000000000FFFFFC000000000
000000001FFFFFE000000000
000000001FFFFFE000000000
000000003FFFFFF000000000
000000007FFFFFF000000000
000000007FFFFFF800000000
00000000FFFDFFFC00000000
00000000FFF9FFFC00000000
00000001FFF8FFFE00000000
00000003FFF07FFE00000000
00000003FFF07FFF00000000
00000007FFE03FFF00000000
00000007FFE03FFF80000000
0000000FFFC01FFFC0000000
0000001FFF800FFFC0000000
0000001FFF800FFFE0000000
0000003FFF0007FFE0000000
0000003FFF0007FFF0000000
0000007FFE0003FFF8000000
000000FFFC0001FFF8000000
000000FFFC0001FFFC000000
000001FFF80000FFFC000000
000001FFF80000FFFE000000
000003FFF000007FFF000000
000003FFE000003FFF000000
000007FFE000003FFF800000
00000FFFC000001FFF800000
00000FFFC000001FFFC00000
00001FFF8000000FFFE00000
00001FFF00000007FFE00000
00003FFF00000007FFF00000
00007FFE00000003FFF00000
00007FFE00FFFFFFFFF80000
0000FFFC00FFFFFFFFFC0000
0000FFFC01FFFFFFFFFC0000
0001FFF803FFFFFFFFFE0000
0003FFF003FFFFFFFFFE0000
0003FFF007FFFFFFFFFF0000
0007FFE007FFFFFFFFFF8000
0007FFE00FFFFFFFFFFF8000
000FFFC00FFFFFFFFFFFC000
001FFF801FFFFFFFFFFFC000
001FFF80000000000FFFE000
003FFF000000000007FFF000
003FFF000000000003FFF000
007FFE000000000003FFF800
00FFFC000000000001FFF800
00FFFC000000000001FFFC00
01FFF8000000000000FFFE00
01FFF8000000000000FFFE00
03FFF00000000000007FFF00
07FFE00000000000003FFF00
07FFE00000000000003FFF80
0FFFC00000000000001FFFC0
0FFFC00000000000001FFFC0
1FFF800000000000000FFFE0
3FFF8000000000000007FFE0
3FFF0000000000000007FFF0
7FFE0000000000000003FFF8
FFFE0000000000000003FFF8
ENDCHAR
STARTCHAR b
ENCODING 98
SWIDTH 891 0
DWIDTH 86 0
BBX 76 71 6 0
BITMAP
FFFFFFFFFFFFFFC00000
FFFFFFFFFFFFFFFC0000
FFFFFFFFFFFFFFFF8000
FFFFFFFFFFFFFFFFC000
FFFFFFFFFFFFFFFFF000
FFFFFFFFFFFFFFFFF800
FFFFFFFFFFFFFFFFFC00
FFFFFFFFFFFFFFFFFE00
FFFFFFFFFFFFFFFFFF00
FFFFFFFFFFFFFFFFFF00
FFFFFFFFFFFFFFFFFF80
FFFFFFFFFFFFFFFFFF80
FFF0000000007FFFFFC0
FFF000000000007FFFC0
FFF000000000001FFFC0
FFF000000000000FFFC0
FFF0000000000007FFC0
FFF0000000000007FFC0
FFF0000000000003FFE0
FFF0000000000003FFC0
FFF0000000000003FFC0
FFF0000000000003FFC0
FFF0000000000003FFC0
FFF0000000000003FFC0
FFF0000000000003FFC0
FFF0000000000007FF80
FFF0000000000007FF80
FFF000000000000FFF00
FFF000000000001FFF00
FFF00000000000FFFE00
FFF007FFFFFFFFFFFC00
FFF007FFFFFFFFFFF800
FFF007FFFFFFFFFFE000
FFF007FFFFFFFFFF8000
FFF007FFFFFFFFFFE000
FFF007FFFFFFFFFFF800
FFF007FFFFFFFFFFFC00
FFF007FFFFFFFFFFFE00
FFF007FFFFFFFFFFFF00
FFF007FFFFFFFFFFFF80
FFF000000000007FFF80
FFF000000000001FFFC0
FFF0000000000007FFC0
FFF0000000000003FFE0
FFF0000000000003FFE0
FFF0000000000001FFE0
FFF0000000000001FFF0
FFF0000000000001FFF0
FFF0000000000001FFF0
FFF0000000000001FFF0
FFF0000000000001FFF0
FFF0000000000001FFF0
FFF0000000000001FFF0
FFF0000000000003FFE0
FFF0000000000007FFE0
FFF000000000000FFFE0
FFF000000000001FFFE0
FFF000000000007FFFC0
FFF0000000007FFFFFC0
FFFFFFFFFFFFFFFFFFC0
FFFFFFFFFFFFFFFFFF80
FFFFFFFFFFFFFFFFFF80
FFFFFFFFFFFFFFFFFF00
FFFFFFFFFFFFFFFFFE00
FFFFFFFFFFFFFFFFFC00
FFFFFFFFFFFFFFFFF800
FFFFFFFFFFFFFFFFF000
FFFFFFFFFFFFFFFFE000
FFFFFFFFFFFFFFFF8000
FFFFFFFFFFFFFFFC0000
FFFFFFFFFFFFFFE00000
ENDCHAR
STARTCHAR c
ENCODING 99
SWIDTH 829 0
DWIDTH 80 0
BBX 73 71 4 0
BITMAP
0000000FFFFFFFFFFF80
000000FFFFFFFFFFFF80
000007FFFFFFFFFFFF80
00003FFFFFFFFFFFFF80
0000FFFFFFFFFFFFFF80
0001FFFFFFFFFFFFFF80
0007FFFFFFFFFFFFFF80
000FFFFFFFFFFFFFFF80
001FFFFFFFFFFFFFFF80
003FFFFFFFFFFFFFFF80
007FFFFFFFFFFFFFFF80
00FFFFFFFFFFFFFFFF80
01FFFFFF800000000000
03FFFFE0000000000000
03FFFF80000000000000
07FFFE00000000000000
07FFF800000000000000
0FFFF000000000000000
1FFFE000000000000000
1FFFC000000000000000
1FFF8000000000000000
3FFF0000000000000000
3FFF0000000000000000
3FFE0000000000000000
7FFE0000000000000000
7FFC0000000000000000
7FFC0000000000000000
7FFC0000000000000000
FFF80000000000000000
FFF80000000000000000
FFF80000000000000000
FFF80000000000000000
FFF80000000000000000
FFF00000000000000000
FFF00000000000000000
FFF00000000000000000
FFF00000000000000000
FFF00000000000000000
FFF80000000000000000
FFF80000000000000000
FFF80000000000000000
7FF80000000000000000
7FF80000000000000000
7FFC0000000000000000
7FFC0000000000000000
7FFC0000000000000000
3FFE0000000000000000
3FFE0000000000000000
3FFF0000000000000000
1FFF8000000000000000
1FFF8000000000000000
0FFFC000000000000000
0FFFE000000000000000
07FFF000000000000000
07FFF800000000000000
03FFFE00000000000000
03FFFF80000000000000
01FFFFE0000000000000
00FFFFFF800000000000
007FFFFFFFFFFFFFFF80
003FFFFFFFFFFFFFFF80
001FFFFFFFFFFFFFFF80
000FFFFFFFFFFFFFFF80
0007FFFFFFFFFFFFFF80
0003FFFFFFFFFFFFFF80
0000FFFFFFFFFFFFFF80
00007FFFFFFFFFFFFF80
00001FFFFFFFFFFFFF80
000007FFFFFFFFFFFF80
000000FFFFFFFFFFFF80
0000000FFFFFFFFFFF80
ENDCHAR
STARTCHAR d
ENCODING 100
SWIDTH 879 0
DWIDTH 85 0
BBX 75 71 6 0
BITMAP
FFFFFFFFFFFE00000000
FFFFFFFFFFFFF0000000
FFFFFFFFFFFFFE000000
FFFFFFFFFFFFFF800000
FFFFFFFFFFFFFFE00000
FFFFFFFFFFFFFFF00000
FFFFFFFFFFFFFFFC0000
FFFFFFFFFFFFFFFE0000
FFFFFFFFFFFFFFFF0000
FFFFFFFFFFFFFFFF8000
FFFFFFFFFFFFFFFFC000
FFFFFFFFFFFFFFFFE000
FFF00000003FFFFFF000
FFF000000000FFFFF800
FFF0000000001FFFFC00
FFF0000000000FFFFC00
FFF00000000003FFFE00
FFF00000000001FFFE00
FFF00000000000FFFF00
FFF000000000007FFF00
FFF000000000003FFF80
FFF000000000001FFF80
FFF000000000000FFF80
FFF000000000000FFFC0
FFF0000000000007FFC0
FFF0000000000007FFC0
FFF0000000000007FFC0
FFF0000000000003FFE0
FFF0000000000003FFE0
FFF0000000000003FFE0
FFF0000000000001FFE0
FFF0000000000001FFE0
FFF0000000000001FFE0
FFF0000000000001FFE0
FFF0000000000001FFE0
FFF0000000000001FFE0
FFF0000000000001FFE0
FFF0000000000001FFE0
FFF0000000000001FFE0
FFF0000000000001FFE0
FFF0000000000003FFE0
FFF0000000000003FFE0
FFF0000000000003FFE0
FFF0000000000003FFC0
FFF0000000000007FFC0
FFF0000000000007FFC0
FFF000000000000FFFC0
FFF000000000000FFF80
FFF000000000001FFF80
FFF000000000001FFF80
FFF000000000003FFF00
FFF000000000007FFF00
FFF00000000000FFFE00
FFF00000000001FFFE00
FFF00000000003FFFC00
FFF0000000000FFFFC00
FFF0000000003FFFF800
FFF000000000FFFFF000
FFF00000003FFFFFE000
FFFFFFFFFFFFFFFFE000
FFFFFFFFFFFFFFFFC000
FFFFFFFFFFFFFFFF8000
FFFFFFFFFFFFFFFF0000
FFFFFFFFFFFFFFFC0000
FFFFFFFFFFFFFFF80000
FFFFFFFFFFFFFFF00000
FFFFFFFFFFFFFFC00000
FFFFFFFFFFFFFF000000
FFFFFFFFFFFFFC000000
FFFFFFFFFFFFE0000000
FFFFFFFFFFFE00000000
ENDCHAR
STARTCHAR e
ENCODING 101
SWIDTH 759 0
DWIDTH 74 0
BBX 63 71 6 0
BITMAP
FFFFFFFFFFFFFFFE
FFFFFFFFFFFFFFFE
FFFFFFFFFFFFFFFE
FFFFFFFFFFFFFFFE
FFFFFFFFFFFFFFFE
FFFFFFFFFFFFFFFE
FFFFFFFFFFFFFFFE
FFFFFFFFFFFFFFFE
FFFFFFFFFFFFFFFE
FFFFFFFFFFFFFFFE
FFFFFFFFFFFFFFFE
FFFFFFFFFFFFFFFE
FFF0000000000000
FFF0000000000000
FFF0000000000000
FFF0000000000000
FFF0000000000000
FFF0000000000000
FFF0000000000000
FFF0000000000000
FFF0000000000000
FFF0000000000000
FFF0000000000000
FFF0000000000000
FFF0000000000000
FFF0000000000000
FFF0000000000000
FFF0000000000000
FFF0000000000000
FFF0000000000000
FFF007FFFFFFFFF0
FFF007FFFFFFFFF0
FFF007FFFFFFFFF0
FFF007FFFFFFFFF0
FFF007FFFFFFFFF0
FFF007FFFFFFFFF0
FFF007FFFFFFFFF0
FFF007FFFFFFFFF0
FFF007FFFFFFFFF0
FFF007FFFFFFFFF0
FFF0000000000000
FFF0000000000000
FFF0000000000000
FFF0000000000000
FFF0000000000000
FFF0000000000000
FFF0000000000000
FFF0000000000000
FFF0000000000000
FFF0000000000000
FFF0000000000000
FFF0000000000000
FFF0000000000000
FFF0000000000000
FFF0000000000000
FFF0000000000000
FFF0000000000000
FFF0000000000000
FFF0000000000000
FFFFFFFFFFFFFFFE
FFFFFFFFFFFFFFFE
FFFFFFFFFFFFFFFE
FFFFFFFFFFFFFFFE
FFFFFFFFFFFFFFFE
FFFFFFFFFFFFFFFE
FFFFFFFFFFFFFFFE
FFFFFFFFFFFFFFFE
FFFFFFFFFFFFFFFE
FFFFFFFFFFFFFFFE
FFFFFFFFFFFFFFFE
FFFFFFFFFFFFFFFE
ENDCHAR
STARTCHAR f
ENCODING 102
SWIDTH 705 0
DWIDTH 68 0
BBX 60 71 6 0
BITMAP
FFFFFFFFFFFFFFF0
FFFFFFFFFFFFFFF0
FFFFFFFFFFFFFFF0
FFFFFFFFFFFFFFF0
FFFFFFFFFFFFFFF0
FFFFFFFFFFFFFFF0
FFFFFFFFFFFFFFF0
FFFFFFFFFFFFFFF0
FFFFFFFFFFFFFFF0
FFFFFFFFFFFFFFF0
FFFFFFFFFFFFFFF0
FFFFFFFFFFFFFFF0
FFF0000000000000
FFF0000000000000
FFF0000000000000
FFF0000000000000
FFF0000000000000
FFF0000000000000
FFF0000000000000
FFF0000000000000
FFF0000000000000
FFF0000000000000
FFF0000000000000
FFF0000000000000
FFF0000000000000
FFF0000000000000
FFF0000000000000
FFF0000000000000
FFF0000000000000
FFF0000000000000
FFF0000000000000
FFF007FFFFFFFF80
FFF007FFFFFFFF80
FFF007FFFFFFFF80
FFF007FFFFFFFF80
FFF007FFFFFFFF80
FFF007FFFFFFFF80
FFF007FFFFFFFF80
FFF007FFFFFFFF80
FFF007FFFFFFFF80
FFF007FFFFFFFF80
FFF007FFFFFFFF80
FFF0000000000000
FFF0000000000000
FFF0000000000000
FFF0000000000000
FFF0000000000000
FFF0000000000000
FFF0000000000000
FFF0000000000000
FFF0000000000000
FFF0000000000000
FFF0000000000000
FFF0000000000000
FFF0000000000000
FFF0000000000000
FFF0000000000000
FFF0000000000000
FFF0000000000000
FFF0000000000000
FFF0000000000000
FFF0000000000000
FFF0000000000000
FFF0000000000000
FFF0000000000000
FFF0000000000000
FFF0000000000000
FFF0000000000000
FFF0000000000000
FFF0000000000000
FFF0000000000000
ENDCHAR
STARTCHAR g
ENCODING 103
SWIDTH 888 0
DWIDTH 86 0
BBX 77 71 4 0
BITMAP
0000000FFFFFFFFFFF80
000000FFFFFFFFFFFF80
000007FFFFFFFFFFFF80
00003FFFFFFFFFFFFF80
0000FFFFFFFFFFFFFF80
0001FFFFFFFFFFFFFF80
0007FFFFFFFFFFFFFF80
000FFFFFFFFFFFFFFF80
001FFFFFFFFFFFFFFF80
003FFFFFFFFFFFFFFF80
007FFFFFFFFFFFFFFF80
00FFFFFFFFFFFFFFFF80
01FFFFFF800000000000
03FFFFE0000000000000
03FFFF80000000000000
07FFFE00000000000000
07FFF800000000000000
0FFFF000000000000000
1FFFE000000000000000
1FFFC000000000000000
1FFF8000000000000000
3FFF0000000000000000
3FFF0000000000000000
3FFE0000000000000000
7FFE0000000000000000
7FFC0000000000000000
7FFC0000000000000000
7FFC0000000000000000
FFF80000000000000000
FFF80000000000000000
FFF800007FFFFFFFFFF8
FFF800007FFFFFFFFFF8
FFF800007FFFFFFFFFF8
FFF000007FFFFFFFFFF8
FFF000007FFFFFFFFFF8
FFF000007FFFFFFFFFF8
FFF000007FFFFFFFFFF8
FFF000007FFFFFFFFFF8
FFF800007FFFFFFFFFF8
FFF800007FFFFFFFFFF8
FFF8000000000000FFF8
7FF8000000000000FFF8
7FF8000000000000FFF8
7FFC000000000000FFF8
7FFC000000000000FFF8
7FFC000000000000FFF8
3FFE000000000000FFF8
3FFE000000000000FFF8
3FFF000000000000FFF8
1FFF800000000000FFF8
1FFF800000000000FFF8
0FFFC00000000000FFF8
0FFFE00000000000FFF8
07FFF00000000000FFF8
07FFF80000000000FFF8
03FFFE0000000000FFF8
03FFFF8000000000FFF8
01FFFFE000000000FFF8
00FFFFFF80000000FFF8
007FFFFFFFFFFFFFFFF8
003FFFFFFFFFFFFFFFF8
001FFFFFFFFFFFFFFFF8
000FFFFFFFFFFFFFFFF8
0007FFFFFFFFFFFFFFF8
0003FFFFFFFFFFFFFFF8
0000FFFFFFFFFFFFFFF8
00007FFFFFFFFFFFFFF8
00001FFFFFFFFFFFFFF8
000007FFFFFFFFFFFFF8
000000FFFFFFFFFFFFF8
0000000FFFFFFFFFFFF8
ENDCHAR
STARTCHAR h
ENCODING 104
SWIDTH 838 0
DWIDTH 81 0
BBX 69 71 6 0
BITMAP
FFF000000000007FF8
FFF000000000007FF8
FFF000000000007FF8
FFF000000000007FF8
FFF000000000007FF8
FFF000000000007FF8
FFF000000000007FF8
FFF000000000007FF8
FFF000000000007FF8
FFF000000000007FF8
FFF000000000007FF8
FFF000000000007FF8
FFF000000000007FF8
FFF000000000007FF8
FFF000000000007FF8
FFF000000000007FF8
FFF000000000007FF8
FFF000000000007FF8
FFF000000000007FF8
FFF000000000007FF8
FFF000000000007FF8
FFF000000000007FF8
FFF000000000007FF8
FFF000000000007FF8
FFF000000000007FF8
FFF000000000007FF8
FFF000000000007FF8
FFF000000000007FF8
FFF000000000007FF8
FFF007FFFFFFFFFFF8
FFF007FFFFFFFFFFF8
FFF007FFFFFFFFFFF8
FFF007FFFFFFFFFFF8
FFF007FFFFFFFFFFF8
FFF007FFFFFFFFFFF8
FFF007FFFFFFFFFFF8
FFF007FFFFFFFFFFF8
FFF007FFFFFFFFFFF8
FFF007FFFFFFFFFFF8
FFF007FFFFFFFFFFF8
FFF000000000007FF8
FFF000000000007FF8
FFF000000000007FF8
FFF000000000007FF8
FFF000000000007FF8
FFF000000000007FF8
FFF000000000007FF8
FFF000000000007FF8
FFF000000000007FF8
FFF000000000007FF8
FFF000000000007FF8
FFF000000000007FF8
FFF000000000007FF8
FFF000000000007FF8
FFF000000000007FF8
FFF000000000007FF8
FFF000000000007FF8
FFF000000000007FF8
FFF000000000007FF8
FFF000000000007FF8
FFF000000000007FF8
FFF000000000007FF8
FFF000000000007FF8
FFF000000000007FF8
FFF000000000007FF8
FFF000000000007FF8
FFF000000000007FF8
FFF000000000007FF8
FFF000000000007FF8
FFF000000000007FF8
FFF000000000007FF8
ENDCHAR
STARTCHAR i
ENCODING 105
SWIDTH 267 0
DWIDTH 26 0
BBX 12 71 7 0
BITMAP
FFF0
FFF0
FFF0
FFF0
FFF0
FFF0
FFF0
FFF0
FFF0
FFF0
FFF0
FFF0
FFF0
FFF0
FFF0
FFF0
FFF0
FFF0
FFF0
FFF0
FFF0
FFF0
FFF0
FFF0
FFF0
FFF0
FFF0
FFF0
FFF0
FFF0
FFF0
FFF0
FFF0
FFF0
FFF0
FFF0
FFF0
FFF0
FFF0
FFF0
FFF0
FFF0
FFF0
FFF0
FFF0
FFF0
FFF0
FFF0
FFF0
FFF0
FFF0
FFF0
FFF0
FFF0
FFF0
FFF0
FFF0
FFF0
FFF0
FFF0
FFF0
FFF0
FFF0
FFF0
FFF0
FFF0
FFF0
FFF0
FFF0
FFF0
FFF0
ENDCHAR
STARTCHAR j
ENCODING 106
SWIDTH 708 0
DWIDTH 69 0
BBX 62 71 2 0
BITMAP
0000000000007FFC
0000000000007FFC
0000000000007FFC
0000000000007FFC
0000000000007FFC
0000000000007FFC
0000000000007FFC
0000000000007FFC
0000000000007FFC
0000000000007FFC
0000000000007FFC
0000000000007FFC
0000000000007FFC
0000000000007FFC
0000000000007FFC
0000000000007FFC
0000000000007FFC
0000000000007FFC
0000000000007FFC
0000000000007FFC
0000000000007FFC
0000000000007FFC
0000000000007FFC
0000000000007FFC
0000000000007FFC
0000000000007FFC
0000000000007FFC
0000000000007FFC
0000000000007FFC
0000000000007FFC
0000000000007FFC
0000000000007FFC
0000000000007FFC
0000000000007FFC
0000000000007FFC
0000000000007FFC
0000000000007FFC
0000000000007FFC
0000000000007FFC
0000000000007FFC
0000000000007FFC
0000000000007FFC
0000000000007FF8
0000000000007FF8
0000000000007FF8
0000000000007FF8
000000000000FFF8
000000000000FFF8
000000000000FFF8
000000000001FFF0
000000000001FFF0
000000000003FFF0
000000000007FFF0
00000000000FFFE0
00000000001FFFE0
00000000003FFFC0
0000000001FFFFC0
000000000FFFFF80
0000000FFFFFFF80
FFFFFFFFFFFFFF00
FFFFFFFFFFFFFE00
FFFFFFFFFFFFFE00
FFFFFFFFFFFFFC00
FFFFFFFFFFFFF800
FFFFFFFFFFFFE000
FFFFFFFFFFFFC000
FFFFFFFFFFFF0000
FFFFFFFFFFFC0000
FFFFFFFFFFF00000
FFFFFFFFFF000000
FFFFFFFFE0000000
ENDCHAR
STARTCHAR k
ENCODING 107
SWIDTH 875 0
DWIDTH 85 0
BBX 77 71 6 0
BITMAP
FFF00000000000FFFFF0
FFF00000000001FFFFC0
FFF00000000007FFFF00
FFF0000000000FFFFE00
FFF0000000001FFFFC00
FFF0000000003FFFF000
FFF000000000FFFFE000
FFF000000001FFFFC000
FFF000000003FFFF0000
FFF00000000FFFFE0000
FFF00000001FFFFC0000
FFF00000003FFFF00000
FFF0000000FFFFE00000
FFF0000001FFFFC00000
FFF0000003FFFF000000
FFF0000007FFFE000000
FFF000001FFFFC000000
FFF000003FFFF0000000
FFF000007FFFE0000000
FFF00001FFFFC0000000
FFF00003FFFF00000000
FFF00007FFFE00000000
FFF0000FFFFC00000000
FFF0003FFFF000000000
FFF0007FFFE000000000
FFF000FFFFC000000000
FFF003FFFF0000000000
FFF007FFFE0000000000
FFF00FFFFC0000000000
FFF01FFFF00000000000
FFF03FFFE00000000000
FFF07FFFC00000000000
FFF0FFFF000000000000
FFF0FFFE000000000000
FFF0FFFC000000000000
FFF0FFFC000000000000
FFF0FFFF000000000000
FFF07FFF800000000000
FFF07FFFC00000000000
FFF03FFFF00000000000
FFF00FFFF80000000000
FFF007FFFC0000000000
FFF003FFFF0000000000
FFF001FFFF8000000000
FFF0007FFFC000000000
FFF0003FFFF000000000
FFF0001FFFF800000000
FFF0000FFFFC00000000
FFF00003FFFF00000000
FFF00001FFFF80000000
FFF00000FFFFC0000000
FFF000003FFFE0000000
FFF000001FFFF8000000
FFF000000FFFFC000000
FFF0000007FFFE000000
FFF0000001FFFF800000
FFF0000000FFFFC00000
FFF00000007FFFE00000
FFF00000003FFFF80000
FFF00000000FFFFC0000
FFF000000007FFFE0000
FFF000000003FFFF8000
FFF000000001FFFFC000
FFF0000000007FFFE000
FFF0000000003FFFF800
FFF0000000001FFFFC00
FFF00000000007FFFE00
FFF00000000003FFFF00
FFF00000000001FFFFC0
FFF00000000000FFFFE0
FFF000000000003FFFF8
ENDCHAR
STARTCHAR l
ENCODING 108
SWIDTH 707 0
DWIDTH 69 0
BBX 60 71 6 0
BITMAP
FFF0000000000000
FFF0000000000000
FFF0000000000000
FFF0000000000000
FFF0000000000000
FFF0000000000000
FFF0000000000000
FFF0000000000000
FFF0000000000000
FFF0000000000000
FFF0000000000000
FFF0000000000000
FFF0000000000000
FFF0000000000000
FFF0000000000000
FFF0000000000000
FFF0000000000000
FFF0000000000000
FFF0000000000000
FFF0000000000000
FFF0000000000000
FFF0000000000000
FFF0000000000000
FFF0000000000000
FFF0000000000000
FFF0000000000000
FFF0000000000000
FFF0000000000000
FFF0000000000000
FFF0000000000000
FFF0000000000000
FFF0000000000000
FFF0000000000000
FFF0000000000000
FFF0000000000000
FFF0000000000000
FFF0000000000000
FFF0000000000000
FFF0000000000000
FFF0000000000000
FFF0000000000000
FFF0000000000000
FFF0000000000000
FFF0000000000000
FFF0000000000000
FFF0000000000000
FFF0000000000000
FFF0000000000000
FFF0000000000000
FFF0000000000000
FFF0000000000000
FFF0000000000000
FFF0000000000000
FFF0000000000000
FFF0000000000000
FFF0000000000000
FFF0000000000000
FFF0000000000000
FFF0000000000000
FFFFFFFFFFFFFFF0
FFFFFFFFFFFFFFF0
FFFFFFFFFFFFFFF0
FFFFFFFFFFFFFFF0
FFFFFFFFFFFFFFF0
FFFFFFFFFFFFFFF0
FFFFFFFFFFFFFFF0
FFFFFFFFFFFFFFF0
FFFFFFFFFFFFFFF0
FFFFFFFFFFFFFFF0
FFFFFFFFFFFFFFF0
FFFFFFFFFFFFFFF0
ENDCHAR
STARTCHAR m
ENCODING 109
SWIDTH 1115 0
DWIDTH 108 0
BBX 104 72 2 -1
BITMAP
000003E0000000000003E00000
00000FF800000000000FF00000
00000FFC00000000001FF80000
00001FFC00000000001FFC0000
00001FFE00000000003FFC0000
00003FFE00000000003FFC0000
00003FFF00000000007FFC0000
00003FFF00000000007FFE0000
00007FFF8000000000FFFE0000
00007FFF8000000000FFFE0000
00007FFFC000000001FFFF0000
00007FFFC000000001FFFF0000
0000FFFFC000000001FFFF0000
0000FFFFE000000003FFFF0000
0000FFFFE000000003FFFF8000
0000FFFFF000000007FFFF8000
0001FFFFF000000007FFFF8000
0001FFFFF80000000FFFFF8000
0001FFFFF80000000FFFFFC000
0003FFFFFC0000000FFFFFC000
0003FFFFFC0000001FFFFFC000
0003FFFFFC0000001FFFFFE000
0003FFFFFE0000003FFDFFE000
0007FFDFFE0000003FFDFFE000
0007FF9FFF0000007FF9FFE000
0007FF8FFF0000007FF9FFF000
0007FF8FFF800000FFF0FFF000
000FFF0FFF800000FFF0FFF000
000FFF07FF800000FFF0FFF800
000FFF07FFC00001FFE0FFF800
001FFF03FFC00001FFE07FF800
001FFE03FFE00003FFC07FF800
001FFE01FFE00003FFC07FFC00
001FFE01FFF00007FF803FFC00
003FFC01FFF00007FF803FFC00
003FFC00FFF80007FF003FFC00
003FFC00FFF8000FFF003FFE00
003FFC007FF8000FFF001FFE00
007FF8007FFC001FFE001FFE00
007FF8003FFC001FFE001FFF00
007FF8003FFE003FFC000FFF00
00FFF8001FFE003FFC000FFF00
00FFF0001FFF007FF8000FFF00
00FFF0001FFF007FF8000FFF80
00FFF0000FFF007FF80007FF80
01FFE0000FFF80FFF00007FF80
01FFE00007FF80FFF00007FF80
01FFE00007FFC1FFE00007FFC0
01FFE00003FFC1FFE00003FFC0
03FFC00003FFE3FFC00003FFC0
03FFC00003FFE3FFC00003FFE0
03FFC00001FFF3FF800001FFE0
07FFC00001FFF7FF800001FFE0
07FF800000FFF7FF800001FFE0
07FF800000FFFFFF000001FFF0
07FF8000007FFFFF000000FFF0
0FFF0000007FFFFE000000FFF0
0FFF0000007FFFFE000000FFF0
0FFF0000003FFFFC000000FFF8
1FFF0000003FFFFC0000007FF8
1FFE0000001FFFF80000007FF8
1FFE0000001FFFF80000007FFC
1FFE0000000FFFF80000003FFC
3FFE0000000FFFF00000003FFC
3FFC00000007FFF00000003FFC
3FFC00000007FFE00000003FFE
3FFC00000007FFE00000001FFE
7FF800000003FFC00000001FFE
7FF800000003FFC00000001FFE
7FF800000001FF800000001FFF
FFF800000000FF000000000FFF
0000000000007E000000000000
ENDCHAR
STARTCHAR n
ENCODING 110
SWIDTH 873 0
DWIDTH 85 0
BBX 73 71 6 0
BITMAP
0F80000000000007FF80
3FC0000000000007FF80
7FE0000000000007FF80
7FF0000000000007FF80
FFF8000000000007FF80
FFFC000000000007FF80
FFFE000000000007FF80
FFFF000000000007FF80
FFFF800000000007FF80
FFFFC00000000007FF80
FFFFE00000000007FF80
FFFFF00000000007FF80
FFFFF80000000007FF80
FFFFFC0000000007FF80
FFFFFF0000000007FF80
FFFFFF8000000007FF80
FFFFFFC000000007FF80
FFFFFFE000000007FF80
FFFFFFF000000007FF80
FFFFFFF800000007FF80
FFFFFFFC00000007FF80
FFF7FFFE00000007FF80
FFF3FFFF00000007FF80
FFF1FFFF80000007FF80
FFF0FFFFC0000007FF80
FFF07FFFE0000007FF80
FFF03FFFF0000007FF80
FFF01FFFF8000007FF80
FFF00FFFFC000007FF80
FFF007FFFE000007FF80
FFF003FFFF000007FF80
FFF001FFFF800007FF80
FFF000FFFFC00007FF80
FFF0007FFFE00007FF80
FFF0003FFFF00007FF80
FFF0001FFFF80007FF80
FFF00007FFFC0007FF80
FFF00003FFFE0007FF80
FFF00001FFFF0007FF80
FFF00000FFFF8007FF80
FFF000007FFFC007FF80
FFF000003FFFE007FF80
FFF000001FFFF007FF80
FFF000000FFFF807FF80
FFF0000007FFFC07FF80
FFF0000003FFFE07FF80
FFF0000001FFFF07FF80
FFF0000000FFFF87FF80
FFF00000007FFFC7FF80
FFF00000003FFFE7FF80
FFF00000001FFFF7FF80
FFF00000000FFFFFFF80
FFF000000007FFFFFF80
FFF000000003FFFFFF80
FFF000000001FFFFFF80
FFF000000000FFFFFF80
FFF0000000007FFFFF80
FFF0000000003FFFFF80
FFF0000000001FFFFF80
FFF0000000000FFFFF80
FFF00000000007FFFF80
FFF00000000003FFFF80
FFF00000000001FFFF80
FFF00000000000FFFF80
FFF000000000007FFF80
FFF000000000003FFF80
FFF000000000001FFF80
FFF000000000000FFF00
FFF0000000000007FF00
FFF0000000000003FE00
FFF0000000000000F800
ENDCHAR
STARTCHAR o
ENCODING 111
SWIDTH 968 0
DWIDTH 94 0
BBX 86 71 4 0
BITMAP
0000000FFFFFFFC0000000
000000FFFFFFFFFE000000
000007FFFFFFFFFF800000
00003FFFFFFFFFFFF00000
0000FFFFFFFFFFFFFC0000
0001FFFFFFFFFFFFFE0000
0007FFFFFFFFFFFFFF8000
000FFFFFFFFFFFFFFFC000
001FFFFFFFFFFFFFFFE000
003FFFFFFFFFFFFFFFF000
007FFFFFFFFFFFFFFFF800
00FFFFFFFFFFFFFFFFFC00
01FFFFFF800007FFFFFE00
03FFFFE00000001FFFFF00
03FFFF8000000007FFFF00
07FFFE0000000001FFFF80
07FFF800000000007FFFC0
0FFFF000000000003FFFC0
1FFFE000000000001FFFE0
1FFFC000000000000FFFE0
1FFF80000000000007FFE0
3FFF00000000000003FFF0
3FFF00000000000003FFF0
3FFE00000000000001FFF0
7FFE00000000000001FFF8
7FFC00000000000000FFF8
7FFC00000000000000FFF8
7FFC000000000000007FF8
FFF8000000000000007FFC
FFF8000000000000007FFC
FFF8000000000000007FFC
FFF8000000000000007FFC
FFF8000000000000003FFC
FFF0000000000000003FFC
FFF0000000000000003FFC
FFF0000000000000003FFC
FFF0000000000000003FFC
FFF0000000000000003FFC
FFF8000000000000007FFC
FFF8000000000000007FFC
FFF8000000000000007FFC
7FF8000000000000007FF8
7FF8000000000000007FF8
7FFC00000000000000FFF8
7FFC00000000000000FFF8
7FFC00000000000000FFF8
3FFE00000000000001FFF0
3FFE00000000000001FFF0
3FFF00000000000003FFF0
1FFF80000000000007FFE0
1FFF80000000000007FFE0
0FFFC000000000000FFFC0
0FFFE000000000001FFFC0
07FFF000000000003FFF80
07FFF800000000007FFF80
03FFFE0000000001FFFF00
03FFFF8000000007FFFF00
01FFFFE00000001FFFFE00
00FFFFFF800007FFFFFC00
007FFFFFFFFFFFFFFFF800
003FFFFFFFFFFFFFFFF000
001FFFFFFFFFFFFFFFE000
000FFFFFFFFFFFFFFFC000
0007FFFFFFFFFFFFFF8000
0003FFFFFFFFFFFFFF0000
0000FFFFFFFFFFFFFC0000
00007FFFFFFFFFFFF80000
00001FFFFFFFFFFFE00000
000007FFFFFFFFFF800000
000000FFFFFFFFFC000000
0000000FFFFFFFC0000000
ENDCHAR
STARTCHAR p
ENCODING 112
SWIDTH 867 0
DWIDTH 84 0
BBX 75 71 6 0
BITMAP
FFFFFFFFFFFFFF000000
FFFFFFFFFFFFFFF00000
FFFFFFFFFFFFFFFC0000
FFFFFFFFFFFFFFFF0000
FFFFFFFFFFFFFFFFC000
FFFFFFFFFFFFFFFFE000
FFFFFFFFFFFFFFFFF000
FFFFFFFFFFFFFFFFF800
FFFFFFFFFFFFFFFFFC00
FFFFFFFFFFFFFFFFFE00
FFFFFFFFFFFFFFFFFF00
FFFFFFFFFFFFFFFFFF00
FFF0000000001FFFFF80
FFF00000000000FFFF80
FFF000000000003FFFC0
FFF000000000001FFFC0
FFF000000000000FFFC0
FFF0000000000007FFE0
FFF0000000000003FFE0
FFF0000000000003FFE0
FFF0000000000001FFE0
FFF0000000000001FFE0
FFF0000000000001FFE0
FFF0000000000001FFE0
FFF0000000000001FFE0
FFF0000000000001FFE0
FFF0000000000001FFE0
FFF0000000000001FFE0
FFF0000000000001FFE0
FFF0000000000001FFE0
FFF0000000000001FFE0
FFF0000000000003FFE0
FFF0000000000003FFE0
FFF0000000000007FFE0
FFF0000000000007FFC0
FFF000000000000FFFC0
FFF000000000003FFFC0
FFF000000000007FFF80
FFF00000000003FFFF80
FFF007FFFFFFFFFFFF00
FFF007FFFFFFFFFFFF00
FFF007FFFFFFFFFFFE00
FFF007FFFFFFFFFFFC00
FFF007FFFFFFFFFFF800
FFF007FFFFFFFFFFF000
FFF007FFFFFFFFFFE000
FFF007FFFFFFFFFFC000
FFF007FFFFFFFFFF0000
FFF007FFFFFFFFFE0000
FFF007FFFFFFFFF80000
FFF007FFFFFFFFC00000
FFF00000000000000000
FFF00000000000000000
FFF00000000000000000
FFF00000000000000000
FFF00000000000000000
FFF00000000000000000
FFF00000000000000000
FFF00000000000000000
FFF00000000000000000
FFF00000000000000000
FFF00000000000000000
FFF00000000000000000
FFF00000000000000000
FFF00000000000000000
FFF00000000000000000
FFF00000000000000000
FFF00000000000000000
FFF00000000000000000
FFF00000000000000000
FFF00000000000000000
ENDCHAR
STARTCHAR q
ENCODING 113
SWIDTH 968 0
DWIDTH 94 0
BBX 90 71 4 0
BITMAP
0000000FFFFFFFC000000000
000000FFFFFFFFFE00000000
000007FFFFFFFFFF80000000
00003FFFFFFFFFFFF0000000
0000FFFFFFFFFFFFFC000000
0001FFFFFFFFFFFFFE000000
0007FFFFFFFFFFFFFF800000
000FFFFFFFFFFFFFFFC00000
001FFFFFFFFFFFFFFFE00000
003FFFFFFFFFFFFFFFF00000
007FFFFFFFFFFFFFFFF80000
00FFFFFFFFFFFFFFFFFC0000
01FFFFFF800007FFFFFE0000
03FFFFE00000001FFFFF0000
03FFFF8000000007FFFF0000
07FFFE0000000001FFFF8000
07FFF800000000007FFFC000
0FFFF000000000003FFFC000
1FFFE000000000001FFFE000
1FFFC000000000000FFFE000
1FFF80000000000007FFE000
3FFF00000000000003FFF000
3FFF00000000000003FFF000
3FFE00000000000001FFF000
7FFE00000000000001FFF800
7FFC00000000000000FFF800
7FFC00000000000000FFF800
7FFC000000000000007FF800
FFF8000000000000007FFC00
FFF8000000000000007FFC00
FFF8000000000000007FFC00
FFF8000000000000007FFC00
FFF8000000000000003FFC00
FFF0000000000000003FFC00
FFF0000000000000003FFC00
FFF0000000000000003FFC00
FFF0000000000000003FFC00
FFF0000000000000003FFC00
FFF8000000000000007FFC00
FFF8000000000000007FFC00
FFF8000000000000007FFC00
7FF8000004000000007FF800
7FF8000003FFFC00007FF800
7FFC000001FFFF0000FFF800
7FFC0000007FFF8000FFF800
7FFC0000003FFFC000FFF800
3FFE0000001FFFE001FFF000
3FFE00000007FFF001FFF000
3FFF00000003FFFC03FFF000
1FFF80000001FFFE07FFE000
1FFF80000000FFFF07FFE000
0FFFC00000003FFF8FFFC000
0FFFE00000001FFFDFFFC000
07FFF00000000FFFFFFF8000
07FFF800000007FFFFFF8000
03FFFE00000001FFFFFF0000
03FFFF80000000FFFFFF0000
01FFFFE00000007FFFFE0000
00FFFFFF800007FFFFFC0000
007FFFFFFFFFFFFFFFF80000
003FFFFFFFFFFFFFFFF00000
001FFFFFFFFFFFFFFFF80000
000FFFFFFFFFFFFFFFFE0000
0007FFFFFFFFFFFFFFFF0000
0003FFFFFFFFFFFFFFFF8000
0000FFFFFFFFFFFFFFFFC000
00007FFFFFFFFFFFFFFFF000
00001FFFFFFFFFFFE7FFF800
000007FFFFFFFFFF83FFFC00
000000FFFFFFFFFC01FFFF00
0000000FFFFFFF80007FFFC0
ENDCHAR
STARTCHAR r
ENCODING 114
SWIDTH 921 0
DWIDTH 89 0
BBX 83 71 6 0
BITMAP
FFFFFFFFFFFFFF80000000
FFFFFFFFFFFFFFF8000000
FFFFFFFFFFFFFFFE000000
FFFFFFFFFFFFFFFF800000
FFFFFFFFFFFFFFFFE00000
FFFFFFFFFFFFFFFFF00000
FFFFFFFFFFFFFFFFF80000
FFFFFFFFFFFFFFFFFC0000
FFFFFFFFFFFFFFFFFE0000
FFFFFFFFFFFFFFFFFF0000
FFFFFFFFFFFFFFFFFF0000
FFFFFFFFFFFFFFFFFF8000
FFF0000000000FFFFFC000
FFF000000000007FFFC000
FFF000000000001FFFC000
FFF000000000000FFFE000
FFF0000000000007FFE000
FFF0000000000003FFE000
FFF0000000000001FFF000
FFF0000000000001FFF000
FFF0000000000000FFF000
FFF0000000000000FFF000
FFF0000000000000FFF000
FFF0000000000000FFF000
FFF0000000000000FFF000
FFF0000000000000FFF000
FFF0000000000000FFF000
FFF0000000000000FFF000
FFF0000000000000FFF000
FFF0000000000000FFF000
FFF0000000000000FFF000
FFF0000000000001FFF000
FFF0000000000001FFF000
FFF0000000000001FFE000
FFF0000000000003FFE000
FFF0000000000003FFE000
FFF0000000000007FFE000
FFF000000000000FFFC000
FFF000000000003FFFC000
FFF00000000001FFFF8000
FFF007FFFFFFFFFFFF8000
FFF007FFFFFFFFFFFF0000
FFF007FFFFFFFFFFFE0000
FFF007FFFFFFFFFFFC0000
FFF007FFFFFFFFFFF80000
FFF007FFFFFFFFFFF00000
FFF007FFFFFFFFFFE00000
FFF007FFFFFFFFFF800000
FFF007FFFFFFFFFE000000
FFF007FFFFFFFFFC000000
FFF007FFFFFFFFFE000000
FFF000000000FFFF000000
FFF0000000007FFF800000
FFF0000000003FFFC00000
FFF0000000001FFFE00000
FFF0000000000FFFF00000
FFF00000000007FFF80000
FFF00000000003FFFC0000
FFF00000000003FFFE0000
FFF00000000001FFFF0000
FFF00000000000FFFF8000
FFF000000000007FFFC000
FFF000000000003FFFE000
FFF000000000001FFFF000
FFF000000000000FFFF800
FFF0000000000007FFFC00
FFF0000000000003FFFE00
FFF0000000000003FFFF00
FFF0000000000001FFFF80
FFF0000000000000FFFFC0
FFF00000000000007FFFE0
ENDCHAR
STARTCHAR s
ENCODING 115
SWIDTH 880 0
DWIDTH 85 0
BBX 76 71 5 0
BITMAP
0000FFFFFFFFFFFFFF00
000FFFFFFFFFFFFFFF00
003FFFFFFFFFFFFFFF00
00FFFFFFFFFFFFFFFF00
01FFFFFFFFFFFFFFFF00
03FFFFFFFFFFFFFFFF00
07FFFFFFFFFFFFFFFF00
0FFFFFFFFFFFFFFFFF00
1FFFFFFFFFFFFFFFFF00
1FFFFFFFFFFFFFFFFF00
3FFFFFFFFFFFFFFFFF00
3FFFFFFFFFFFFFFFFF00
7FFFF000000000000000
7FFF8000000000000000
7FFE0000000000000000
FFFC0000000000000000
FFFC0000000000000000
FFF80000000000000000
FFF80000000000000000
FFF80000000000000000
FFF80000000000000000
FFF80000000000000000
FFF80000000000000000
FFF80000000000000000
FFF80000000000000000
7FFC0000000000000000
7FFC0000000000000000
7FFE0000000000000000
3FFF0000000000000000
3FFFC000000000000000
1FFFFFFFFFFFFFF00000
1FFFFFFFFFFFFFFF0000
0FFFFFFFFFFFFFFFE000
07FFFFFFFFFFFFFFF000
03FFFFFFFFFFFFFFFC00
01FFFFFFFFFFFFFFFE00
007FFFFFFFFFFFFFFF00
003FFFFFFFFFFFFFFF00
0007FFFFFFFFFFFFFF80
0000FFFFFFFFFFFFFFC0
000000000000003FFFC0
000000000000000FFFE0
0000000000000003FFE0
0000000000000001FFE0
0000000000000001FFE0
0000000000000000FFF0
0000000000000000FFF0
0000000000000000FFF0
0000000000000000FFF0
0000000000000000FFF0
0000000000000000FFF0
0000000000000000FFF0
0000000000000000FFF0
0000000000000001FFF0
0000000000000001FFF0
0000000000000003FFE0
0000000000000007FFE0
000000000000001FFFE0
00000000000000FFFFE0
7FFFFFFFFFFFFFFFFFC0
7FFFFFFFFFFFFFFFFFC0
7FFFFFFFFFFFFFFFFF80
7FFFFFFFFFFFFFFFFF80
7FFFFFFFFFFFFFFFFF00
7FFFFFFFFFFFFFFFFE00
7FFFFFFFFFFFFFFFFC00
7FFFFFFFFFFFFFFFF800
7FFFFFFFFFFFFFFFF000
7FFFFFFFFFFFFFFFC000
7FFFFFFFFFFFFFFF0000
7FFFFFFFFFFFFFF00000
ENDCHAR
STARTCHAR t
ENCODING 116
SWIDTH 720 0
DWIDTH 70 0
BBX 66 71 2 0
BITMAP
FFFFFFFFFFFFFFFFC0
FFFFFFFFFFFFFFFFC0
FFFFFFFFFFFFFFFFC0
FFFFFFFFFFFFFFFFC0
FFFFFFFFFFFFFFFFC0
FFFFFFFFFFFFFFFFC0
FFFFFFFFFFFFFFFFC0
FFFFFFFFFFFFFFFFC0
FFFFFFFFFFFFFFFFC0
FFFFFFFFFFFFFFFFC0
FFFFFFFFFFFFFFFFC0
FFFFFFFFFFFFFFFFC0
0000001FFE00000000
0000001FFE00000000
0000001FFE00000000
0000001FFE00000000
0000001FFE00000000
0000001FFE00000000
0000001FFE00000000
0000001FFE00000000
0000001FFE00000000
0000001FFE00000000
0000001FFE00000000
0000001FFE00000000
0000001FFE00000000
0000001FFE00000000
0000001FFE00000000
0000001FFE00000000
0000001FFE00000000
0000001FFE00000000
0000001FFE00000000
0000001FFE00000000
0000001FFE00000000
0000001FFE00000000
0000001FFE00000000
0000001FFE00000000
0000001FFE00000000
0000001FFE00000000
0000001FFE00000000
0000001FFE00000000
0000001FFE00000000
0000001FFE00000000
0000001FFE00000000
0000001FFE00000000
0000001FFE00000000
0000001FFE00000000
0000001FFE00000000
0000001FFE00000000
0000001FFE00000000
0000001FFE00000000
0000001FFE00000000
0000001FFE00000000
0000001FFE00000000
0000001FFE00000000
0000001FFE00000000
0000001FFE00000000
0000001FFE00000000
0000001FFE00000000
0000001FFE00000000
0000001FFE00000000
0000001FFE00000000
0000001FFE00000000
0000001FFE00000000
0000001FFE00000000
0000001FFE00000000
0000001FFE00000000
0000001FFE00000000
0000001FFE00000000
0000001FFE00000000
0000001FFE00000000
0000001FFE00000000
ENDCHAR
STARTCHAR u
ENCODING 117
SWIDTH 889 0
DWIDTH 86 0
BBX 76 72 5 -1
BITMAP
FFF8000000000000FFF0
FFF8000000000000FFF0
FFF8000000000000FFF0
FFF8000000000000FFF0
FFF8000000000000FFF0
FFF8000000000000FFF0
FFF8000000000000FFF0
FFF8000000000000FFF0
FFF8000000000000FFF0
FFF8000000000000FFF0
FFF8000000000000FFF0
FFF8000000000000FFF0
FFF8000000000000FFF0
FFF8000000000000FFF0
FFF8000000000000FFF0
FFF8000000000000FFF0
FFF8000000000000FFF0
FFF8000000000000FFF0
FFF8000000000000FFF0
FFF8000000000000FFF0
FFF8000000000000FFF0
FFF8000000000000FFF0
FFF8000000000000FFF0
FFF8000000000000FFF0
FFF8000000000000FFF0
FFF8000000000000FFF0
FFF8000000000000FFF0
FFF8000000000000FFF0
FFF8000000000000FFF0
FFF8000000000000FFF0
FFF8000000000000FFF0
FFF8000000000000FFF0
FFF8000000000000FFF0
FFF8000000000000FFF0
FFF8000000000000FFF0
FFF8000000000000FFF0
FFF8000000000000FFF0
FFF8000000000000FFF0
FFF8000000000000FFF0
FFF8000000000000FFF0
FFF8000000000000FFF0
FFF8000000000000FFF0
FFF8000000000000FFF0
FFF8000000000000FFF0
FFF8000000000000FFF0
FFF8000000000000FFF0
FFF8000000000001FFF0
7FFC000000000001FFF0
7FFC000000000001FFE0
7FFC000000000001FFE0
7FFE000000000003FFE0
7FFE000000000003FFE0
3FFF000000000007FFE0
3FFF80000000000FFFC0
3FFFC0000000001FFFC0
1FFFE0000000003FFF80
1FFFF800000000FFFF80
0FFFFE00000003FFFF80
0FFFFFC000001FFFFF00
07FFFFFFF07FFFFFFE00
03FFFFFFFFFFFFFFFE00
03FFFFFFFFFFFFFFFC00
01FFFFFFFFFFFFFFF800
00FFFFFFFFFFFFFFF000
007FFFFFFFFFFFFFE000
001FFFFFFFFFFFFFC000
000FFFFFFFFFFFFF0000
0003FFFFFFFFFFFC0000
0000FFFFFFFFFFF00000
00001FFFFFFFFF800000
000003FFFFFFFC000000
0000000FFFFF00000000
ENDCHAR
STARTCHAR v
ENCODING 118
SWIDTH 989 0
DWIDTH 96 0
BBX 93 72 1 -1
BITMAP
FFFF0000000000000001FFF8
7FFF0000000000000003FFF8
3FFF8000000000000003FFF0
3FFF8000000000000007FFE0
1FFFC000000000000007FFE0
0FFFE00000000000000FFFC0
0FFFE00000000000000FFFC0
07FFF00000000000001FFF80
07FFF00000000000003FFF00
03FFF80000000000003FFF00
01FFFC0000000000007FFE00
01FFFC0000000000007FFE00
00FFFE000000000000FFFC00
00FFFE000000000001FFF800
007FFF000000000001FFF800
003FFF000000000003FFF000
003FFF800000000003FFF000
001FFFC00000000007FFE000
001FFFC00000000007FFC000
000FFFE0000000000FFFC000
0007FFE0000000001FFF8000
0007FFF0000000001FFF8000
0003FFF8000000003FFF0000
0003FFF8000000003FFE0000
0001FFFC000000007FFE0000
0000FFFC00000000FFFC0000
0000FFFE00000000FFFC0000
00007FFE00000001FFF80000
00007FFF00000001FFF00000
00003FFF80000003FFF00000
00001FFF80000003FFE00000
00001FFFC0000007FFE00000
00000FFFC000000FFFC00000
00000FFFE000000FFF800000
000007FFF000001FFF800000
000003FFF000001FFF000000
000003FFF800003FFF000000
000001FFF800007FFE000000
000001FFFC00007FFC000000
000000FFFE0000FFFC000000
0000007FFE0000FFF8000000
0000007FFF0001FFF8000000
0000003FFF0001FFF0000000
0000003FFF8003FFE0000000
0000001FFF8007FFE0000000
0000001FFFC007FFC0000000
0000000FFFE00FFFC0000000
00000007FFE00FFF80000000
00000007FFF01FFF80000000
00000003FFF03FFF00000000
00000003FFF83FFE00000000
00000001FFFC7FFE00000000
00000000FFFC7FFC00000000
00000000FFFEFFFC00000000
000000007FFEFFF800000000
000000007FFFFFF000000000
000000003FFFFFF000000000
000000001FFFFFE000000000
000000001FFFFFE000000000
000000000FFFFFC000000000
000000000FFFFF8000000000
0000000007FFFF8000000000
0000000003FFFF0000000000
0000000003FFFF0000000000
0000000001FFFE0000000000
0000000001FFFC0000000000
0000000000FFFC0000000000
00000000007FF80000000000
00000000007FF80000000000
00000000003FF00000000000
00000000001FE00000000000
00000000000F800000000000
ENDCHAR
STARTCHAR w
ENCODING 119
SWIDTH 1268 0
DWIDTH 123 0
BBX 121 72 1 -1
BITMAP
FFFE00000FFFE00000000000003FFF80
7FFF000007FFF00000000000003FFF00
3FFF000007FFF00000000000007FFE00
3FFF800003FFF80000000000007FFE00
1FFF800003FFF8000000000000FFFC00
1FFFC00001FFFC000000000000FFFC00
0FFFE00001FFFC000000000001FFF800
0FFFE00000FFFE000000000001FFF800
07FFF00000FFFE000000000003FFF000
07FFF000007FFF000000000003FFE000
03FFF800007FFF000000000007FFE000
01FFF800003FFF800000000007FFC000
01FFFC00003FFF80000000000FFFC000
00FFFC00001FFFC0000000000FFF8000
00FFFE00001FFFC0000000001FFF8000
007FFE00000FFFE0000000001FFF0000
007FFF000007FFE0000000003FFF0000
003FFF000007FFF0000000003FFE0000
003FFF800003FFF0000000007FFE0000
001FFF800003FFF8000000007FFC0000
001FFFC00001FFF800000000FFFC0000
000FFFC00001FFFC00000001FFF80000
000FFFE00000FFFC00000001FFF80000
0007FFE00000FFFE00000003FFF00000
0007FFF000007FFE00000003FFE00000
0003FFF000007FFF00000007FFE00000
0001FFF800003FFF00000007FFC00000
0001FFF800003FFF8000000FFFC00000
0000FFFC00001FFF8000000FFF800000
0000FFFE00001FFFC000001FFF800000
00007FFE00000FFFC000001FFF000000
00007FFF00000FFFE000003FFF000000
00003FFF000007FFE000003FFE000000
00003FFF800007FFF000007FFE000000
00001FFF800003FFF000007FFC000000
00001FFFC00003FFF80000FFFC000000
00000FFFC00003FFF80000FFF8000000
00000FFFE00007FFFC0001FFF0000000
000007FFE00007FFFC0001FFF0000000
000003FFF0000FFFFE0003FFE0000000
000003FFF0001FFFFE0007FFE0000000
000001FFF8001FFFFF0007FFC0000000
000001FFF8003FFFFF000FFFC0000000
000000FFFC003FFFFF800FFF80000000
000000FFFC007FFFFF801FFF80000000
0000007FFE007FFFFFC01FFF00000000
0000007FFE00FFFFFFC03FFF00000000
0000003FFF00FFF7FFE03FFE00000000
0000003FFF01FFF7FFE07FFE00000000
0000001FFF83FFE3FFF07FFC00000000
0000001FFF83FFE3FFF0FFFC00000000
0000000FFFC7FFC1FFF8FFF800000000
0000000FFFE7FFC1FFF9FFF000000000
00000007FFEFFF80FFFDFFF000000000
00000003FFFFFF80FFFFFFE000000000
00000003FFFFFF007FFFFFE000000000
00000001FFFFFF007FFFFFC000000000
00000001FFFFFE003FFFFFC000000000
00000000FFFFFE003FFFFF8000000000
00000000FFFFFC001FFFFF8000000000
000000007FFFFC001FFFFF0000000000
000000007FFFF8000FFFFF0000000000
000000003FFFF0000FFFFE0000000000
000000003FFFF00007FFFE0000000000
000000001FFFE00007FFFC0000000000
000000001FFFE00003FFF80000000000
000000000FFFC00001FFF80000000000
0000000007FFC00001FFF00000000000
0000000007FF800000FFF00000000000
0000000003FF800000FFE00000000000
0000000001FF0000007FC00000000000
0000000000FC0000001F000000000000
ENDCHAR
STARTCHAR x
ENCODING 120
SWIDTH 1000 0
DWIDTH 97 0
BBX 92 71 2 0
BITMAP
1FFFF00000000000007FFF80
0FFFF8000000000000FFFF00
07FFFC000000000001FFFE00
03FFFE000000000003FFFC00
01FFFF000000000007FFF800
00FFFF80000000000FFFF000
003FFFC0000000001FFFE000
001FFFF0000000003FFF8000
000FFFF8000000007FFF0000
0007FFFC00000000FFFE0000
0003FFFE00000001FFFC0000
0001FFFF00000003FFF80000
0000FFFF80000007FFF00000
00007FFFC000000FFFE00000
00003FFFE000001FFFC00000
00001FFFF000003FFF800000
00000FFFF800007FFF000000
000007FFFC0000FFFE000000
000003FFFE0001FFFC000000
000001FFFF0007FFF8000000
000000FFFF800FFFF0000000
0000007FFFC01FFFE0000000
0000003FFFE03FFFC0000000
0000001FFFF07FFF80000000
0000000FFFF8FFFF00000000
00000007FFFDFFFE00000000
00000003FFFFFFFC00000000
00000001FFFFFFF800000000
00000000FFFFFFF000000000
000000007FFFFFE000000000
000000003FFFFFC000000000
000000001FFFFF8000000000
000000000FFFFF0000000000
0000000007FFFE0000000000
0000000003FFFE0000000000
000000000FFFFF0000000000
000000001FFFFF8000000000
000000003FFFFFC000000000
000000007FFFFFE000000000
00000000FFFFFFF000000000
00000001FFFFFFF800000000
00000003FFFFFFFC00000000
00000007FFFBFFFE00000000
0000000FFFF1FFFF00000000
0000001FFFE0FFFF80000000
0000003FFFC07FFFC0000000
0000007FFF803FFFE0000000
000000FFFF001FFFF0000000
000001FFFE000FFFF8000000
000003FFFC0007FFFC000000
000007FFF80003FFFE000000
00000FFFF00001FFFF000000
00001FFFE00000FFFF800000
00003FFFC000007FFFC00000
00007FFF8000003FFFE00000
0000FFFF0000001FFFF00000
0001FFFE0000000FFFF80000
0003FFFC00000007FFFC0000
0007FFF800000003FFFE0000
000FFFF000000001FFFF0000
001FFFE000000000FFFF8000
003FFFC0000000007FFFC000
007FFF80000000003FFFE000
00FFFF00000000001FFFF800
01FFFE00000000000FFFFC00
03FFFC000000000007FFFE00
07FFF8000000000003FFFF00
0FFFF0000000000001FFFF80
1FFFE0000000000000FFFFC0
3FFFC00000000000007FFFE0
FFFF800000000000003FFFF0
ENDCHAR
STARTCHAR y
ENCODING 121
SWIDTH 926 0
DWIDTH 90 0
BBX 88 71 1 0
BITMAP
FFFF80000000000001FFFF
3FFFC0000000000001FFFC
3FFFE0000000000003FFF8
1FFFF0000000000007FFF8
0FFFF800000000000FFFF0
07FFF800000000001FFFE0
03FFFC00000000003FFFC0
01FFFE00000000003FFF80
01FFFF00000000007FFF00
00FFFF8000000000FFFE00
007FFFC000000001FFFE00
003FFFE000000003FFFC00
001FFFE000000007FFF800
000FFFF00000000FFFF000
0007FFF80000000FFFE000
0007FFFC0000001FFFC000
0003FFFE0000003FFFC000
0001FFFF0000007FFF8000
0000FFFF000000FFFF0000
00007FFF800001FFFE0000
00003FFFC00001FFFC0000
00001FFFE00003FFF80000
00001FFFF00007FFF00000
00000FFFF8000FFFF00000
000007FFF8001FFFE00000
000003FFFC003FFFC00000
000001FFFE003FFF800000
000000FFFF007FFF000000
000000FFFF80FFFE000000
0000007FFFC1FFFC000000
0000003FFFC3FFFC000000
0000001FFFE7FFF8000000
0000000FFFFFFFF0000000
00000007FFFFFFE0000000
00000003FFFFFFC0000000
00000003FFFFFF80000000
00000001FFFFFF00000000
00000000FFFFFF00000000
000000007FFFFE00000000
000000003FFFFC00000000
000000001FFFF800000000
000000000FFFF000000000
000000000FFFE000000000
0000000007FFE000000000
0000000003FFC000000000
0000000003FFC000000000
0000000003FFC000000000
0000000003FFC000000000
0000000003FFC000000000
0000000003FFC000000000
0000000003FFC000000000
0000000003FFC000000000
0000000003FFC000000000
0000000003FFC000000000
0000000003FFC000000000
0000000003FFC000000000
0000000003FFC000000000
0000000003FFC000000000
0000000003FFC000000000
0000000003FFC000000000
0000000003FFC000000000
0000000003FFC000000000
0000000003FFC000000000
0000000003FFC000000000
0000000003FFC000000000
0000000003FFC000000000
0000000003FFC000000000
0000000003FFC000000000
0000000003FFC000000000
0000000003FFC000000000
0000000003FFC000000000
ENDCHAR
STARTCHAR z
ENCODING 122
SWIDTH 802 0
DWIDTH 78 0
BBX 69 71 4 0
BITMAP
7FFFFFFFFFFFFFFF80
7FFFFFFFFFFFFFFFE0
7FFFFFFFFFFFFFFFF0
7FFFFFFFFFFFFFFFF8
7FFFFFFFFFFFFFFFF8
7FFFFFFFFFFFFFFFF8
7FFFFFFFFFFFFFFFF8
7FFFFFFFFFFFFFFFF8
7FFFFFFFFFFFFFFFF8
7FFFFFFFFFFFFFFFF0
7FFFFFFFFFFFFFFFF0
7FFFFFFFFFFFFFFFE0
0000000000007FFFC0
000000000000FFFF80
000000000001FFFF00
000000000003FFFE00
000000000007FFFC00
00000000000FFFF800
00000000001FFFF000
00000000003FFFE000
00000000007FFFC000
0000000000FFFF8000
0000000001FFFF0000
0000000003FFFE0000
0000000007FFFC0000
000000000FFFF80000
000000001FFFF00000
000000003FFFE00000
000000007FFFC00000
00000000FFFF800000
00000001FFFF000000
00000003FFFE000000
00000007FFFC000000
0000000FFFF8000000
0000001FFFF0000000
0000003FFFE0000000
0000007FFFC0000000
000000FFFF80000000
000001FFFF00000000
000003FFFE00000000
000007FFFC00000000
00000FFFF800000000
00001FFFF000000000
00003FFFE000000000
00007FFFC000000000
0000FFFF8000000000
0001FFFF0000000000
0003FFFE0000000000
0007FFFC0000000000
000FFFF80000000000
001FFFF00000000000
003FFFE00000000000
007FFFC00000000000
00FFFF800000000000
01FFFF000000000000
03FFFE000000000000
07FFFC000000000000
0FFFF8000000000000
1FFFF0000000000000
3FFFFFFFFFFFFFFFF8
7FFFFFFFFFFFFFFFF8
7FFFFFFFFFFFFFFFF8
FFFFFFFFFFFFFFFFF8
FFFFFFFFFFFFFFFFF8
FFFFFFFFFFFFFFFFF8
FFFFFFFFFFFFFFFFF8
FFFFFFFFFFFFFFFFF8
FFFFFFFFFFFFFFFFF8
7FFFFFFFFFFFFFFFF8
3FFFFFFFFFFFFFFFF8
0FFFFFFFFFFFFFFFF8
ENDCHAR
STARTCHAR braceleft
ENCODING 123
SWIDTH 337 0
DWIDTH 33 0
BBX 20 89 6 -9
BITMAP
000FF0
003FF0
00FFF0
01FFF0
01FFF0
03FFF0
03FFF0
07FF80
07FE00
07FC00
07FC00
07F800
07F800
07F800
07F800
07F800
07F800
07F800
07F800
07F800
07F800
07F800
07F800
07F800
07F800
07F800
07F800
07F800
07F800
07F800
07F800
07F800
07F800
07F800
07F800
07F800
07F800
07F800
07F800
07F800
0FF800
FFF000
FFF000
FFE000
FFC000
FFE000
FFF000
FFF000
0FF800
07F800
07F800
07F800
07F800
07F800
07F800
07F800
07F800
07F800
07F800
07F800
07F800
07F800
07F800
07F800
07F800
07F800
07F800
07F800
07F800
07F800
07F800
07F800
07F800
07F800
07F800
07F800
07F800
07F800
07F800
07FC00
07FE00
07FF80
03FFF0
03FFF0
01FFF0
01FFF0
00FFF0
003FF0
000FF0
ENDCHAR
STARTCHAR bar
ENCODING 124
SWIDTH 297 0
DWIDTH 29 0
BBX 7 89 11 -9
BITMAP
FE
FE
FE
FE
FE
FE
FE
FE
FE
FE
FE
FE
FE
FE
FE
FE
FE
FE
FE
FE
FE
FE
FE
FE
FE
FE
FE
FE
FE
FE
FE
FE
FE
FE
FE
FE
FE
FE
FE
FE
FE
FE
FE
FE
FE
FE
FE
FE
FE
FE
FE
FE
FE
FE
FE
FE
FE
FE
FE
FE
FE
FE
FE
FE
FE
FE
FE
FE
FE
FE
FE
FE
FE
FE
FE
FE
FE
FE
FE
FE
FE
FE
FE
FE
FE
FE
FE
FE
FE
ENDCHAR
STARTCHAR braceright
ENCODING 125
SWIDTH 337 0
DWIDTH 33 0
BBX 20 89 6 -9
BITMAP
FF0000
FFE000
FFF000
FFF800
FFFC00
FFFC00
FFFE00
0FFE00
07FE00
03FE00
01FE00
01FF00
01FF00
01FF00
01FF00
01FF00
01FF00
01FF00
01FF00
01FF00
01FF00
01FF00
01FF00
01FF00
01FF00
01FF00
01FF00
01FF00
01FF00
01FF00
01FF00
01FF00
01FF00
01FF00
01FF00
01FF00
01FF00
01FF00
00FF00
00FF00
00FF80
00FFF0
007FF0
007FF0
001FF0
003FF0
007FF0
00FFF0
00FF80
00FF00
00FF00
01FF00
01FF00
01FF00
01FF00
01FF00
01FF00
01FF00
01FF00
01FF00
01FF00
01FF00
01FF00
01FF00
01FF00
01FF00
01FF00
01FF00
01FF00
01FF00
01FF00
01FF00
01FF00
01FF00
01FF00
01FF00
01FF00
01FF00
01FF00
01FE00
03FE00
0FFE00
FFFE00
FFFC00
FFFC00
FFF800
FFF000
FFE000
FF0000
ENDCHAR
STARTCHAR asciitilde
ENCODING 126
SWIDTH 691 0
DWIDTH 67 0
BBX 55 15 6 29
BITMAP
007FE000000000
03FFFC00000002
0FFFFF80000006
1FFFFFF000000E
7FFFFFFC00003E
FFFFFFFF8000FE
FFFFFFFFF007FE
FFFFFFFFFFFFFE
FFC01FFFFFFFFE
FE0003FFFFFFFE
F800007FFFFFFC
E000000FFFFFF8
C0000003FFFFE0
800000007FFF80
000000000FFC00
ENDCHAR
STARTCHAR nonbreakingspace
ENCODING 160
SWIDTH 294 0
DWIDTH 29 0
BBX 1 1 0 0
BITMAP
00
ENDCHAR
STARTCHAR exclamdown
ENCODING 161
SWIDTH 298 0
DWIDTH 29 0
BBX 13 71 8 0
BITMAP
0F80
3FE0
7FF0
7FF8
FFF8
FFF8
FFF8
FFF8
FFF8
7FF8
7FF0
3FE0
0F80
0000
0000
0000
0000
0000
0000
0000
0000
0000
0000
7FF8
7FF8
7FF8
7FF8
7FF8
7FF8
7FF8
7FF8
7FF8
7FF8
7FF8
7FF8
7FF8
7FF8
7FF8
7FF8
7FF8
7FF8
7FF8
7FF8
7FF8
7FF8
7FF8
7FF8
7FF8
7FF8
7FF8
7FF8
7FF8
7FF8
7FF8
7FF8
7FF8
7FF8
7FF8
7FF8
7FF8
7FF8
7FF8
7FF8
7FF8
7FF8
7FF8
7FF8
7FF8
7FF8
7FF8
7FF8
ENDCHAR
STARTCHAR cent
ENCODING 162
SWIDTH 692 0
DWIDTH 67 0
BBX 58 71 4 0
BITMAP
000000001F000000
000000001F000000
000000001F000000
000000001F000000
000000001F000000
000000001F000000
000000001F000000
000003FFFFFFFFC0
00003FFFFFFFFFC0
0001FFFFFFFFFFC0
0007FFFFFFFFFFC0
000FFFFFFFFFFFC0
003FFFFFFFFFFFC0
007FFFFFFFFFFFC0
00FFFFFFFFFFFFC0
01FFFFFFFFFFFFC0
03FFFFFFFFFFFFC0
07FFFE001F000000
07FFF0001F000000
0FFFC0001F000000
1FFF80001F000000
1FFF00001F000000
3FFE00001F000000
3FFC00001F000000
3FF800001F000000
7FF000001F000000
7FF000001F000000
7FE000001F000000
7FE000001F000000
FFE000001F000000
FFE000001F000000
FFC000001F000000
FFC000001F000000
FFC000001F000000
FFC000001F000000
FFC000001F000000
FFC000001F000000
FFC000001F000000
FFC000001F000000
FFC000001F000000
FFE000001F000000
7FE000001F000000
7FE000001F000000
7FF000001F000000
7FF000001F000000
3FF800001F000000
3FF800001F000000
3FFC00001F000000
1FFE00001F000000
1FFF00001F000000
0FFF80001F000000
07FFC0001F000000
07FFF0001F000000
03FFFE001F000000
01FFFFFFFFFFFFC0
00FFFFFFFFFFFFC0
007FFFFFFFFFFFC0
003FFFFFFFFFFFC0
001FFFFFFFFFFFC0
000FFFFFFFFFFFC0
0003FFFFFFFFFFC0
0000FFFFFFFFFFC0
00003FFFFFFFFFC0
000003FFFFFFFFC0
000000001F000000
000000001F000000
000000001F000000
000000001F000000
000000001F000000
000000001F000000
000000001F000000
ENDCHAR
STARTCHAR sterling
ENCODING 163
SWIDTH 709 0
DWIDTH 69 0
BBX 62 71 3 0
BITMAP
000000FFFFFFF000
000007FFFFFFF000
00001FFFFFFFF000
00007FFFFFFFF000
0001FFFFFFFFF000
0003FFFFFFFFF000
0007FFFFFFFFF000
000FFFFFFFFFF000
000FFFFFFFFFF000
001FFFFFFFFFF000
001FFFFFFFFFF000
003FFFFFFFFFF000
003FFFFC00000000
007FFFC000000000
007FFF0000000000
007FFC0000000000
007FFC0000000000
007FF80000000000
007FF80000000000
00FFF00000000000
00FFF00000000000
00FFF00000000000
00FFF00000000000
00FFF00000000000
00FFF00000000000
00FFF00000000000
00FFF00000000000
00FFF00000000000
00FFF00000000000
00FFF00000000000
0FFFFFFFFF000000
0FFFFFFFFF000000
0FFFFFFFFF000000
0FFFFFFFFF000000
0FFFFFFFFF000000
0FFFFFFFFF000000
0FFFFFFFFF000000
0FFFFFFFFF000000
0FFFFFFFFF000000
00FFF00000000000
00FFF00000000000
00FFF00000000000
00FFF00000000000
00FFF00000000000
00FFF00000000000
00FFF00000000000
00FFF00000000000
00FFF00000000000
00FFF00000000000
00FFF00000000000
00FFF00000000000
00FFF00000000000
00FFF00000000000
00FFF00000000000
00FFF00000000000
00FFF00000000000
00FFF00000000000
00FFF00000000000
00FFF00000000000
FFFFFFFFFFFFFFFC
FFFFFFFFFFFFFFFC
FFFFFFFFFFFFFFFC
FFFFFFFFFFFFFFFC
FFFFFFFFFFFFFFFC
FFFFFFFFFFFFFFFC
FFFFFFFFFFFFFFFC
FFFFFFFFFFFFFFFC
FFFFFFFFFFFFFFFC
FFFFFFFFFFFFFFFC
FFFFFFFFFFFFFFFC
FFFFFFFFFFFFFFFC
ENDCHAR
STARTCHAR yen
ENCODING 165
SWIDTH 787 0
DWIDTH 76 0
BBX 72 71 2 0
BITMAP
FFFE00000000007FFF
7FFF0000000000FFFE
7FFF0000000000FFFC
3FFF8000000001FFFC
1FFF8000000001FFF8
1FFFC000000003FFF0
0FFFE000000007FFF0
07FFE000000007FFE0
07FFF00000000FFFC0
03FFF80000000FFFC0
01FFF80000001FFF80
01FFFC0000003FFF00
00FFFC0000003FFF00
007FFE0000007FFE00
007FFF0000007FFE00
003FFF000000FFFC00
001FFF800001FFF800
001FFFC00001FFF800
000FFFC00003FFF000
0007FFE00007FFE000
0007FFE00007FFE000
0003FFF0000FFFC000
0001FFF8000FFF8000
0001FFF8001FFF8000
0000FFFC003FFF0000
00007FFE003FFE0000
00007FFE007FFE0000
00003FFF007FFC0000
00003FFF00FFFC0000
00001FFF81FFF80000
00000FFFC1FFF00000
00000FFFC3FFF00000
000007FFE3FFE00000
000003FFF7FFC00000
000003FFFFFFC00000
000001FFFFFF800000
000000FFFFFF000000
000000FFFFFF000000
0000007FFFFE000000
003FFFFFFFFFFFFE00
003FFFFFFFFFFFFE00
003FFFFFFFFFFFFE00
003FFFFFFFFFFFFE00
003FFFFFFFFFFFFE00
003FFFFFFFFFFFFE00
003FFFFFFFFFFFFE00
003FFFFFFFFFFFFE00
00000003FFC0000000
00000003FFC0000000
00000003FFC0000000
00000003FFC0000000
00000003FFC0000000
00000003FFC0000000
00000003FFC0000000
00000003FFC0000000
00000003FFC0000000
003FFFFFFFFFFFFE00
003FFFFFFFFFFFFE00
003FFFFFFFFFFFFE00
003FFFFFFFFFFFFE00
003FFFFFFFFFFFFE00
003FFFFFFFFFFFFE00
003FFFFFFFFFFFFE00
003FFFFFFFFFFFFE00
00000003FFC0000000
00000003FFC0000000
00000003FFC0000000
00000003FFC0000000
00000003FFC0000000
00000003FFC0000000
00000003FFC0000000
ENDCHAR
STARTCHAR brokenbar
ENCODING 166
SWIDTH 297 0
DWIDTH 29 0
BBX 7 90 11 -9
BITMAP
FE
FE
FE
FE
FE
FE
FE
FE
FE
FE
FE
FE
FE
FE
FE
FE
FE
FE
FE
FE
FE
FE
FE
FE
FE
FE
FE
FE
FE
FE
FE
FE
FE
FE
FE
FE
FE
FE
FE
FE
00
00
00
00
00
00
00
00
00
00
00
FE
FE
FE
FE
FE
FE
FE
FE
FE
FE
FE
FE
FE
FE
FE
FE
FE
FE
FE
FE
FE
FE
FE
FE
FE
FE
FE
FE
FE
FE
FE
FE
FE
FE
FE
FE
FE
FE
FE
ENDCHAR
STARTCHAR section
ENCODING 167
SWIDTH 773 0
DWIDTH 75 0
BBX 64 91 5 -20
BITMAP
0001FFFFFFFFFF80
001FFFFFFFFFFF80
007FFFFFFFFFFF80
01FFFFFFFFFFFF80
03FFFFFFFFFFFF80
07FFFFFFFFFFFF80
0FFFFFFFFFFFFF80
1FFFFFFFFFFFFF80
1FFFFFFFFFFFFF80
3FFFFFFFFFFFFF80
7FFFFFFFFFFFFF80
7FFFFFFFFFFFFF80
7FFFF00000000000
FFFF000000000000
FFFC000000000000
FFF8000000000000
FFF0000000000000
FFF0000000000000
FFF0000000000000
FFE0000000000000
FFE0000000000000
FFE0000000000000
FFF0000000000000
FFF0000000000000
FFF0000000000000
7FF8000000000000
7FF8000000000000
3FFE000000000000
3FFF800000000000
1FFFFFFFFFFF8000
1FFFFFFFFFFFF800
0FFFFFFFFFFFFE00
07FFFFFFFFFFFF00
03FFFFFFFFFFFF80
00FFFFFFFFFFFFC0
00FFFFFFFFFFFFE0
01FFFFFFFFFFFFE0
03FFFFFFFFFFFFF0
07FFC0000007FFF0
07FF00000001FFF0
0FFE00000000FFF8
0FFE000000007FF8
0FFC000000003FF8
1FFC000000003FF8
1FFC000000003FF8
1FFC000000003FF8
1FFC000000003FF8
1FFC000000003FF8
1FFC000000003FF0
1FFE000000007FF0
1FFF00000000FFF0
0FFF80000001FFE0
0FFFE0000003FFE0
0FFFFFFFFFFFFFC0
07FFFFFFFFFFFF80
07FFFFFFFFFFFF00
03FFFFFFFFFFFF00
01FFFFFFFFFFFF80
00FFFFFFFFFFFFE0
007FFFFFFFFFFFF0
001FFFFFFFFFFFF8
0001FFFFFFFFFFF8
000000000001FFFC
0000000000007FFC
0000000000003FFE
0000000000001FFE
0000000000000FFF
0000000000000FFF
0000000000000FFF
0000000000000FFF
0000000000000FFF
0000000000000FFF
0000000000000FFF
0000000000000FFF
0000000000000FFF
0000000000001FFF
0000000000003FFF
000000000000FFFF
000000000003FFFE
01FFFFFFFFFFFFFE
01FFFFFFFFFFFFFE
01FFFFFFFFFFFFFC
01FFFFFFFFFFFFFC
01FFFFFFFFFFFFF8
01FFFFFFFFFFFFF0
01FFFFFFFFFFFFE0
01FFFFFFFFFFFFC0
01FFFFFFFFFFFF80
01FFFFFFFFFFFF00
01FFFFFFFFFFFC00
01FFFFFFFFFFE000
ENDCHAR
STARTCHAR dieresis
ENCODING 168
SWIDTH 393 0
DWIDTH 38 0
BBX 28 9 5 78
BITMAP
1F000780
7F801FE0
7FC03FF0
FFC03FF0
FFC03FF0
FFC03FF0
7FC03FF0
7F801FE0
1E0007C0
ENDCHAR
STARTCHAR copyright
ENCODING 169
SWIDTH 829 0
DWIDTH 80 0
BBX 72 72 4 -1
BITMAP
00000003FFC0000000
0000003FFFFE000000
000001FFFFFFC00000
000007FE003FF00000
00001FE00003FC0000
00007F0000007F0000
0001FC0000001F8000
0003F000000007C000
0007C000000003F000
000F8000000000F800
001E00000000007C00
003C00000000003E00
007800000000001F00
00F000000000000F80
01E000000000000780
03E0000000000003C0
03C0000000000001E0
0780000000000001E0
0700000000000000F0
0F000001FFFF000070
0E00000FFFFF000078
1E00003FFFFF000038
1C0000FFFFFF00003C
3C0001FFFFFF00001C
3C0003FF000000001E
380007F8000000001E
780007F0000000000E
78000FE0000000000E
70001FC0000000000F
70001F80000000000F
F0001F000000000007
F0003F000000000007
F0003F000000000007
F0003E000000000007
F0003E000000000007
F0003E000000000007
F0003E000000000007
F0003E000000000007
F0003E000000000007
F0003E000000000007
F0001F000000000007
F0001F000000000007
70001F00000000000F
70000F80000000000F
78000FC0000000000E
780007E0000000000E
380003F0000000001E
3C0003FC000000001C
3C0001FF000000001C
1C00007FFFFF00003C
1E00003FFFFF000038
0E00000FFFFF000078
0F000001FFFF000070
0700000000000000F0
0780000000000000E0
03C0000000000001E0
01E0000000000003C0
01E000000000000780
00F000000000000F00
007800000000001F00
003C00000000003E00
001E00000000007C00
000F8000000000F800
0007C000000001E000
0003F000000007C000
0000FC0000001F8000
00007F0000007E0000
00001FC00003FC0000
000007FE003FF00000
000001FFFFFF800000
0000003FFFFE000000
00000003FFC0000000
ENDCHAR
STARTCHAR ordfeminine
ENCODING 170
SWIDTH 604 0
DWIDTH 59 0
BBX 51 40 4 29
BITMAP
00000040000000
000001F0000000
000003F0000000
000007F8000000
000007FC000000
00000FFC000000
00000FFE000000
00001FFE000000
00003FFF000000
00003FFF800000
00007FFF800000
00007F3FC00000
0000FF3FC00000
0001FE1FE00000
0001FE1FF00000
0003FC0FF00000
0003F807F80000
0007F807F80000
0007F003FC0000
000FF003FE0000
001FE001FE0000
001FC000FF0000
003FC000FF0000
003F80007F8000
007F80007FC000
00FF07FFFFC000
00FE07FFFFE000
01FE0FFFFFE000
01FC1FFFFFF000
03FC1FFFFFF800
07F8200007F800
07F0000003FC00
0FF0000003FC00
0FE0000001FE00
1FE0000000FF00
3FC0000000FF00
3F800000007F80
7F800000007F80
7F000000003FC0
FF000000003FE0
ENDCHAR
STARTCHAR guillemotleft
ENCODING 171
SWIDTH 629 0
DWIDTH 61 0
BBX 53 36 4 18
BITMAP
00000030000018
000000F0000038
000001F00000F8
000007F00003F8
00001FF00007F8
00003FF0001FF8
0000FFC0007FF0
0003FF0000FFC0
0007FE0003FF00
001FF8000FFC00
007FE0001FF800
00FFC0007FE000
03FF0001FF8000
0FFC0003FE0000
1FF0000FFC0000
7FE0001FF00000
FF80003FC00000
FE00007F800000
FF00007F800000
7F80003FE00000
3FE0001FF00000
0FF80007FC0000
07FC0001FF0000
01FF0000FFC000
007FC0003FE000
003FF0000FF800
000FF80007FE00
0003FE0001FF00
0001FF80007FC0
00007FC0003FF0
00001FF0000FF8
00000FF00003F8
000003F00001F8
000000F0000078
00000070000018
00000010000008
ENDCHAR
STARTCHAR registered
ENCODING 174
SWIDTH 585 0
DWIDTH 57 0
BBX 45 45 6 26
BITMAP
00003FE00000
0003FFFC0000
000FFFFF8000
003FC03FC000
007E0007F000
00F80001F800
01F000007C00
03C000003E00
078000001F00
0F0000000F80
0E0000000780
1E00000003C0
3C0FFFF803C0
3C0FFFFE01E0
380FFFFF01E0
780F000F00F0
700F000780F0
700F000780F0
F00F00078070
F00F00078070
F00F00078078
F00F000F0078
F00F0FFF0078
F00F0FFE0078
F00F0FF80078
F00F007C0070
F00F003E0070
700F001F00F0
780F000F80F0
780F0007E0F0
3800000001E0
3C00000001E0
3E00000003C0
1E00000007C0
0F0000000F80
0F8000000F80
07C000003F00
03E000007E00
01F80000FC00
00FE0003F800
007FC01FF000
003FFFFFC000
000FFFFF8000
0003FFFC0000
00003FE00000
ENDCHAR
STARTCHAR macron
ENCODING 175
SWIDTH 362 0
DWIDTH 35 0
BBX 25 6 5 79
BITMAP
FFFFFF80
FFFFFF80
FFFFFF80
FFFFFF80
FFFFFF80
FFFFFF80
ENDCHAR
STARTCHAR degree
ENCODING 176
SWIDTH 361 0
DWIDTH 35 0
BBX 27 28 4 43
BITMAP
007FC000
03FFF800
07FFFC00
1FFFFF00
1FFFFF00
3FFFFF80
7FC07FC0
7F001FC0
7E000FC0
FC000FC0
FC0007E0
FC0007E0
F80007E0
F80007E0
F80007E0
F80007E0
FC0007E0
FC0007E0
FC000FE0
7E000FC0
7F001FC0
7FC07FC0
3FFFFF80
1FFFFF00
1FFFFF00
0FFFFC00
03FFF800
007FC000
ENDCHAR
STARTCHAR plusminus
ENCODING 177
SWIDTH 690 0
DWIDTH 67 0
BBX 55 68 6 -5
BITMAP
000001FF000000
000001FF000000
000001FF000000
000001FF000000
000001FF000000
000001FF000000
000001FF000000
000001FF000000
000001FF000000
000001FF000000
000001FF000000
000001FF000000
000001FF000000
000001FF000000
000001FF000000
000001FF000000
000001FF000000
000001FF000000
000001FF000000
000001FF000000
000001FF000000
000001FF000000
000001FF000000
FFFFFFFFFFFFFE
FFFFFFFFFFFFFE
FFFFFFFFFFFFFE
FFFFFFFFFFFFFE
FFFFFFFFFFFFFE
FFFFFFFFFFFFFE
FFFFFFFFFFFFFE
FFFFFFFFFFFFFE
000001FF000000
000001FF000000
000001FF000000
000001FF000000
000001FF000000
000001FF000000
000001FF000000
000001FF000000
000001FF000000
000001FF000000
000001FF000000
000001FF000000
000001FF000000
000001FF000000
000001FF000000
000001FF000000
000001FF000000
000001FF000000
000001FF000000
000001FF000000
000001FF000000
000001FF000000
000001FF000000
000001FF000000
00000000000000
00000000000000
00000000000000
00000000000000
00000000000000
FFFFFFFFFFFFFE
FFFFFFFFFFFFFE
FFFFFFFFFFFFFE
FFFFFFFFFFFFFE
FFFFFFFFFFFFFE
FFFFFFFFFFFFFE
FFFFFFFFFFFFFE
FFFFFFFFFFFFFE
ENDCHAR
STARTCHAR twosuperior
ENCODING 178
SWIDTH 442 0
DWIDTH 43 0
BBX 35 35 4 36
BITMAP
7FFFFFF000
7FFFFFFE00
7FFFFFFF00
7FFFFFFF80
7FFFFFFFC0
7FFFFFFFC0
0000003FC0
0000000FE0
0000000FE0
00000007E0
00000007E0
0000000FE0
0000000FC0
0000003FC0
01FFFFFFC0
07FFFFFF80
1FFFFFFF00
3FFFFFFC00
3FFFFFF000
7F80000000
7E00000000
7E00000000
7C00000000
FC00000000
FC00000000
FC00000000
FC00000000
FC00000000
FC00000000
FFFFFFFFC0
FFFFFFFFC0
FFFFFFFFC0
FFFFFFFFC0
FFFFFFFFC0
FFFFFFFFC0
ENDCHAR
STARTCHAR threesuperior
ENCODING 179
SWIDTH 443 0
DWIDTH 43 0
BBX 35 35 4 36
BITMAP
FFFFFFF000
FFFFFFFC00
FFFFFFFF00
FFFFFFFF80
FFFFFFFFC0
FFFFFFFFC0
0000003FC0
0000001FC0
0000000FE0
0000000FC0
0000000FC0
0000000FC0
0000000FC0
0000003F80
00FFFFFF00
00FFFFFE00
00FFFFFE00
00FFFFFF80
00FFFFFF80
0000003FC0
0000000FE0
0000000FE0
00000007E0
00000007E0
00000007E0
00000007E0
0000000FE0
0000001FE0
0000007FC0
FFFFFFFFC0
FFFFFFFF80
FFFFFFFF80
FFFFFFFF00
FFFFFFFC00
FFFFFFF000
ENDCHAR
STARTCHAR acute
ENCODING 180
SWIDTH 362 0
DWIDTH 35 0
BBX 25 13 5 75
BITMAP
00000380
00003F80
0001FF80
000FFF80
007FFF80
07FFFF80
3FFFFF80
FFFFFF00
FFFFE000
FFFE0000
FFC00000
F8000000
80000000
ENDCHAR
STARTCHAR paragraph
ENCODING 182
SWIDTH 629 0
DWIDTH 61 0
BBX 51 81 4 -10
BITMAP
000FFFFFFFFFE0
007FFFFFFFFFE0
01FFFFFFFFFFE0
03FFFFFFFFFFE0
0FFFFFFFFFFFE0
0FFFFFFFFFFFE0
1FFFFFFFFFFFE0
3FFFFFFFFFFFE0
3FFFFFFE001FE0
7FFFFFFE001FE0
7FFFFFFE001FE0
7FFFFFFE001FE0
7FFFFFFE001FE0
FFFFFFFE001FE0
FFFFFFFE001FE0
FFFFFFFE001FE0
FFFFFFFE001FE0
FFFFFFFE001FE0
FFFFFFFE001FE0
7FFFFFFE001FE0
7FFFFFFE001FE0
7FFFFFFE001FE0
7FFFFFFE001FE0
3FFFFFFE001FE0
3FFFFFFE001FE0
1FFFFFFE001FE0
1FFFFFFE001FE0
0FFFFFFE001FE0
07FFFFFE001FE0
03FFFFFE001FE0
00FFFFFE001FE0
003FFFFE001FE0
0000FFFE001FE0
000001FE001FE0
000001FE001FE0
000001FE001FE0
000001FE001FE0
000001FE001FE0
000001FE001FE0
000001FE001FE0
000001FE001FE0
000001FE001FE0
000001FE001FE0
000001FE001FE0
000001FE001FE0
000001FE001FE0
000001FE001FE0
000001FE001FE0
000001FE001FE0
000001FE001FE0
000001FE001FE0
000001FE001FE0
000001FE001FE0
000001FE001FE0
000001FE001FE0
000001FE001FE0
000001FE001FE0
000001FE001FE0
000001FE001FE0
000001FE001FE0
000001FE001FE0
000001FE001FE0
000001FE001FE0
000001FE001FE0
000001FE001FE0
000001FE001FE0
000001FE001FE0
000001FE001FE0
000001FE001FE0
000001FE001FE0
000001FE001FE0
000001FE001FE0
000001FE001FE0
000001FE001FE0
000001FE001FE0
000001FE001FE0
000001FE001FE0
000001FE001FE0
000001FE001FE0
000001FE001FE0
000001FE001FE0
ENDCHAR
STARTCHAR periodcentered
ENCODING 183
SWIDTH 262 0
DWIDTH 25 0
BBX 13 13 6 29
BITMAP
0F80
3FE0
7FF0
7FF8
FFF8
FFF8
FFF8
FFF8
FFF8
7FF8
7FF0
3FE0
0F80
ENDCHAR
STARTCHAR cedilla
ENCODING 184
SWIDTH 219 0
DWIDTH 21 0
BBX 13 15 4 -20
BITMAP
FFF8
7FF0
7FF0
3FF0
3FE0
1FE0
1FC0
1FC0
0F80
0F80
0780
0700
0700
0200
0200
ENDCHAR
STARTCHAR onesuperior
ENCODING 185
SWIDTH 222 0
DWIDTH 22 0
BBX 14 36 3 35
BITMAP
FE00
FF80
FFE0
FFF0
FFF0
FFF8
07F8
01FC
01FC
00FC
00FC
00FC
00FC
00FC
00FC
00FC
00FC
00FC
00FC
00FC
00FC
00FC
00FC
00FC
00FC
00FC
00FC
00FC
00FC
00FC
00FC
00FC
00FC
00FC
00FC
00FC
ENDCHAR
STARTCHAR ordmasculine
ENCODING 186
SWIDTH 592 0
DWIDTH 57 0
BBX 47 39 5 29
BITMAP
0003FFFF8000
001FFFFFF000
007FFFFFFC00
00FFFFFFFF00
03FFFFFFFF80
07FFFFFFFFC0
0FFFFFFFFFE0
0FFE0000FFF0
1FF800001FF8
3FE000000FF8
3FC0000007FC
7F80000003FC
7F80000001FC
7F00000001FE
7F00000000FE
FE00000000FE
FE00000000FE
FE000000007E
FE000000007E
FE000000007E
FE000000007E
FE000000007E
FE00000000FE
7E00000000FE
7F00000000FE
7F00000001FC
7F80000001FC
3F80000003FC
3FC0000007F8
1FE000000FF8
1FF800003FF0
0FFE0000FFF0
07FFFFFFFFE0
03FFFFFFFFC0
01FFFFFFFF80
00FFFFFFFF00
007FFFFFFC00
001FFFFFF000
0001FFFF8000
ENDCHAR
STARTCHAR guillemotright
ENCODING 187
SWIDTH 629 0
DWIDTH 61 0
BBX 53 36 4 18
BITMAP
C0000060000000
E0000078000000
F800007C000000
FE00007F000000
FF00007FC00000
FFC0007FE00000
7FF0001FF80000
1FF80007FE0000
07FE0003FF0000
01FF8000FFC000
00FFC0003FF000
003FF0001FF800
000FFC0007FE00
0003FE0001FF80
0001FF80007FC0
00007FE0003FF0
00001FE0000FF8
000007F00003F8
00000FF00007F8
00003FE0000FF0
00007FC0003FE0
0001FF0000FF80
0007FC0001FF00
000FF80007FC00
003FE0001FF000
00FF80007FE000
03FF0000FF8000
07FC0003FE0000
1FF0000FFC0000
7FE0001FF00000
FF80007FC00000
FE00007F800000
FC00007E000000
F0000078000000
C0000070000000
80000040000000
ENDCHAR
STARTCHAR onequarter
ENCODING 188
SWIDTH 972 0
DWIDTH 94 0
BBX 86 82 4 -7
BITMAP
0000000000000001FF0000
0000000000000001FE0000
0000000000000003FC0000
0000000000000007F80000
00FE00000000000FF80000
00FFC0000000000FF00000
00FFE0000000001FE00000
00FFF0000000003FC00000
00FFF8000000007F800000
00FFF800000000FF800000
0003FC00000000FF000000
0001FC00000001FE000000
0000FC00000003FC000000
0000FC00000007FC000000
0000FE00000007F8000000
0000FE0000000FF0000000
0000FE0000001FE0000000
0000FE0000003FE0000000
0000FE0000007FC0000000
0000FE0000007F80000000
0000FE000000FF00000000
0000FE000001FE00000000
0000FE000003FE00000000
0000FE000003FC00000000
0000FE000007F800000000
0000FE00000FF000000000
0000FE00001FF000000000
0000FE00003FE000000000
0000FE00003FC000000000
0000FE00007F8000000000
0000FE0000FF0000000000
0000FE0001FF0000000000
0000FE0001FE0000000000
0000FE0003FC0000000000
0000FE0007F80000000000
0000FE000FF80000000000
0000FE001FF00000000000
0000FE001FE00000000000
0000FE003FC00000000000
0000FE007F800000000000
00000000FF800000000000
00000000FF007E00001F80
00000001FE007E00001F80
00000003FC007E00001F80
00000007FC007E00001F80
0000000FF8007E00001F80
0000000FF0007E00001F80
0000001FE0007E00001F80
0000003FC0007E00001F80
0000007FC0007E00001F80
0000007F80007E00001F80
000000FF00007E00001F80
000001FE00007E00001F80
000003FE00007E00001F80
000007FC00007E00001F80
000007F800007E00001F80
00000FF000007E00001F80
00001FF000007E00001F80
00003FE000007E00001F80
00003FC000007F00001F80
00007F8000007F80001F80
0000FF0000003FFFFFFFFC
0001FF0000003FFFFFFFFC
0003FE0000001FFFFFFFFC
0003FC0000000FFFFFFFFC
0007F800000007FFFFFFFC
000FF800000000FFFFFFFC
001FF00000000000001F80
001FE00000000000001F80
003FC00000000000001F80
007F800000000000001F80
00FF800000000000001F80
01FF000000000000001F80
01FE000000000000001F80
03FC000000000000001F80
07FC000000000000001F80
0FF8000000000000000000
0FF0000000000000000000
1FE0000000000000000000
3FC0000000000000000000
7FC0000000000000000000
FF80000000000000000000
ENDCHAR
STARTCHAR onehalf
ENCODING 189
SWIDTH 948 0
DWIDTH 92 0
BBX 84 82 4 -7
BITMAP
0000000000000001FF0000
0000000000000001FE0000
0000000000000003FC0000
0000000000000007F80000
00FE00000000000FF80000
00FFC0000000000FF00000
00FFE0000000001FE00000
00FFF0000000003FC00000
00FFF8000000007F800000
00FFF800000000FF800000
0003FC00000000FF000000
0001FC00000001FE000000
0000FC00000003FC000000
0000FC00000007FC000000
0000FE00000007F8000000
0000FE0000000FF0000000
0000FE0000001FE0000000
0000FE0000003FE0000000
0000FE0000007FC0000000
0000FE0000007F80000000
0000FE000000FF00000000
0000FE000001FE00000000
0000FE000003FE00000000
0000FE000003FC00000000
0000FE000007F800000000
0000FE00000FF000000000
0000FE00001FF000000000
0000FE00003FE000000000
0000FE00003FC000000000
0000FE00007F8000000000
0000FE0000FF0000000000
0000FE0001FF0000000000
0000FE0001FE0000000000
0000FE0003FC0000000000
0000FE0007F80000000000
0000FE000FF80000000000
0000FE001FF00000000000
0000FE001FE00000000000
0000FE003FC00000000000
0000FE007F800000000000
00000000FF800000000000
00000000FF003FFFFFF800
00000001FE003FFFFFFF00
00000003FC003FFFFFFF80
00000007FC003FFFFFFFC0
0000000FF8003FFFFFFFE0
0000000FF0003FFFFFFFE0
0000001FE0000000001FE0
0000003FC00000000007F0
0000007FC00000000007F0
0000007F800000000003F0
000000FF000000000003F0
000001FE000000000007F0
000003FE000000000007E0
000007FC00000000001FE0
000007F8000000FFFFFFC0
00000FF0000003FFFFFFC0
00001FF000000FFFFFFF80
00003FE000001FFFFFFE00
00003FC000001FFFFFF800
00007F8000003FC0000000
0000FF0000003F00000000
0001FF0000003F00000000
0003FE0000003E00000000
0003FC0000007E00000000
0007F80000007E00000000
000FF80000007E00000000
001FF00000007E00000000
001FE00000007E00000000
003FC00000007E00000000
007F800000007FFFFFFFE0
00FF800000007FFFFFFFE0
01FF000000007FFFFFFFE0
01FE000000007FFFFFFFE0
03FC000000007FFFFFFFE0
07FC000000007FFFFFFFE0
0FF8000000000000000000
0FF0000000000000000000
1FE0000000000000000000
3FC0000000000000000000
7FC0000000000000000000
FF80000000000000000000
ENDCHAR
STARTCHAR threequarters
ENCODING 190
SWIDTH 1029 0
DWIDTH 100 0
BBX 92 82 4 -7
BITMAP
000000000000000007FC0000
00000000000000000FF00000
00000000000000001FF00000
00000000000000001FE00000
FFFFFFF0000000003FC00000
FFFFFFFE000000007F800000
FFFFFFFF00000000FF800000
FFFFFFFF80000001FF000000
FFFFFFFFC0000001FE000000
FFFFFFFFC0000003FC000000
0000003FE0000007F8000000
0000000FE000000FF8000000
0000000FE000000FF0000000
00000007E000001FE0000000
00000007E000003FC0000000
0000000FE000007FC0000000
0000000FC00000FF80000000
0000001FC00000FF00000000
00FFFFFF800001FE00000000
00FFFFFE000003FC00000000
00FFFFFF000007FC00000000
00FFFFFF800007F800000000
00FFFFFFC0000FF000000000
0000001FE0001FE000000000
0000000FE0003FE000000000
00000007E0007FC000000000
00000007E0007F8000000000
00000007F000FF0000000000
00000007F001FF0000000000
00000007F003FE0000000000
00000007E003FC0000000000
0000000FE007F80000000000
0000003FE00FF00000000000
FFFFFFFFC01FF00000000000
FFFFFFFFC03FE00000000000
FFFFFFFF803FC00000000000
FFFFFFFF007F800000000000
FFFFFFFE00FF800000000000
FFFFFFF001FF000000000000
0000000001FE000000000000
0000000003FC000000000000
0000000007F803F00000FE00
000000000FF803F00000FE00
000000000FF003F00000FE00
000000001FE003F00000FE00
000000003FC003F00000FE00
000000007FC003F00000FE00
00000000FF8003F00000FE00
00000000FF0003F00000FE00
00000001FE0003F00000FE00
00000003FC0003F00000FE00
00000007FC0003F00000FE00
00000007F80003F00000FE00
0000000FF00003F00000FE00
0000001FE00003F00000FE00
0000003FE00003F00000FE00
0000007FC00003F00000FE00
0000007F800003F80000FE00
000000FF000003F80000FE00
000001FE000001F80000FE00
000003FE000001FE0000FE00
000003FC000001FFFFFFFFF0
000007F8000000FFFFFFFFF0
00000FF00000007FFFFFFFF0
00001FF00000003FFFFFFFF0
00003FE00000001FFFFFFFF0
00003FC000000007FFFFFFF0
00007F80000000000000FE00
0000FF80000000000000FE00
0001FF00000000000000FE00
0001FE00000000000000FE00
0003FC00000000000000FE00
0007F800000000000000FE00
000FF800000000000000FE00
001FF000000000000000FE00
001FE000000000000000FE00
003FC0000000000000000000
007FC0000000000000000000
00FF80000000000000000000
00FF00000000000000000000
01FE00000000000000000000
03FC00000000000000000000
ENDCHAR
STARTCHAR questiondown
ENCODING 191
SWIDTH 776 0
DWIDTH 75 0
BBX 68 71 3 0
BITMAP
0000000000000FC000
0000000000001FF000
0000000000003FF800
0000000000007FF800
0000000000007FFC00
0000000000007FFC00
0000000000007FFC00
0000000000007FFC00
0000000000007FFC00
0000000000007FF800
0000000000003FF800
0000000000001FF000
0000000000000FC000
000000000000000000
000000000000000000
000000000000000000
000000000000000000
000000000000000000
000000000000000000
000000000000000000
000000000000000000
000000000000000000
000000000000000000
000000000000000000
0000000000003FF800
0000000000003FF800
0000000000003FF800
0000000000003FF800
0000000000003FF800
0000000000007FF800
0000000000007FF800
000000000000FFF800
0000FFFFFFFFFFF800
000FFFFFFFFFFFF000
003FFFFFFFFFFFF000
00FFFFFFFFFFFFE000
01FFFFFFFFFFFFE000
07FFFFFFFFFFFFC000
0FFFFFFFFFFFFF8000
0FFFFFFFFFFFFF0000
1FFFFFFFFFFFFC0000
3FFFFFFFFFFFC00000
3FFFC0000000000000
7FFF00000000000000
7FFC00000000000000
7FFC00000000000000
FFF800000000000000
FFF800000000000000
FFF000000000000000
FFF000000000000000
FFF000000000000000
FFF000000000000000
FFF800000000000000
FFF800000000000000
FFF800000000000000
FFFC00000000000000
FFFE00000000000000
FFFF00000000000000
7FFFF0000000000000
7FFFFFFFFFFFFFFFF0
3FFFFFFFFFFFFFFFF0
3FFFFFFFFFFFFFFFF0
1FFFFFFFFFFFFFFFF0
1FFFFFFFFFFFFFFFF0
0FFFFFFFFFFFFFFFF0
07FFFFFFFFFFFFFFF0
03FFFFFFFFFFFFFFF0
00FFFFFFFFFFFFFFF0
003FFFFFFFFFFFFFF0
000FFFFFFFFFFFFFF0
0000FFFFFFFFFFFFF0
ENDCHAR
STARTCHAR Agrave
ENCODING 192
SWIDTH 989 0
DWIDTH 96 0
BBX 93 88 1 0
BITMAP
00000000E000000000000000
00000000FC00000000000000
00000000FF80000000000000
00000000FFF8000000000000
00000000FFFF000000000000
00000000FFFFE00000000000
00000000FFFFFE0000000000
000000007FFFFF0000000000
0000000007FFFF0000000000
00000000003FFF0000000000
000000000001FF0000000000
0000000000001F0000000000
000000000000008000000000
000000000000000000000000
000000000000000000000000
000000000000000000000000
00000000000F800000000000
00000000001FE00000000000
00000000003FF00000000000
00000000007FF80000000000
00000000007FF80000000000
0000000000FFFC0000000000
0000000001FFFC0000000000
0000000001FFFE0000000000
0000000003FFFF0000000000
0000000003FFFF0000000000
0000000007FFFF8000000000
000000000FFFFF8000000000
000000000FFFFFC000000000
000000001FFFFFE000000000
000000001FFFFFE000000000
000000003FFFFFF000000000
000000007FFFFFF000000000
000000007FFFFFF800000000
00000000FFFDFFFC00000000
00000000FFF9FFFC00000000
00000001FFF8FFFE00000000
00000003FFF07FFE00000000
00000003FFF07FFF00000000
00000007FFE03FFF00000000
00000007FFE03FFF80000000
0000000FFFC01FFFC0000000
0000001FFF800FFFC0000000
0000001FFF800FFFE0000000
0000003FFF0007FFE0000000
0000003FFF0007FFF0000000
0000007FFE0003FFF8000000
000000FFFC0001FFF8000000
000000FFFC0001FFFC000000
000001FFF80000FFFC000000
000001FFF80000FFFE000000
000003FFF000007FFF000000
000003FFE000003FFF000000
000007FFE000003FFF800000
00000FFFC000001FFF800000
00000FFFC000001FFFC00000
00001FFF8000000FFFE00000
00001FFF00000007FFE00000
00003FFF00000007FFF00000
00007FFE00000003FFF00000
00007FFE00FFFFFFFFF80000
0000FFFC00FFFFFFFFFC0000
0000FFFC01FFFFFFFFFC0000
0001FFF803FFFFFFFFFE0000
0003FFF003FFFFFFFFFE0000
0003FFF007FFFFFFFFFF0000
0007FFE007FFFFFFFFFF8000
0007FFE00FFFFFFFFFFF8000
000FFFC00FFFFFFFFFFFC000
001FFF801FFFFFFFFFFFC000
001FFF80000000000FFFE000
003FFF000000000007FFF000
003FFF000000000003FFF000
007FFE000000000003FFF800
00FFFC000000000001FFF800
00FFFC000000000001FFFC00
01FFF8000000000000FFFE00
01FFF8000000000000FFFE00
03FFF00000000000007FFF00
07FFE00000000000003FFF00
07FFE00000000000003FFF80
0FFFC00000000000001FFFC0
0FFFC00000000000001FFFC0
1FFF800000000000000FFFE0
3FFF8000000000000007FFE0
3FFF0000000000000007FFF0
7FFE0000000000000003FFF8
FFFE0000000000000003FFF8
ENDCHAR
STARTCHAR Aacute
ENCODING 193
SWIDTH 989 0
DWIDTH 96 0
BBX 93 88 1 0
BITMAP
000000000000001C00000000
00000000000000FC00000000
0000000000000FFC00000000
0000000000007FFC00000000
000000000003FFFC00000000
00000000001FFFFC00000000
0000000001FFFFFC00000000
0000000007FFFFF800000000
0000000007FFFF0000000000
0000000007FFF00000000000
0000000007FE000000000000
0000000007E0000000000000
000000000400000000000000
000000000000000000000000
000000000000000000000000
000000000000000000000000
00000000000F800000000000
00000000001FE00000000000
00000000003FF00000000000
00000000007FF80000000000
00000000007FF80000000000
0000000000FFFC0000000000
0000000001FFFC0000000000
0000000001FFFE0000000000
0000000003FFFF0000000000
0000000003FFFF0000000000
0000000007FFFF8000000000
000000000FFFFF8000000000
000000000FFFFFC000000000
000000001FFFFFE000000000
000000001FFFFFE000000000
000000003FFFFFF000000000
000000007FFFFFF000000000
000000007FFFFFF800000000
00000000FFFDFFFC00000000
00000000FFF9FFFC00000000
00000001FFF8FFFE00000000
00000003FFF07FFE00000000
00000003FFF07FFF00000000
00000007FFE03FFF00000000
00000007FFE03FFF80000000
0000000FFFC01FFFC0000000
0000001FFF800FFFC0000000
0000001FFF800FFFE0000000
0000003FFF0007FFE0000000
0000003FFF0007FFF0000000
0000007FFE0003FFF8000000
000000FFFC0001FFF8000000
000000FFFC0001FFFC000000
000001FFF80000FFFC000000
000001FFF80000FFFE000000
000003FFF000007FFF000000
000003FFE000003FFF000000
000007FFE000003FFF800000
00000FFFC000001FFF800000
00000FFFC000001FFFC00000
00001FFF8000000FFFE00000
00001FFF00000007FFE00000
00003FFF00000007FFF00000
00007FFE00000003FFF00000
00007FFE00FFFFFFFFF80000
0000FFFC00FFFFFFFFFC0000
0000FFFC01FFFFFFFFFC0000
0001FFF803FFFFFFFFFE0000
0003FFF003FFFFFFFFFE0000
0003FFF007FFFFFFFFFF0000
0007FFE007FFFFFFFFFF8000
0007FFE00FFFFFFFFFFF8000
000FFFC00FFFFFFFFFFFC000
001FFF801FFFFFFFFFFFC000
001FFF80000000000FFFE000
003FFF000000000007FFF000
003FFF000000000003FFF000
007FFE000000000003FFF800
00FFFC000000000001FFF800
00FFFC000000000001FFFC00
01FFF8000000000000FFFE00
01FFF8000000000000FFFE00
03FFF00000000000007FFF00
07FFE00000000000003FFF00
07FFE00000000000003FFF80
0FFFC00000000000001FFFC0
0FFFC00000000000001FFFC0
1FFF800000000000000FFFE0
3FFF8000000000000007FFE0
3FFF0000000000000007FFF0
7FFE0000000000000003FFF8
FFFE0000000000000003FFF8
ENDCHAR
STARTCHAR Acircumflex
ENCODING 194
SWIDTH 989 0
DWIDTH 96 0
BBX 93 89 1 0
BITMAP
00000000003FF00000000000
00000000003FF00000000000
00000000007FF80000000000
0000000000FFFC0000000000
0000000000FCFC0000000000
0000000001FCFE0000000000
0000000003F87F0000000000
0000000003F03F0000000000
0000000007F03F8000000000
000000000FE01FC000000000
000000000FC01FC000000000
000000001FC00FE000000000
000000003F8007F000000000
000000003F0007F000000000
000000000000000000000000
000000000000000000000000
000000000000000000000000
00000000000F800000000000
00000000001FE00000000000
00000000003FF00000000000
00000000007FF80000000000
00000000007FF80000000000
0000000000FFFC0000000000
0000000001FFFC0000000000
0000000001FFFE0000000000
0000000003FFFF0000000000
0000000003FFFF0000000000
0000000007FFFF8000000000
000000000FFFFF8000000000
000000000FFFFFC000000000
000000001FFFFFE000000000
000000001FFFFFE000000000
000000003FFFFFF000000000
000000007FFFFFF000000000
000000007FFFFFF800000000
00000000FFFDFFFC00000000
00000000FFF9FFFC00000000
00000001FFF8FFFE00000000
00000003FFF07FFE00000000
00000003FFF07FFF00000000
00000007FFE03FFF00000000
00000007FFE03FFF80000000
0000000FFFC01FFFC0000000
0000001FFF800FFFC0000000
0000001FFF800FFFE0000000
0000003FFF0007FFE0000000
0000003FFF0007FFF0000000
0000007FFE0003FFF8000000
000000FFFC0001FFF8000000
000000FFFC0001FFFC000000
000001FFF80000FFFC000000
000001FFF80000FFFE000000
000003FFF000007FFF000000
000003FFE000003FFF000000
000007FFE000003FFF800000
00000FFFC000001FFF800000
00000FFFC000001FFFC00000
00001FFF8000000FFFE00000
00001FFF00000007FFE00000
00003FFF00000007FFF00000
00007FFE00000003FFF00000
00007FFE00FFFFFFFFF80000
0000FFFC00FFFFFFFFFC0000
0000FFFC01FFFFFFFFFC0000
0001FFF803FFFFFFFFFE0000
0003FFF003FFFFFFFFFE0000
0003FFF007FFFFFFFFFF0000
0007FFE007FFFFFFFFFF8000
0007FFE00FFFFFFFFFFF8000
000FFFC00FFFFFFFFFFFC000
001FFF801FFFFFFFFFFFC000
001FFF80000000000FFFE000
003FFF000000000007FFF000
003FFF000000000003FFF000
007FFE000000000003FFF800
00FFFC000000000001FFF800
00FFFC000000000001FFFC00
01FFF8000000000000FFFE00
01FFF8000000000000FFFE00
03FFF00000000000007FFF00
07FFE00000000000003FFF00
07FFE00000000000003FFF80
0FFFC00000000000001FFFC0
0FFFC00000000000001FFFC0
1FFF800000000000000FFFE0
3FFF8000000000000007FFE0
3FFF0000000000000007FFF0
7FFE0000000000000003FFF8
FFFE0000000000000003FFF8
ENDCHAR
STARTCHAR Atilde
ENCODING 195
SWIDTH 989 0
DWIDTH 96 0
BBX 93 87 1 0
BITMAP
0000000003F0001000000000
000000000FFC002000000000
000000001FFF006000000000
000000003FFFC1E000000000
000000003FFFFFE000000000
000000003C0FFFE000000000
000000003803FFE000000000
000000002000FFC000000000
0000000020003F0000000000
000000000000000000000000
000000000000000000000000
000000000000000000000000
000000000000000000000000
000000000000000000000000
000000000000000000000000
00000000000F800000000000
00000000001FE00000000000
00000000003FF00000000000
00000000007FF80000000000
00000000007FF80000000000
0000000000FFFC0000000000
0000000001FFFC0000000000
0000000001FFFE0000000000
0000000003FFFF0000000000
0000000003FFFF0000000000
0000000007FFFF8000000000
000000000FFFFF8000000000
000000000FFFFFC000000000
000000001FFFFFE000000000
000000001FFFFFE000000000
000000003FFFFFF000000000
000000007FFFFFF000000000
000000007FFFFFF800000000
00000000FFFDFFFC00000000
00000000FFF9FFFC00000000
00000001FFF8FFFE00000000
00000003FFF07FFE00000000
00000003FFF07FFF00000000
00000007FFE03FFF00000000
00000007FFE03FFF80000000
0000000FFFC01FFFC0000000
0000001FFF800FFFC0000000
0000001FFF800FFFE0000000
0000003FFF0007FFE0000000
0000003FFF0007FFF0000000
0000007FFE0003FFF8000000
000000FFFC0001FFF8000000
000000FFFC0001FFFC000000
000001FFF80000FFFC000000
000001FFF80000FFFE000000
000003FFF000007FFF000000
000003FFE000003FFF000000
000007FFE000003FFF800000
00000FFFC000001FFF800000
00000FFFC000001FFFC00000
00001FFF8000000FFFE00000
00001FFF00000007FFE00000
00003FFF00000007FFF00000
00007FFE00000003FFF00000
00007FFE00FFFFFFFFF80000
0000FFFC00FFFFFFFFFC0000
0000FFFC01FFFFFFFFFC0000
0001FFF803FFFFFFFFFE0000
0003FFF003FFFFFFFFFE0000
0003FFF007FFFFFFFFFF0000
0007FFE007FFFFFFFFFF8000
0007FFE00FFFFFFFFFFF8000
000FFFC00FFFFFFFFFFFC000
001FFF801FFFFFFFFFFFC000
001FFF80000000000FFFE000
003FFF000000000007FFF000
003FFF000000000003FFF000
007FFE000000000003FFF800
00FFFC000000000001FFF800
00FFFC000000000001FFFC00
01FFF8000000000000FFFE00
01FFF8000000000000FFFE00
03FFF00000000000007FFF00
07FFE00000000000003FFF00
07FFE00000000000003FFF80
0FFFC00000000000001FFFC0
0FFFC00000000000001FFFC0
1FFF800000000000000FFFE0
3FFF8000000000000007FFE0
3FFF0000000000000007FFF0
7FFE0000000000000003FFF8
FFFE0000000000000003FFF8
ENDCHAR
STARTCHAR Adieresis
ENCODING 196
SWIDTH 989 0
DWIDTH 96 0
BBX 93 87 1 0
BITMAP
000000000F0003C000000000
000000003FC00FF000000000
000000007FE01FF000000000
000000007FE01FF800000000
000000007FE01FF800000000
000000007FE01FF800000000
000000007FE01FF000000000
000000003FC00FF000000000
000000000F0003C000000000
000000000000000000000000
000000000000000000000000
000000000000000000000000
000000000000000000000000
000000000000000000000000
000000000000000000000000
00000000000F800000000000
00000000001FE00000000000
00000000003FF00000000000
00000000007FF80000000000
00000000007FF80000000000
0000000000FFFC0000000000
0000000001FFFC0000000000
0000000001FFFE0000000000
0000000003FFFF0000000000
0000000003FFFF0000000000
0000000007FFFF8000000000
000000000FFFFF8000000000
000000000FFFFFC000000000
000000001FFFFFE000000000
000000001FFFFFE000000000
000000003FFFFFF000000000
000000007FFFFFF000000000
000000007FFFFFF800000000
00000000FFFDFFFC00000000
00000000FFF9FFFC00000000
00000001FFF8FFFE00000000
00000003FFF07FFE00000000
00000003FFF07FFF00000000
00000007FFE03FFF00000000
00000007FFE03FFF80000000
0000000FFFC01FFFC0000000
0000001FFF800FFFC0000000
0000001FFF800FFFE0000000
0000003FFF0007FFE0000000
0000003FFF0007FFF0000000
0000007FFE0003FFF8000000
000000FFFC0001FFF8000000
000000FFFC0001FFFC000000
000001FFF80000FFFC000000
000001FFF80000FFFE000000
000003FFF000007FFF000000
000003FFE000003FFF000000
000007FFE000003FFF800000
00000FFFC000001FFF800000
00000FFFC000001FFFC00000
00001FFF8000000FFFE00000
00001FFF00000007FFE00000
00003FFF00000007FFF00000
00007FFE00000003FFF00000
00007FFE00FFFFFFFFF80000
0000FFFC00FFFFFFFFFC0000
0000FFFC01FFFFFFFFFC0000
0001FFF803FFFFFFFFFE0000
0003FFF003FFFFFFFFFE0000
0003FFF007FFFFFFFFFF0000
0007FFE007FFFFFFFFFF8000
0007FFE00FFFFFFFFFFF8000
000FFFC00FFFFFFFFFFFC000
001FFF801FFFFFFFFFFFC000
001FFF80000000000FFFE000
003FFF000000000007FFF000
003FFF000000000003FFF000
007FFE000000000003FFF800
00FFFC000000000001FFF800
00FFFC000000000001FFFC00
01FFF8000000000000FFFE00
01FFF8000000000000FFFE00
03FFF00000000000007FFF00
07FFE00000000000003FFF00
07FFE00000000000003FFF80
0FFFC00000000000001FFFC0
0FFFC00000000000001FFFC0
1FFF800000000000000FFFE0
3FFF8000000000000007FFE0
3FFF0000000000000007FFF0
7FFE0000000000000003FFF8
FFFE0000000000000003FFF8
ENDCHAR
STARTCHAR Aring
ENCODING 197
SWIDTH 989 0
DWIDTH 96 0
BBX 93 95 1 0
BITMAP
00000000007FF80000000000
0000000001FFFE0000000000
0000000007FFFF0000000000
0000000007FFFF8000000000
000000000FC00FC000000000
000000001F0003C000000000
000000001E0001E000000000
000000001E0001E000000000
000000001C0001E000000000
000000003C0000E000000000
000000001C0000E000000000
000000001C0001E000000000
000000001E0001E000000000
000000001E0001E000000000
000000001F0003C000000000
000000000FC00FC000000000
0000000007FFFF8000000000
0000000003FFFF0000000000
0000000001FFFE0000000000
00000000007FF80000000000
000000000000000000000000
000000000000000000000000
000000000000000000000000
00000000000F800000000000
00000000001FE00000000000
00000000003FF00000000000
00000000007FF80000000000
00000000007FF80000000000
0000000000FFFC0000000000
0000000001FFFC0000000000
0000000001FFFE0000000000
0000000003FFFF0000000000
0000000003FFFF0000000000
0000000007FFFF8000000000
000000000FFFFF8000000000
000000000FFFFFC000000000
000000001FFFFFE000000000
000000001FFFFFE000000000
000000003FFFFFF000000000
000000007FFFFFF000000000
000000007FFFFFF800000000
00000000FFFDFFFC00000000
00000000FFF9FFFC00000000
00000001FFF8FFFE00000000
00000003FFF07FFE00000000
00000003FFF07FFF00000000
00000007FFE03FFF00000000
00000007FFE03FFF80000000
0000000FFFC01FFFC0000000
0000001FFF800FFFC0000000
0000001FFF800FFFE0000000
0000003FFF0007FFE0000000
0000003FFF0007FFF0000000
0000007FFE0003FFF8000000
000000FFFC0001FFF8000000
000000FFFC0001FFFC000000
000001FFF80000FFFC000000
000001FFF80000FFFE000000
000003FFF000007FFF000000
000003FFE000003FFF000000
000007FFE000003FFF800000
00000FFFC000001FFF800000
00000FFFC000001FFFC00000
00001FFF8000000FFFE00000
00001FFF00000007FFE00000
00003FFF00000007FFF00000
00007FFE00000003FFF00000
00007FFE00FFFFFFFFF80000
0000FFFC00FFFFFFFFFC0000
0000FFFC01FFFFFFFFFC0000
0001FFF803FFFFFFFFFE0000
0003FFF003FFFFFFFFFE0000
0003FFF007FFFFFFFFFF0000
0007FFE007FFFFFFFFFF8000
0007FFE00FFFFFFFFFFF8000
000FFFC00FFFFFFFFFFFC000
001FFF801FFFFFFFFFFFC000
001FFF80000000000FFFE000
003FFF000000000007FFF000
003FFF000000000003FFF000
007FFE000000000003FFF800
00FFFC000000000001FFF800
00FFFC000000000001FFFC00
01FFF8000000000000FFFE00
01FFF8000000000000FFFE00
03FFF00000000000007FFF00
07FFE00000000000003FFF00
07FFE00000000000003FFF80
0FFFC00000000000001FFFC0
0FFFC00000000000001FFFC0
1FFF800000000000000FFFE0
3FFF8000000000000007FFE0
3FFF0000000000000007FFF0
7FFE0000000000000003FFF8
FFFE0000000000000003FFF8
ENDCHAR
STARTCHAR AE
ENCODING 198
SWIDTH 1345 0
DWIDTH 130 0
BBX 125 71 1 0
BITMAP
00000000001FFFFFFFFFFFFFFFFFFFF8
00000000007FFFFFFFFFFFFFFFFFFFF8
0000000000FFFFFFFFFFFFFFFFFFFFF8
0000000001FFFFFFFFFFFFFFFFFFFFF8
0000000001FFFFFFFFFFFFFFFFFFFFF8
0000000003FFFFFFFFFFFFFFFFFFFFF8
0000000003FFFFFFFFFFFFFFFFFFFFF8
0000000007FFFFFFFFFFFFFFFFFFFFF8
000000000FFFFFFFFFFFFFFFFFFFFFF8
000000000FFFFFFFFFFFFFFFFFFFFFF8
000000001FFFFFFFFFFFFFFFFFFFFFF8
000000001FFFFFFFFFFFFFFFFFFFFFF8
000000003FFE00003FFC000000000000
000000003FFE00003FFC000000000000
000000007FFC00003FFC000000000000
00000000FFFC00003FFC000000000000
00000000FFF800003FFC000000000000
00000001FFF800003FFC000000000000
00000001FFF000003FFC000000000000
00000003FFE000003FFC000000000000
00000003FFE000003FFC000000000000
00000007FFC000003FFC000000000000
0000000FFFC000003FFC000000000000
0000000FFF8000003FFC000000000000
0000001FFF8000003FFC000000000000
0000001FFF0000003FFC000000000000
0000003FFE0000003FFC000000000000
0000007FFE0000003FFC000000000000
0000007FFC0000003FFC000000000000
000000FFFC0000003FFC000000000000
000000FFF80000003FFC01FFFFFFFFC0
000001FFF80000003FFC01FFFFFFFFC0
000001FFF00000003FFC01FFFFFFFFC0
000003FFE00000003FFC01FFFFFFFFC0
000007FFE00000003FFC01FFFFFFFFC0
000007FFC00000003FFC01FFFFFFFFC0
00000FFFC00000003FFC01FFFFFFFFC0
00000FFF800000003FFC01FFFFFFFFC0
00001FFF800000003FFC01FFFFFFFFC0
00001FFF000000003FFC01FFFFFFFFC0
00003FFF000000003FFC000000000000
00007FFE000000003FFC000000000000
00007FFC000000003FFC000000000000
0000FFFC000000003FFC000000000000
0000FFF800FFFFFFFFFC000000000000
0001FFF801FFFFFFFFFC000000000000
0003FFF003FFFFFFFFFC000000000000
0003FFF003FFFFFFFFFC000000000000
0007FFE007FFFFFFFFFC000000000000
0007FFC007FFFFFFFFFC000000000000
000FFFC00FFFFFFFFFFC000000000000
000FFF801FFFFFFFFFFC000000000000
001FFF801FFFFFFFFFFC000000000000
003FFF003FFFFFFFFFFC000000000000
003FFF00000000003FFC000000000000
007FFE00000000003FFC000000000000
007FFC00000000003FFC000000000000
00FFFC00000000003FFC000000000000
00FFF800000000003FFC000000000000
01FFF800000000003FFFFFFFFFFFFFF8
03FFF000000000003FFFFFFFFFFFFFF8
03FFF000000000003FFFFFFFFFFFFFF8
07FFE000000000003FFFFFFFFFFFFFF8
07FFC000000000003FFFFFFFFFFFFFF8
0FFFC000000000003FFFFFFFFFFFFFF8
0FFF8000000000003FFFFFFFFFFFFFF8
1FFF8000000000003FFFFFFFFFFFFFF8
3FFF0000000000003FFFFFFFFFFFFFF8
3FFF0000000000003FFFFFFFFFFFFFF8
7FFE0000000000003FFFFFFFFFFFFFF8
FFFE0000000000003FFFFFFFFFFFFFF8
ENDCHAR
STARTCHAR Ccedilla
ENCODING 199
SWIDTH 829 0
DWIDTH 80 0
BBX 73 91 4 -20
BITMAP
0000000FFFFFFFFFFF80
000000FFFFFFFFFFFF80
000007FFFFFFFFFFFF80
00003FFFFFFFFFFFFF80
0000FFFFFFFFFFFFFF80
0001FFFFFFFFFFFFFF80
0007FFFFFFFFFFFFFF80
000FFFFFFFFFFFFFFF80
001FFFFFFFFFFFFFFF80
003FFFFFFFFFFFFFFF80
007FFFFFFFFFFFFFFF80
00FFFFFFFFFFFFFFFF80
01FFFFFF800000000000
03FFFFE0000000000000
03FFFF80000000000000
07FFFE00000000000000
07FFF800000000000000
0FFFF000000000000000
1FFFE000000000000000
1FFFC000000000000000
1FFF8000000000000000
3FFF0000000000000000
3FFF0000000000000000
3FFE0000000000000000
7FFE0000000000000000
7FFC0000000000000000
7FFC0000000000000000
7FFC0000000000000000
FFF80000000000000000
FFF80000000000000000
FFF80000000000000000
FFF80000000000000000
FFF80000000000000000
FFF00000000000000000
FFF00000000000000000
FFF00000000000000000
FFF00000000000000000
FFF00000000000000000
FFF80000000000000000
FFF80000000000000000
FFF80000000000000000
7FF80000000000000000
7FF80000000000000000
7FFC0000000000000000
7FFC0000000000000000
7FFC0000000000000000
3FFE0000000000000000
3FFE0000000000000000
3FFF0000000000000000
1FFF8000000000000000
1FFF8000000000000000
0FFFC000000000000000
0FFFE000000000000000
07FFF000000000000000
07FFF800000000000000
03FFFE00000000000000
03FFFF80000000000000
01FFFFE0000000000000
00FFFFFF800000000000
007FFFFFFFFFFFFFFF80
003FFFFFFFFFFFFFFF80
001FFFFFFFFFFFFFFF80
000FFFFFFFFFFFFFFF80
0007FFFFFFFFFFFFFF80
0003FFFFFFFFFFFFFF80
0000FFFFFFFFFFFFFF80
00007FFFFFFFFFFFFF80
00001FFFFFFFFFFFFF80
000007FFFFFFFFFFFF80
000000FFFFFFFFFFFF80
0000000FFFFFFFFFFF80
00000000000000000000
00000000000000000000
00000000000000000000
00000000000000000000
00000000000000000000
00000000FFF800000000
00000000FFF000000000
000000007FF000000000
000000007FE000000000
000000003FE000000000
000000003FC000000000
000000003FC000000000
000000001F8000000000
000000001F8000000000
000000000F8000000000
000000000F0000000000
00000000070000000000
00000000060000000000
00000000060000000000
00000000020000000000
ENDCHAR
STARTCHAR Egrave
ENCODING 200
SWIDTH 759 0
DWIDTH 74 0
BBX 63 88 6 0
BITMAP
0001E00000000000
0001FC0000000000
0001FF8000000000
0001FFF800000000
0001FFFF00000000
0001FFFFE0000000
0001FFFFFE000000
00007FFFFF000000
000007FFFF000000
0000003FFF000000
00000003FF000000
000000001F000000
0000000000800000
0000000000000000
0000000000000000
0000000000000000
0000000000000000
FFFFFFFFFFFFFFFE
FFFFFFFFFFFFFFFE
FFFFFFFFFFFFFFFE
FFFFFFFFFFFFFFFE
FFFFFFFFFFFFFFFE
FFFFFFFFFFFFFFFE
FFFFFFFFFFFFFFFE
FFFFFFFFFFFFFFFE
FFFFFFFFFFFFFFFE
FFFFFFFFFFFFFFFE
FFFFFFFFFFFFFFFE
FFFFFFFFFFFFFFFE
FFF0000000000000
FFF0000000000000
FFF0000000000000
FFF0000000000000
FFF0000000000000
FFF0000000000000
FFF0000000000000
FFF0000000000000
FFF0000000000000
FFF0000000000000
FFF0000000000000
FFF0000000000000
FFF0000000000000
FFF0000000000000
FFF0000000000000
FFF0000000000000
FFF0000000000000
FFF0000000000000
FFF007FFFFFFFFF0
FFF007FFFFFFFFF0
FFF007FFFFFFFFF0
FFF007FFFFFFFFF0
FFF007FFFFFFFFF0
FFF007FFFFFFFFF0
FFF007FFFFFFFFF0
FFF007FFFFFFFFF0
FFF007FFFFFFFFF0
FFF007FFFFFFFFF0
FFF0000000000000
FFF0000000000000
FFF0000000000000
FFF0000000000000
FFF0000000000000
FFF0000000000000
FFF0000000000000
FFF0000000000000
FFF0000000000000
FFF0000000000000
FFF0000000000000
FFF0000000000000
FFF0000000000000
FFF0000000000000
FFF0000000000000
FFF0000000000000
FFF0000000000000
FFF0000000000000
FFF0000000000000
FFFFFFFFFFFFFFFE
FFFFFFFFFFFFFFFE
FFFFFFFFFFFFFFFE
FFFFFFFFFFFFFFFE
FFFFFFFFFFFFFFFE
FFFFFFFFFFFFFFFE
FFFFFFFFFFFFFFFE
FFFFFFFFFFFFFFFE
FFFFFFFFFFFFFFFE
FFFFFFFFFFFFFFFE
FFFFFFFFFFFFFFFE
FFFFFFFFFFFFFFFE
ENDCHAR
STARTCHAR Eacute
ENCODING 201
SWIDTH 759 0
DWIDTH 74 0
BBX 63 88 6 0
BITMAP
00000000001C0000
0000000000FC0000
000000000FFC0000
000000007FFC0000
00000003FFFC0000
0000003FFFFC0000
000001FFFFFC0000
000007FFFFF80000
000007FFFF000000
000007FFF0000000
000007FE00000000
000007C000000000
0000040000000000
0000000000000000
0000000000000000
0000000000000000
0000000000000000
FFFFFFFFFFFFFFFE
FFFFFFFFFFFFFFFE
FFFFFFFFFFFFFFFE
FFFFFFFFFFFFFFFE
FFFFFFFFFFFFFFFE
FFFFFFFFFFFFFFFE
FFFFFFFFFFFFFFFE
FFFFFFFFFFFFFFFE
FFFFFFFFFFFFFFFE
FFFFFFFFFFFFFFFE
FFFFFFFFFFFFFFFE
FFFFFFFFFFFFFFFE
FFF0000000000000
FFF0000000000000
FFF0000000000000
FFF0000000000000
FFF0000000000000
FFF0000000000000
FFF0000000000000
FFF0000000000000
FFF0000000000000
FFF0000000000000
FFF0000000000000
FFF0000000000000
FFF0000000000000
FFF0000000000000
FFF0000000000000
FFF0000000000000
FFF0000000000000
FFF0000000000000
FFF007FFFFFFFFF0
FFF007FFFFFFFFF0
FFF007FFFFFFFFF0
FFF007FFFFFFFFF0
FFF007FFFFFFFFF0
FFF007FFFFFFFFF0
FFF007FFFFFFFFF0
FFF007FFFFFFFFF0
FFF007FFFFFFFFF0
FFF007FFFFFFFFF0
FFF0000000000000
FFF0000000000000
FFF0000000000000
FFF0000000000000
FFF0000000000000
FFF0000000000000
FFF0000000000000
FFF0000000000000
FFF0000000000000
FFF0000000000000
FFF0000000000000
FFF0000000000000
FFF0000000000000
FFF0000000000000
FFF0000000000000
FFF0000000000000
FFF0000000000000
FFF0000000000000
FFF0000000000000
FFFFFFFFFFFFFFFE
FFFFFFFFFFFFFFFE
FFFFFFFFFFFFFFFE
FFFFFFFFFFFFFFFE
FFFFFFFFFFFFFFFE
FFFFFFFFFFFFFFFE
FFFFFFFFFFFFFFFE
FFFFFFFFFFFFFFFE
FFFFFFFFFFFFFFFE
FFFFFFFFFFFFFFFE
FFFFFFFFFFFFFFFE
FFFFFFFFFFFFFFFE
ENDCHAR
STARTCHAR Ecircumflex
ENCODING 202
SWIDTH 759 0
DWIDTH 74 0
BBX 63 89 6 0
BITMAP
0000003FF0000000
0000007FF0000000
0000007FF8000000
000000FFFC000000
000001FDFC000000
000001F8FE000000
000003F87E000000
000007F07F000000
000007E03F800000
00000FE01F800000
00000FC01FC00000
00001FC00FE00000
00003F8007E00000
00003F0007F00000
0000000000000000
0000000000000000
0000000000000000
0000000000000000
FFFFFFFFFFFFFFFE
FFFFFFFFFFFFFFFE
FFFFFFFFFFFFFFFE
FFFFFFFFFFFFFFFE
FFFFFFFFFFFFFFFE
FFFFFFFFFFFFFFFE
FFFFFFFFFFFFFFFE
FFFFFFFFFFFFFFFE
FFFFFFFFFFFFFFFE
FFFFFFFFFFFFFFFE
FFFFFFFFFFFFFFFE
FFFFFFFFFFFFFFFE
FFF0000000000000
FFF0000000000000
FFF0000000000000
FFF0000000000000
FFF0000000000000
FFF0000000000000
FFF0000000000000
FFF0000000000000
FFF0000000000000
FFF0000000000000
FFF0000000000000
FFF0000000000000
FFF0000000000000
FFF0000000000000
FFF0000000000000
FFF0000000000000
FFF0000000000000
FFF0000000000000
FFF007FFFFFFFFF0
FFF007FFFFFFFFF0
FFF007FFFFFFFFF0
FFF007FFFFFFFFF0
FFF007FFFFFFFFF0
FFF007FFFFFFFFF0
FFF007FFFFFFFFF0
FFF007FFFFFFFFF0
FFF007FFFFFFFFF0
FFF007FFFFFFFFF0
FFF0000000000000
FFF0000000000000
FFF0000000000000
FFF0000000000000
FFF0000000000000
FFF0000000000000
FFF0000000000000
FFF0000000000000
FFF0000000000000
FFF0000000000000
FFF0000000000000
FFF0000000000000
FFF0000000000000
FFF0000000000000
FFF0000000000000
FFF0000000000000
FFF0000000000000
FFF0000000000000
FFF0000000000000
FFFFFFFFFFFFFFFE
FFFFFFFFFFFFFFFE
FFFFFFFFFFFFFFFE
FFFFFFFFFFFFFFFE
FFFFFFFFFFFFFFFE
FFFFFFFFFFFFFFFE
FFFFFFFFFFFFFFFE
FFFFFFFFFFFFFFFE
FFFFFFFFFFFFFFFE
FFFFFFFFFFFFFFFE
FFFFFFFFFFFFFFFE
FFFFFFFFFFFFFFFE
ENDCHAR
STARTCHAR Edieresis
ENCODING 203
SWIDTH 759 0
DWIDTH 74 0
BBX 63 87 6 0
BITMAP
00001F0007C00000
00003FC00FF00000
00007FC01FF00000
00007FE01FF80000
00007FE01FF80000
00007FE01FF80000
00007FC01FF00000
00003FC00FF00000
00001F0007C00000
0000000000000000
0000000000000000
0000000000000000
0000000000000000
0000000000000000
0000000000000000
0000000000000000
FFFFFFFFFFFFFFFE
FFFFFFFFFFFFFFFE
FFFFFFFFFFFFFFFE
FFFFFFFFFFFFFFFE
FFFFFFFFFFFFFFFE
FFFFFFFFFFFFFFFE
FFFFFFFFFFFFFFFE
FFFFFFFFFFFFFFFE
FFFFFFFFFFFFFFFE
FFFFFFFFFFFFFFFE
FFFFFFFFFFFFFFFE
FFFFFFFFFFFFFFFE
FFF0000000000000
FFF0000000000000
FFF0000000000000
FFF0000000000000
FFF0000000000000
FFF0000000000000
FFF0000000000000
FFF0000000000000
FFF0000000000000
FFF0000000000000
FFF0000000000000
FFF0000000000000
FFF0000000000000
FFF0000000000000
FFF0000000000000
FFF0000000000000
FFF0000000000000
FFF0000000000000
FFF007FFFFFFFFF0
FFF007FFFFFFFFF0
FFF007FFFFFFFFF0
FFF007FFFFFFFFF0
FFF007FFFFFFFFF0
FFF007FFFFFFFFF0
FFF007FFFFFFFFF0
FFF007FFFFFFFFF0
FFF007FFFFFFFFF0
FFF007FFFFFFFFF0
FFF0000000000000
FFF0000000000000
FFF0000000000000
FFF0000000000000
FFF0000000000000
FFF0000000000000
FFF0000000000000
FFF0000000000000
FFF0000000000000
FFF0000000000000
FFF0000000000000
FFF0000000000000
FFF0000000000000
FFF0000000000000
FFF0000000000000
FFF0000000000000
FFF0000000000000
FFF0000000000000
FFF0000000000000
FFFFFFFFFFFFFFFE
FFFFFFFFFFFFFFFE
FFFFFFFFFFFFFFFE
FFFFFFFFFFFFFFFE
FFFFFFFFFFFFFFFE
FFFFFFFFFFFFFFFE
FFFFFFFFFFFFFFFE
FFFFFFFFFFFFFFFE
FFFFFFFFFFFFFFFE
FFFFFFFFFFFFFFFE
FFFFFFFFFFFFFFFE
FFFFFFFFFFFFFFFE
ENDCHAR
STARTCHAR Igrave
ENCODING 204
SWIDTH 267 0
DWIDTH 26 0
BBX 25 88 -2 0
BITMAP
E0000000
FC000000
FFC00000
FFF80000
FFFF0000
FFFFF000
FFFFFE00
7FFFFF80
03FFFF80
003FFF80
0001FF80
00001F80
00000080
00000000
00000000
00000000
00000000
007FF800
007FF800
007FF800
007FF800
007FF800
007FF800
007FF800
007FF800
007FF800
007FF800
007FF800
007FF800
007FF800
007FF800
007FF800
007FF800
007FF800
007FF800
007FF800
007FF800
007FF800
007FF800
007FF800
007FF800
007FF800
007FF800
007FF800
007FF800
007FF800
007FF800
007FF800
007FF800
007FF800
007FF800
007FF800
007FF800
007FF800
007FF800
007FF800
007FF800
007FF800
007FF800
007FF800
007FF800
007FF800
007FF800
007FF800
007FF800
007FF800
007FF800
007FF800
007FF800
007FF800
007FF800
007FF800
007FF800
007FF800
007FF800
007FF800
007FF800
007FF800
007FF800
007FF800
007FF800
007FF800
007FF800
007FF800
007FF800
007FF800
007FF800
007FF800
ENDCHAR
STARTCHAR Iacute
ENCODING 205
SWIDTH 267 0
DWIDTH 26 0
BBX 24 88 4 0
BITMAP
000007
00003F
0001FF
001FFF
00FFFF
07FFFF
7FFFFF
FFFFFE
FFFFE0
FFFC00
FF8000
F80000
800000
000000
000000
000000
000000
1FFE00
1FFE00
1FFE00
1FFE00
1FFE00
1FFE00
1FFE00
1FFE00
1FFE00
1FFE00
1FFE00
1FFE00
1FFE00
1FFE00
1FFE00
1FFE00
1FFE00
1FFE00
1FFE00
1FFE00
1FFE00
1FFE00
1FFE00
1FFE00
1FFE00
1FFE00
1FFE00
1FFE00
1FFE00
1FFE00
1FFE00
1FFE00
1FFE00
1FFE00
1FFE00
1FFE00
1FFE00
1FFE00
1FFE00
1FFE00
1FFE00
1FFE00
1FFE00
1FFE00
1FFE00
1FFE00
1FFE00
1FFE00
1FFE00
1FFE00
1FFE00
1FFE00
1FFE00
1FFE00
1FFE00
1FFE00
1FFE00
1FFE00
1FFE00
1FFE00
1FFE00
1FFE00
1FFE00
1FFE00
1FFE00
1FFE00
1FFE00
1FFE00
1FFE00
1FFE00
1FFE00
ENDCHAR
STARTCHAR Icircumflex
ENCODING 206
SWIDTH 267 0
DWIDTH 26 0
BBX 26 89 0 0
BITMAP
00FFC000
00FFC000
01FFE000
03FFF000
03F3F000
07F3F800
0FE1FC00
0FC0FC00
1FC0FE00
3F807F00
3F003F00
7F003F80
FE001FC0
FE001FC0
00000000
00000000
00000000
00000000
01FFE000
01FFE000
01FFE000
01FFE000
01FFE000
01FFE000
01FFE000
01FFE000
01FFE000
01FFE000
01FFE000
01FFE000
01FFE000
01FFE000
01FFE000
01FFE000
01FFE000
01FFE000
01FFE000
01FFE000
01FFE000
01FFE000
01FFE000
01FFE000
01FFE000
01FFE000
01FFE000
01FFE000
01FFE000
01FFE000
01FFE000
01FFE000
01FFE000
01FFE000
01FFE000
01FFE000
01FFE000
01FFE000
01FFE000
01FFE000
01FFE000
01FFE000
01FFE000
01FFE000
01FFE000
01FFE000
01FFE000
01FFE000
01FFE000
01FFE000
01FFE000
01FFE000
01FFE000
01FFE000
01FFE000
01FFE000
01FFE000
01FFE000
01FFE000
01FFE000
01FFE000
01FFE000
01FFE000
01FFE000
01FFE000
01FFE000
01FFE000
01FFE000
01FFE000
01FFE000
01FFE000
ENDCHAR
STARTCHAR Idieresis
ENCODING 207
SWIDTH 267 0
DWIDTH 26 0
BBX 28 87 -1 0
BITMAP
1F000780
7F801FE0
7FC03FF0
FFC03FF0
FFC03FF0
FFC03FF0
7FC03FF0
7F801FE0
1E0007C0
00000000
00000000
00000000
00000000
00000000
00000000
00000000
00FFF000
00FFF000
00FFF000
00FFF000
00FFF000
00FFF000
00FFF000
00FFF000
00FFF000
00FFF000
00FFF000
00FFF000
00FFF000
00FFF000
00FFF000
00FFF000
00FFF000
00FFF000
00FFF000
00FFF000
00FFF000
00FFF000
00FFF000
00FFF000
00FFF000
00FFF000
00FFF000
00FFF000
00FFF000
00FFF000
00FFF000
00FFF000
00FFF000
00FFF000
00FFF000
00FFF000
00FFF000
00FFF000
00FFF000
00FFF000
00FFF000
00FFF000
00FFF000
00FFF000
00FFF000
00FFF000
00FFF000
00FFF000
00FFF000
00FFF000
00FFF000
00FFF000
00FFF000
00FFF000
00FFF000
00FFF000
00FFF000
00FFF000
00FFF000
00FFF000
00FFF000
00FFF000
00FFF000
00FFF000
00FFF000
00FFF000
00FFF000
00FFF000
00FFF000
00FFF000
00FFF000
ENDCHAR
STARTCHAR Eth
ENCODING 208
SWIDTH 877 0
DWIDTH 85 0
BBX 80 71 1 0
BITMAP
07FFFFFFFFFFF0000000
07FFFFFFFFFFFF800000
07FFFFFFFFFFFFE00000
07FFFFFFFFFFFFFC0000
07FFFFFFFFFFFFFF0000
07FFFFFFFFFFFFFF8000
07FFFFFFFFFFFFFFE000
07FFFFFFFFFFFFFFF000
07FFFFFFFFFFFFFFF800
07FFFFFFFFFFFFFFFC00
07FFFFFFFFFFFFFFFE00
07FFFFFFFFFFFFFFFF00
07FF80000001FFFFFF80
07FF8000000007FFFFC0
07FF8000000001FFFFC0
07FF80000000007FFFE0
07FF80000000001FFFF0
07FF80000000000FFFF0
07FF800000000007FFF8
07FF800000000003FFF8
07FF800000000001FFFC
07FF800000000000FFFC
07FF800000000000FFFC
07FF8000000000007FFE
07FF8000000000007FFE
07FF8000000000003FFE
07FF8000000000003FFE
07FF8000000000001FFF
07FF8000000000001FFF
07FF8000000000001FFF
FFFFFFFFFFF800001FFF
FFFFFFFFFFF800001FFF
FFFFFFFFFFF800000FFF
FFFFFFFFFFF800000FFF
FFFFFFFFFFF800000FFF
FFFFFFFFFFF800000FFF
FFFFFFFFFFF800000FFF
FFFFFFFFFFF800000FFF
FFFFFFFFFFF800000FFF
FFFFFFFFFFF800001FFF
07FF8000000000001FFF
07FF8000000000001FFF
07FF8000000000001FFE
07FF8000000000003FFE
07FF8000000000003FFE
07FF8000000000003FFE
07FF8000000000007FFE
07FF8000000000007FFC
07FF800000000000FFFC
07FF800000000000FFF8
07FF800000000001FFF8
07FF800000000003FFF8
07FF800000000007FFF0
07FF80000000000FFFF0
07FF80000000001FFFE0
07FF80000000007FFFC0
07FF8000000001FFFFC0
07FF8000000007FFFF80
07FF80000001FFFFFF00
07FFFFFFFFFFFFFFFE00
07FFFFFFFFFFFFFFFE00
07FFFFFFFFFFFFFFFC00
07FFFFFFFFFFFFFFF000
07FFFFFFFFFFFFFFE000
07FFFFFFFFFFFFFFC000
07FFFFFFFFFFFFFF8000
07FFFFFFFFFFFFFE0000
07FFFFFFFFFFFFF80000
07FFFFFFFFFFFFE00000
07FFFFFFFFFFFF000000
07FFFFFFFFFFF0000000
ENDCHAR
STARTCHAR Ntilde
ENCODING 209
SWIDTH 873 0
DWIDTH 85 0
BBX 73 87 6 0
BITMAP
0000001F800080000000
0000007FE00080000000
000000FFF80180000000
000000FFFF0780000000
000000FFFFFF80000000
000000F07FFF80000000
000000C01FFF00000000
0000008007FE00000000
0000010000F800000000
00000000000000000000
00000000000000000000
00000000000000000000
00000000000000000000
00000000000000000000
00000000000000000000
00000000000000000000
0F80000000000007FF80
3FC0000000000007FF80
7FE0000000000007FF80
7FF0000000000007FF80
FFF8000000000007FF80
FFFC000000000007FF80
FFFE000000000007FF80
FFFF000000000007FF80
FFFF800000000007FF80
FFFFC00000000007FF80
FFFFE00000000007FF80
FFFFF00000000007FF80
FFFFF80000000007FF80
FFFFFC0000000007FF80
FFFFFF0000000007FF80
FFFFFF8000000007FF80
FFFFFFC000000007FF80
FFFFFFE000000007FF80
FFFFFFF000000007FF80
FFFFFFF800000007FF80
FFFFFFFC00000007FF80
FFF7FFFE00000007FF80
FFF3FFFF00000007FF80
FFF1FFFF80000007FF80
FFF0FFFFC0000007FF80
FFF07FFFE0000007FF80
FFF03FFFF0000007FF80
FFF01FFFF8000007FF80
FFF00FFFFC000007FF80
FFF007FFFE000007FF80
FFF003FFFF000007FF80
FFF001FFFF800007FF80
FFF000FFFFC00007FF80
FFF0007FFFE00007FF80
FFF0003FFFF00007FF80
FFF0001FFFF80007FF80
FFF00007FFFC0007FF80
FFF00003FFFE0007FF80
FFF00001FFFF0007FF80
FFF00000FFFF8007FF80
FFF000007FFFC007FF80
FFF000003FFFE007FF80
FFF000001FFFF007FF80
FFF000000FFFF807FF80
FFF0000007FFFC07FF80
FFF0000003FFFE07FF80
FFF0000001FFFF07FF80
FFF0000000FFFF87FF80
FFF00000007FFFC7FF80
FFF00000003FFFE7FF80
FFF00000001FFFF7FF80
FFF00000000FFFFFFF80
FFF000000007FFFFFF80
FFF000000003FFFFFF80
FFF000000001FFFFFF80
FFF000000000FFFFFF80
FFF0000000007FFFFF80
FFF0000000003FFFFF80
FFF0000000001FFFFF80
FFF0000000000FFFFF80
FFF00000000007FFFF80
FFF00000000003FFFF80
FFF00000000001FFFF80
FFF00000000000FFFF80
FFF000000000007FFF80
FFF000000000003FFF80
FFF000000000001FFF80
FFF000000000000FFF00
FFF0000000000007FF00
FFF0000000000003FE00
FFF0000000000000F800
ENDCHAR
STARTCHAR Ograve
ENCODING 210
SWIDTH 968 0
DWIDTH 94 0
BBX 86 88 4 0
BITMAP
0000000E00000000000000
0000000FC0000000000000
0000000FF8000000000000
0000000FFF800000000000
0000000FFFF00000000000
0000000FFFFE0000000000
0000000FFFFFE000000000
00000007FFFFF000000000
000000007FFFF000000000
0000000003FFF000000000
00000000001FF000000000
000000000001F000000000
0000000000000800000000
0000000000000000000000
0000000000000000000000
0000000000000000000000
0000000000000000000000
0000000FFFFFFFC0000000
000000FFFFFFFFFE000000
000007FFFFFFFFFF800000
00003FFFFFFFFFFFF00000
0000FFFFFFFFFFFFFC0000
0001FFFFFFFFFFFFFE0000
0007FFFFFFFFFFFFFF8000
000FFFFFFFFFFFFFFFC000
001FFFFFFFFFFFFFFFE000
003FFFFFFFFFFFFFFFF000
007FFFFFFFFFFFFFFFF800
00FFFFFFFFFFFFFFFFFC00
01FFFFFF800007FFFFFE00
03FFFFE00000001FFFFF00
03FFFF8000000007FFFF00
07FFFE0000000001FFFF80
07FFF800000000007FFFC0
0FFFF000000000003FFFC0
1FFFE000000000001FFFE0
1FFFC000000000000FFFE0
1FFF80000000000007FFE0
3FFF00000000000003FFF0
3FFF00000000000003FFF0
3FFE00000000000001FFF0
7FFE00000000000001FFF8
7FFC00000000000000FFF8
7FFC00000000000000FFF8
7FFC000000000000007FF8
FFF8000000000000007FFC
FFF8000000000000007FFC
FFF8000000000000007FFC
FFF8000000000000007FFC
FFF8000000000000003FFC
FFF0000000000000003FFC
FFF0000000000000003FFC
FFF0000000000000003FFC
FFF0000000000000003FFC
FFF0000000000000003FFC
FFF8000000000000007FFC
FFF8000000000000007FFC
FFF8000000000000007FFC
7FF8000000000000007FF8
7FF8000000000000007FF8
7FFC00000000000000FFF8
7FFC00000000000000FFF8
7FFC00000000000000FFF8
3FFE00000000000001FFF0
3FFE00000000000001FFF0
3FFF00000000000003FFF0
1FFF80000000000007FFE0
1FFF80000000000007FFE0
0FFFC000000000000FFFC0
0FFFE000000000001FFFC0
07FFF000000000003FFF80
07FFF800000000007FFF80
03FFFE0000000001FFFF00
03FFFF8000000007FFFF00
01FFFFE00000001FFFFE00
00FFFFFF800007FFFFFC00
007FFFFFFFFFFFFFFFF800
003FFFFFFFFFFFFFFFF000
001FFFFFFFFFFFFFFFE000
000FFFFFFFFFFFFFFFC000
0007FFFFFFFFFFFFFF8000
0003FFFFFFFFFFFFFF0000
0000FFFFFFFFFFFFFC0000
00007FFFFFFFFFFFF80000
00001FFFFFFFFFFFE00000
000007FFFFFFFFFF800000
000000FFFFFFFFFC000000
0000000FFFFFFFC0000000
ENDCHAR
STARTCHAR Oacute
ENCODING 211
SWIDTH 968 0
DWIDTH 94 0
BBX 86 88 4 0
BITMAP
00000000000001C0000000
0000000000000FC0000000
000000000000FFC0000000
000000000007FFC0000000
00000000003FFFC0000000
0000000001FFFFC0000000
000000001FFFFFC0000000
000000007FFFFF80000000
000000007FFFF000000000
000000007FFF0000000000
000000007FE00000000000
000000007E000000000000
0000000040000000000000
0000000000000000000000
0000000000000000000000
0000000000000000000000
0000000000000000000000
0000000FFFFFFFC0000000
000000FFFFFFFFFE000000
000007FFFFFFFFFF800000
00003FFFFFFFFFFFF00000
0000FFFFFFFFFFFFFC0000
0001FFFFFFFFFFFFFE0000
0007FFFFFFFFFFFFFF8000
000FFFFFFFFFFFFFFFC000
001FFFFFFFFFFFFFFFE000
003FFFFFFFFFFFFFFFF000
007FFFFFFFFFFFFFFFF800
00FFFFFFFFFFFFFFFFFC00
01FFFFFF800007FFFFFE00
03FFFFE00000001FFFFF00
03FFFF8000000007FFFF00
07FFFE0000000001FFFF80
07FFF800000000007FFFC0
0FFFF000000000003FFFC0
1FFFE000000000001FFFE0
1FFFC000000000000FFFE0
1FFF80000000000007FFE0
3FFF00000000000003FFF0
3FFF00000000000003FFF0
3FFE00000000000001FFF0
7FFE00000000000001FFF8
7FFC00000000000000FFF8
7FFC00000000000000FFF8
7FFC000000000000007FF8
FFF8000000000000007FFC
FFF8000000000000007FFC
FFF8000000000000007FFC
FFF8000000000000007FFC
FFF8000000000000003FFC
FFF0000000000000003FFC
FFF0000000000000003FFC
FFF0000000000000003FFC
FFF0000000000000003FFC
FFF0000000000000003FFC
FFF8000000000000007FFC
FFF8000000000000007FFC
FFF8000000000000007FFC
7FF8000000000000007FF8
7FF8000000000000007FF8
7FFC00000000000000FFF8
7FFC00000000000000FFF8
7FFC00000000000000FFF8
3FFE00000000000001FFF0
3FFE00000000000001FFF0
3FFF00000000000003FFF0
1FFF80000000000007FFE0
1FFF80000000000007FFE0
0FFFC000000000000FFFC0
0FFFE000000000001FFFC0
07FFF000000000003FFF80
07FFF800000000007FFF80
03FFFE0000000001FFFF00
03FFFF8000000007FFFF00
01FFFFE00000001FFFFE00
00FFFFFF800007FFFFFC00
007FFFFFFFFFFFFFFFF800
003FFFFFFFFFFFFFFFF000
001FFFFFFFFFFFFFFFE000
000FFFFFFFFFFFFFFFC000
0007FFFFFFFFFFFFFF8000
0003FFFFFFFFFFFFFF0000
0000FFFFFFFFFFFFFC0000
00007FFFFFFFFFFFF80000
00001FFFFFFFFFFFE00000
000007FFFFFFFFFF800000
000000FFFFFFFFFC000000
0000000FFFFFFFC0000000
ENDCHAR
STARTCHAR Ocircumflex
ENCODING 212
SWIDTH 968 0
DWIDTH 94 0
BBX 86 89 4 0
BITMAP
0000000003FF0000000000
0000000007FF0000000000
0000000007FF8000000000
000000000FFFC000000000
000000000FCFC000000000
000000001F8FE000000000
000000003F87F000000000
000000003F07F000000000
000000007F03F800000000
00000000FE01FC00000000
00000000FC01FC00000000
00000001FC00FE00000000
00000003F8007F00000000
00000003F0007F00000000
0000000000000000000000
0000000000000000000000
0000000000000000000000
0000000000000000000000
0000000FFFFFFFC0000000
000000FFFFFFFFFE000000
000007FFFFFFFFFF800000
00003FFFFFFFFFFFF00000
0000FFFFFFFFFFFFFC0000
0001FFFFFFFFFFFFFE0000
0007FFFFFFFFFFFFFF8000
000FFFFFFFFFFFFFFFC000
001FFFFFFFFFFFFFFFE000
003FFFFFFFFFFFFFFFF000
007FFFFFFFFFFFFFFFF800
00FFFFFFFFFFFFFFFFFC00
01FFFFFF800007FFFFFE00
03FFFFE00000001FFFFF00
03FFFF8000000007FFFF00
07FFFE0000000001FFFF80
07FFF800000000007FFFC0
0FFFF000000000003FFFC0
1FFFE000000000001FFFE0
1FFFC000000000000FFFE0
1FFF80000000000007FFE0
3FFF00000000000003FFF0
3FFF00000000000003FFF0
3FFE00000000000001FFF0
7FFE00000000000001FFF8
7FFC00000000000000FFF8
7FFC00000000000000FFF8
7FFC000000000000007FF8
FFF8000000000000007FFC
FFF8000000000000007FFC
FFF8000000000000007FFC
FFF8000000000000007FFC
FFF8000000000000003FFC
FFF0000000000000003FFC
FFF0000000000000003FFC
FFF0000000000000003FFC
FFF0000000000000003FFC
FFF0000000000000003FFC
FFF8000000000000007FFC
FFF8000000000000007FFC
FFF8000000000000007FFC
7FF8000000000000007FF8
7FF8000000000000007FF8
7FFC00000000000000FFF8
7FFC00000000000000FFF8
7FFC00000000000000FFF8
3FFE00000000000001FFF0
3FFE00000000000001FFF0
3FFF00000000000003FFF0
1FFF80000000000007FFE0
1FFF80000000000007FFE0
0FFFC000000000000FFFC0
0FFFE000000000001FFFC0
07FFF000000000003FFF80
07FFF800000000007FFF80
03FFFE0000000001FFFF00
03FFFF8000000007FFFF00
01FFFFE00000001FFFFE00
00FFFFFF800007FFFFFC00
007FFFFFFFFFFFFFFFF800
003FFFFFFFFFFFFFFFF000
001FFFFFFFFFFFFFFFE000
000FFFFFFFFFFFFFFFC000
0007FFFFFFFFFFFFFF8000
0003FFFFFFFFFFFFFF0000
0000FFFFFFFFFFFFFC0000
00007FFFFFFFFFFFF80000
00001FFFFFFFFFFFE00000
000007FFFFFFFFFF800000
000000FFFFFFFFFC000000
0000000FFFFFFFC0000000
ENDCHAR
STARTCHAR Otilde
ENCODING 213
SWIDTH 968 0
DWIDTH 94 0
BBX 86 87 4 0
BITMAP
000000003F000100000000
00000000FFC00200000000
00000001FFF00600000000
00000001FFFC1E00000000
00000001FFFFFE00000000
00000001C0FFFE00000000
00000001803FFE00000000
00000002000FFC00000000
000000020003F000000000
0000000000000000000000
0000000000000000000000
0000000000000000000000
0000000000000000000000
0000000000000000000000
0000000000000000000000
0000000000000000000000
0000000FFFFFFFC0000000
000000FFFFFFFFFE000000
000007FFFFFFFFFF800000
00003FFFFFFFFFFFF00000
0000FFFFFFFFFFFFFC0000
0001FFFFFFFFFFFFFE0000
0007FFFFFFFFFFFFFF8000
000FFFFFFFFFFFFFFFC000
001FFFFFFFFFFFFFFFE000
003FFFFFFFFFFFFFFFF000
007FFFFFFFFFFFFFFFF800
00FFFFFFFFFFFFFFFFFC00
01FFFFFF800007FFFFFE00
03FFFFE00000001FFFFF00
03FFFF8000000007FFFF00
07FFFE0000000001FFFF80
07FFF800000000007FFFC0
0FFFF000000000003FFFC0
1FFFE000000000001FFFE0
1FFFC000000000000FFFE0
1FFF80000000000007FFE0
3FFF00000000000003FFF0
3FFF00000000000003FFF0
3FFE00000000000001FFF0
7FFE00000000000001FFF8
7FFC00000000000000FFF8
7FFC00000000000000FFF8
7FFC000000000000007FF8
FFF8000000000000007FFC
FFF8000000000000007FFC
FFF8000000000000007FFC
FFF8000000000000007FFC
FFF8000000000000003FFC
FFF0000000000000003FFC
FFF0000000000000003FFC
FFF0000000000000003FFC
FFF0000000000000003FFC
FFF0000000000000003FFC
FFF8000000000000007FFC
FFF8000000000000007FFC
FFF8000000000000007FFC
7FF8000000000000007FF8
7FF8000000000000007FF8
7FFC00000000000000FFF8
7FFC00000000000000FFF8
7FFC00000000000000FFF8
3FFE00000000000001FFF0
3FFE00000000000001FFF0
3FFF00000000000003FFF0
1FFF80000000000007FFE0
1FFF80000000000007FFE0
0FFFC000000000000FFFC0
0FFFE000000000001FFFC0
07FFF000000000003FFF80
07FFF800000000007FFF80
03FFFE0000000001FFFF00
03FFFF8000000007FFFF00
01FFFFE00000001FFFFE00
00FFFFFF800007FFFFFC00
007FFFFFFFFFFFFFFFF800
003FFFFFFFFFFFFFFFF000
001FFFFFFFFFFFFFFFE000
000FFFFFFFFFFFFFFFC000
0007FFFFFFFFFFFFFF8000
0003FFFFFFFFFFFFFF0000
0000FFFFFFFFFFFFFC0000
00007FFFFFFFFFFFF80000
00001FFFFFFFFFFFE00000
000007FFFFFFFFFF800000
000000FFFFFFFFFC000000
0000000FFFFFFFC0000000
ENDCHAR
STARTCHAR Odieresis
ENCODING 214
SWIDTH 968 0
DWIDTH 94 0
BBX 86 87 4 0
BITMAP
00000000F0007C00000000
00000003FC00FF00000000
00000007FC01FF00000000
00000007FE01FF80000000
00000007FE01FF80000000
00000007FE01FF80000000
00000007FC01FF00000000
00000003FC00FF00000000
00000000F0007C00000000
0000000000000000000000
0000000000000000000000
0000000000000000000000
0000000000000000000000
0000000000000000000000
0000000000000000000000
0000000000000000000000
0000000FFFFFFFC0000000
000000FFFFFFFFFE000000
000007FFFFFFFFFF800000
00003FFFFFFFFFFFF00000
0000FFFFFFFFFFFFFC0000
0001FFFFFFFFFFFFFE0000
0007FFFFFFFFFFFFFF8000
000FFFFFFFFFFFFFFFC000
001FFFFFFFFFFFFFFFE000
003FFFFFFFFFFFFFFFF000
007FFFFFFFFFFFFFFFF800
00FFFFFFFFFFFFFFFFFC00
01FFFFFF800007FFFFFE00
03FFFFE00000001FFFFF00
03FFFF8000000007FFFF00
07FFFE0000000001FFFF80
07FFF800000000007FFFC0
0FFFF000000000003FFFC0
1FFFE000000000001FFFE0
1FFFC000000000000FFFE0
1FFF80000000000007FFE0
3FFF00000000000003FFF0
3FFF00000000000003FFF0
3FFE00000000000001FFF0
7FFE00000000000001FFF8
7FFC00000000000000FFF8
7FFC00000000000000FFF8
7FFC000000000000007FF8
FFF8000000000000007FFC
FFF8000000000000007FFC
FFF8000000000000007FFC
FFF8000000000000007FFC
FFF8000000000000003FFC
FFF0000000000000003FFC
FFF0000000000000003FFC
FFF0000000000000003FFC
FFF0000000000000003FFC
FFF0000000000000003FFC
FFF8000000000000007FFC
FFF8000000000000007FFC
FFF8000000000000007FFC
7FF8000000000000007FF8
7FF8000000000000007FF8
7FFC00000000000000FFF8
7FFC00000000000000FFF8
7FFC00000000000000FFF8
3FFE00000000000001FFF0
3FFE00000000000001FFF0
3FFF00000000000003FFF0
1FFF80000000000007FFE0
1FFF80000000000007FFE0
0FFFC000000000000FFFC0
0FFFE000000000001FFFC0
07FFF000000000003FFF80
07FFF800000000007FFF80
03FFFE0000000001FFFF00
03FFFF8000000007FFFF00
01FFFFE00000001FFFFE00
00FFFFFF800007FFFFFC00
007FFFFFFFFFFFFFFFF800
003FFFFFFFFFFFFFFFF000
001FFFFFFFFFFFFFFFE000
000FFFFFFFFFFFFFFFC000
0007FFFFFFFFFFFFFF8000
0003FFFFFFFFFFFFFF0000
0000FFFFFFFFFFFFFC0000
00007FFFFFFFFFFFF80000
00001FFFFFFFFFFFE00000
000007FFFFFFFFFF800000
000000FFFFFFFFFC000000
0000000FFFFFFFC0000000
ENDCHAR
STARTCHAR multiply
ENCODING 215
SWIDTH 690 0
DWIDTH 67 0
BBX 45 45 11 14
BITMAP
040000000200
060000000300
0F0000000780
1F8000000FC0
3FC000001FE0
7FE000003FF0
FFF000007FF8
7FF80000FFE0
3FFC0001FFC0
1FFE0003FF80
0FFF0007FF00
07FF800FFE00
03FFC01FFC00
01FFE03FFC00
00FFF07FF800
007FF8FFF000
003FFDFFE000
001FFFFFC000
000FFFFF8000
0007FFFF0000
0003FFFE0000
0001FFFC0000
0000FFF80000
0000FFF80000
0001FFFC0000
0003FFFE0000
0007FFFF0000
000FFFFF8000
001FFFFFC000
003FFDFFE000
007FF8FFF000
00FFF07FF800
01FFE03FFC00
03FFC01FFE00
07FF800FFF00
0FFF0007FF80
1FFE0003FFC0
3FFC0001FFE0
7FF80000FFF0
FFF000007FF8
7FE000003FF0
3FC000001FE0
1F8000000FC0
0F0000000780
060000000300
ENDCHAR
STARTCHAR Oslash
ENCODING 216
SWIDTH 968 0
DWIDTH 94 0
BBX 86 81 4 -5
BITMAP
0000000000000000002000
0000000000000000007000
000000000000000000F800
000000000000000000FC00
000000000000000001F800
0000000FFFFFFFC003F000
000000FFFFFFFFFC07E000
000007FFFFFFFFFF8FE000
00003FFFFFFFFFFFFFC000
0000FFFFFFFFFFFFFF8000
0001FFFFFFFFFFFFFF0000
0007FFFFFFFFFFFFFF8000
000FFFFFFFFFFFFFFFC000
001FFFFFFFFFFFFFFFE000
003FFFFFFFFFFFFFFFF000
007FFFFFFFFFFFFFFFF800
00FFFFFFFFFFFFFFFFFC00
01FFFFFF800007FFFFFE00
03FFFFE00000001FFFFF00
03FFFF800000003FFFFF00
07FFFE000000007FFFFF80
07FFF800000000FE7FFFC0
0FFFF000000000FC3FFFC0
1FFFE000000001F81FFFE0
1FFFC000000003F00FFFE0
1FFF8000000007F007FFE0
3FFF000000000FE003FFF0
3FFF000000001FC003FFF0
3FFE000000001F8001FFF0
7FFE000000003F0001FFF8
7FFC000000007E0000FFF8
7FFC00000000FC0000FFF8
7FFC00000001FC00007FF8
FFF800000003F800007FFC
FFF800000007F000007FFC
FFF800000007E000007FFC
FFF80000000FC000007FFC
FFF80000001F8000003FFC
FFF00000003F8000003FFC
FFF00000007F0000003FFC
FFF0000000FE0000003FFC
FFF0000000FC0000003FFC
FFF8000001F80000003FFC
FFF8000003F00000007FFC
FFF8000007F00000007FFC
FFF800000FE00000007FFC
7FF800001FC00000007FF8
7FF800001F800000007FF8
7FFC00003F00000000FFF8
7FFC00007E00000000FFF8
7FFC0000FC00000000FFF8
3FFE0001FC00000001FFF0
3FFE0003F800000001FFF0
3FFF0007F000000003FFF0
1FFF8007E000000007FFE0
1FFF800FC000000007FFE0
0FFFC01F800000000FFFC0
0FFFE03F800000001FFFC0
07FFF07F000000003FFF80
07FFF8FE000000007FFF80
03FFFEFC00000001FFFF00
03FFFFF800000007FFFF00
01FFFFF00000001FFFFE00
00FFFFFF800007FFFFFC00
007FFFFFFFFFFFFFFFF800
003FFFFFFFFFFFFFFFF000
001FFFFFFFFFFFFFFFE000
000FFFFFFFFFFFFFFFC000
0007FFFFFFFFFFFFFF8000
0003FFFFFFFFFFFFFF0000
0001FFFFFFFFFFFFFC0000
0003FFFFFFFFFFFFF80000
0007FFFFFFFFFFFFE00000
0007E7FFFFFFFFFF800000
000FC0FFFFFFFFFC000000
001F800FFFFFFFC0000000
003F800000000000000000
007F000000000000000000
003E000000000000000000
001C000000000000000000
0008000000000000000000
ENDCHAR
STARTCHAR Ugrave
ENCODING 217
SWIDTH 889 0
DWIDTH 86 0
BBX 76 89 5 -1
BITMAP
000001C0000000000000
000001F8000000000000
000001FF800000000000
000001FFF00000000000
000001FFFE0000000000
000001FFFFC000000000
000001FFFFFC00000000
000000FFFFFF00000000
00000007FFFF00000000
000000007FFF00000000
0000000003FF00000000
00000000003F00000000
00000000000100000000
00000000000000000000
00000000000000000000
00000000000000000000
00000000000000000000
FFF8000000000000FFF0
FFF8000000000000FFF0
FFF8000000000000FFF0
FFF8000000000000FFF0
FFF8000000000000FFF0
FFF8000000000000FFF0
FFF8000000000000FFF0
FFF8000000000000FFF0
FFF8000000000000FFF0
FFF8000000000000FFF0
FFF8000000000000FFF0
FFF8000000000000FFF0
FFF8000000000000FFF0
FFF8000000000000FFF0
FFF8000000000000FFF0
FFF8000000000000FFF0
FFF8000000000000FFF0
FFF8000000000000FFF0
FFF8000000000000FFF0
FFF8000000000000FFF0
FFF8000000000000FFF0
FFF8000000000000FFF0
FFF8000000000000FFF0
FFF8000000000000FFF0
FFF8000000000000FFF0
FFF8000000000000FFF0
FFF8000000000000FFF0
FFF8000000000000FFF0
FFF8000000000000FFF0
FFF8000000000000FFF0
FFF8000000000000FFF0
FFF8000000000000FFF0
FFF8000000000000FFF0
FFF8000000000000FFF0
FFF8000000000000FFF0
FFF8000000000000FFF0
FFF8000000000000FFF0
FFF8000000000000FFF0
FFF8000000000000FFF0
FFF8000000000000FFF0
FFF8000000000000FFF0
FFF8000000000000FFF0
FFF8000000000000FFF0
FFF8000000000000FFF0
FFF8000000000000FFF0
FFF8000000000000FFF0
FFF8000000000001FFF0
7FFC000000000001FFF0
7FFC000000000001FFE0
7FFC000000000001FFE0
7FFE000000000003FFE0
7FFE000000000003FFE0
3FFF000000000007FFE0
3FFF80000000000FFFC0
3FFFC0000000001FFFC0
1FFFE0000000003FFF80
1FFFF800000000FFFF80
0FFFFE00000003FFFF80
0FFFFFC000001FFFFF00
07FFFFFFF07FFFFFFE00
03FFFFFFFFFFFFFFFE00
03FFFFFFFFFFFFFFFC00
01FFFFFFFFFFFFFFF800
00FFFFFFFFFFFFFFF000
007FFFFFFFFFFFFFE000
001FFFFFFFFFFFFFC000
000FFFFFFFFFFFFF0000
0003FFFFFFFFFFFC0000
0000FFFFFFFFFFF00000
00001FFFFFFFFF800000
000003FFFFFFFC000000
0000000FFFFF00000000
ENDCHAR
STARTCHAR Uacute
ENCODING 218
SWIDTH 889 0
DWIDTH 86 0
BBX 76 89 5 -1
BITMAP
00000000000038000000
000000000001F8000000
00000000000FF8000000
0000000000FFF8000000
0000000007FFF8000000
000000003FFFF8000000
00000003FFFFF8000000
00000007FFFFF0000000
00000007FFFF00000000
00000007FFE000000000
00000007FC0000000000
00000007C00000000000
00000008000000000000
00000000000000000000
00000000000000000000
00000000000000000000
00000000000000000000
FFF8000000000000FFF0
FFF8000000000000FFF0
FFF8000000000000FFF0
FFF8000000000000FFF0
FFF8000000000000FFF0
FFF8000000000000FFF0
FFF8000000000000FFF0
FFF8000000000000FFF0
FFF8000000000000FFF0
FFF8000000000000FFF0
FFF8000000000000FFF0
FFF8000000000000FFF0
FFF8000000000000FFF0
FFF8000000000000FFF0
FFF8000000000000FFF0
FFF8000000000000FFF0
FFF8000000000000FFF0
FFF8000000000000FFF0
FFF8000000000000FFF0
FFF8000000000000FFF0
FFF8000000000000FFF0
FFF8000000000000FFF0
FFF8000000000000FFF0
FFF8000000000000FFF0
FFF8000000000000FFF0
FFF8000000000000FFF0
FFF8000000000000FFF0
FFF8000000000000FFF0
FFF8000000000000FFF0
FFF8000000000000FFF0
FFF8000000000000FFF0
FFF8000000000000FFF0
FFF8000000000000FFF0
FFF8000000000000FFF0
FFF8000000000000FFF0
FFF8000000000000FFF0
FFF8000000000000FFF0
FFF8000000000000FFF0
FFF8000000000000FFF0
FFF8000000000000FFF0
FFF8000000000000FFF0
FFF8000000000000FFF0
FFF8000000000000FFF0
FFF8000000000000FFF0
FFF8000000000000FFF0
FFF8000000000000FFF0
FFF8000000000001FFF0
7FFC000000000001FFF0
7FFC000000000001FFE0
7FFC000000000001FFE0
7FFE000000000003FFE0
7FFE000000000003FFE0
3FFF000000000007FFE0
3FFF80000000000FFFC0
3FFFC0000000001FFFC0
1FFFE0000000003FFF80
1FFFF800000000FFFF80
0FFFFE00000003FFFF80
0FFFFFC000001FFFFF00
07FFFFFFF07FFFFFFE00
03FFFFFFFFFFFFFFFE00
03FFFFFFFFFFFFFFFC00
01FFFFFFFFFFFFFFF800
00FFFFFFFFFFFFFFF000
007FFFFFFFFFFFFFE000
001FFFFFFFFFFFFFC000
000FFFFFFFFFFFFF0000
0003FFFFFFFFFFFC0000
0000FFFFFFFFFFF00000
00001FFFFFFFFF800000
000003FFFFFFFC000000
0000000FFFFF00000000
ENDCHAR
STARTCHAR Ucircumflex
ENCODING 219
SWIDTH 889 0
DWIDTH 86 0
BBX 76 90 5 -1
BITMAP
000000007FE000000000
000000007FF000000000
00000000FFF000000000
00000001FFF800000000
00000001F9F800000000
00000003F9FC00000000
00000007F0FE00000000
00000007E07E00000000
0000000FE07F00000000
0000001FC03F80000000
0000001FC01F80000000
0000003F801FC0000000
0000003F000FE0000000
0000007F0007E0000000
00000000000000000000
00000000000000000000
00000000000000000000
00000000000000000000
FFF8000000000000FFF0
FFF8000000000000FFF0
FFF8000000000000FFF0
FFF8000000000000FFF0
FFF8000000000000FFF0
FFF8000000000000FFF0
FFF8000000000000FFF0
FFF8000000000000FFF0
FFF8000000000000FFF0
FFF8000000000000FFF0
FFF8000000000000FFF0
FFF8000000000000FFF0
FFF8000000000000FFF0
FFF8000000000000FFF0
FFF8000000000000FFF0
FFF8000000000000FFF0
FFF8000000000000FFF0
FFF8000000000000FFF0
FFF8000000000000FFF0
FFF8000000000000FFF0
FFF8000000000000FFF0
FFF8000000000000FFF0
FFF8000000000000FFF0
FFF8000000000000FFF0
FFF8000000000000FFF0
FFF8000000000000FFF0
FFF8000000000000FFF0
FFF8000000000000FFF0
FFF8000000000000FFF0
FFF8000000000000FFF0
FFF8000000000000FFF0
FFF8000000000000FFF0
FFF8000000000000FFF0
FFF8000000000000FFF0
FFF8000000000000FFF0
FFF8000000000000FFF0
FFF8000000000000FFF0
FFF8000000000000FFF0
FFF8000000000000FFF0
FFF8000000000000FFF0
FFF8000000000000FFF0
FFF8000000000000FFF0
FFF8000000000000FFF0
FFF8000000000000FFF0
FFF8000000000000FFF0
FFF8000000000000FFF0
FFF8000000000001FFF0
7FFC000000000001FFF0
7FFC000000000001FFE0
7FFC000000000001FFE0
7FFE000000000003FFE0
7FFE000000000003FFE0
3FFF000000000007FFE0
3FFF80000000000FFFC0
3FFFC0000000001FFFC0
1FFFE0000000003FFF80
1FFFF800000000FFFF80
0FFFFE00000003FFFF80
0FFFFFC000001FFFFF00
07FFFFFFF07FFFFFFE00
03FFFFFFFFFFFFFFFE00
03FFFFFFFFFFFFFFFC00
01FFFFFFFFFFFFFFF800
00FFFFFFFFFFFFFFF000
007FFFFFFFFFFFFFE000
001FFFFFFFFFFFFFC000
000FFFFFFFFFFFFF0000
0003FFFFFFFFFFFC0000
0000FFFFFFFFFFF00000
00001FFFFFFFFF800000
000003FFFFFFFC000000
0000000FFFFF00000000
ENDCHAR
STARTCHAR Udieresis
ENCODING 220
SWIDTH 889 0
DWIDTH 86 0
BBX 76 88 5 -1
BITMAP
0000001F0007C0000000
0000007F801FE0000000
0000007FC01FF0000000
000000FFC03FF0000000
000000FFC03FF0000000
000000FFC03FF0000000
0000007FC01FF0000000
0000007F801FE0000000
0000001F000780000000
00000000000000000000
00000000000000000000
00000000000000000000
00000000000000000000
00000000000000000000
00000000000000000000
00000000000000000000
FFF8000000000000FFF0
FFF8000000000000FFF0
FFF8000000000000FFF0
FFF8000000000000FFF0
FFF8000000000000FFF0
FFF8000000000000FFF0
FFF8000000000000FFF0
FFF8000000000000FFF0
FFF8000000000000FFF0
FFF8000000000000FFF0
FFF8000000000000FFF0
FFF8000000000000FFF0
FFF8000000000000FFF0
FFF8000000000000FFF0
FFF8000000000000FFF0
FFF8000000000000FFF0
FFF8000000000000FFF0
FFF8000000000000FFF0
FFF8000000000000FFF0
FFF8000000000000FFF0
FFF8000000000000FFF0
FFF8000000000000FFF0
FFF8000000000000FFF0
FFF8000000000000FFF0
FFF8000000000000FFF0
FFF8000000000000FFF0
FFF8000000000000FFF0
FFF8000000000000FFF0
FFF8000000000000FFF0
FFF8000000000000FFF0
FFF8000000000000FFF0
FFF8000000000000FFF0
FFF8000000000000FFF0
FFF8000000000000FFF0
FFF8000000000000FFF0
FFF8000000000000FFF0
FFF8000000000000FFF0
FFF8000000000000FFF0
FFF8000000000000FFF0
FFF8000000000000FFF0
FFF8000000000000FFF0
FFF8000000000000FFF0
FFF8000000000000FFF0
FFF8000000000000FFF0
FFF8000000000000FFF0
FFF8000000000000FFF0
FFF8000000000001FFF0
7FFC000000000001FFF0
7FFC000000000001FFE0
7FFC000000000001FFE0
7FFE000000000003FFE0
7FFE000000000003FFE0
3FFF000000000007FFE0
3FFF80000000000FFFC0
3FFFC0000000001FFFC0
1FFFE0000000003FFF80
1FFFF800000000FFFF80
0FFFFE00000003FFFF80
0FFFFFC000001FFFFF00
07FFFFFFF07FFFFFFE00
03FFFFFFFFFFFFFFFE00
03FFFFFFFFFFFFFFFC00
01FFFFFFFFFFFFFFF800
00FFFFFFFFFFFFFFF000
007FFFFFFFFFFFFFE000
001FFFFFFFFFFFFFC000
000FFFFFFFFFFFFF0000
0003FFFFFFFFFFFC0000
0000FFFFFFFFFFF00000
00001FFFFFFFFF800000
000003FFFFFFFC000000
0000000FFFFF00000000
ENDCHAR
STARTCHAR Yacute
ENCODING 221
SWIDTH 926 0
DWIDTH 90 0
BBX 88 88 1 0
BITMAP
00000000000000F0000000
00000000000007F0000000
0000000000003FF0000000
000000000003FFF0000000
00000000001FFFF0000000
0000000000FFFFF0000000
0000000007FFFFF0000000
000000001FFFFFC0000000
000000001FFFFC00000000
000000001FFF8000000000
000000001FF80000000000
000000001F000000000000
0000000010000000000000
0000000000000000000000
0000000000000000000000
0000000000000000000000
0000000000000000000000
FFFF80000000000001FFFF
3FFFC0000000000001FFFC
3FFFE0000000000003FFF8
1FFFF0000000000007FFF8
0FFFF800000000000FFFF0
07FFF800000000001FFFE0
03FFFC00000000003FFFC0
01FFFE00000000003FFF80
01FFFF00000000007FFF00
00FFFF8000000000FFFE00
007FFFC000000001FFFE00
003FFFE000000003FFFC00
001FFFE000000007FFF800
000FFFF00000000FFFF000
0007FFF80000000FFFE000
0007FFFC0000001FFFC000
0003FFFE0000003FFFC000
0001FFFF0000007FFF8000
0000FFFF000000FFFF0000
00007FFF800001FFFE0000
00003FFFC00001FFFC0000
00001FFFE00003FFF80000
00001FFFF00007FFF00000
00000FFFF8000FFFF00000
000007FFF8001FFFE00000
000003FFFC003FFFC00000
000001FFFE003FFF800000
000000FFFF007FFF000000
000000FFFF80FFFE000000
0000007FFFC1FFFC000000
0000003FFFC3FFFC000000
0000001FFFE7FFF8000000
0000000FFFFFFFF0000000
00000007FFFFFFE0000000
00000003FFFFFFC0000000
00000003FFFFFF80000000
00000001FFFFFF00000000
00000000FFFFFF00000000
000000007FFFFE00000000
000000003FFFFC00000000
000000001FFFF800000000
000000000FFFF000000000
000000000FFFE000000000
0000000007FFE000000000
0000000003FFC000000000
0000000003FFC000000000
0000000003FFC000000000
0000000003FFC000000000
0000000003FFC000000000
0000000003FFC000000000
0000000003FFC000000000
0000000003FFC000000000
0000000003FFC000000000
0000000003FFC000000000
0000000003FFC000000000
0000000003FFC000000000
0000000003FFC000000000
0000000003FFC000000000
0000000003FFC000000000
0000000003FFC000000000
0000000003FFC000000000
0000000003FFC000000000
0000000003FFC000000000
0000000003FFC000000000
0000000003FFC000000000
0000000003FFC000000000
0000000003FFC000000000
0000000003FFC000000000
0000000003FFC000000000
0000000003FFC000000000
0000000003FFC000000000
ENDCHAR
ENDFONT
